<?xml version="1.0" encoding="utf-8"?>
<!-- Generator: Adobe Illustrator 16.0.0, SVG Export Plug-In . SVG Version: 6.00 Build 0)  -->
<!DOCTYPE svg PUBLIC "-//W3C//DTD SVG 1.1//EN" "http://www.w3.org/Graphics/SVG/1.1/DTD/svg11.dtd">
<svg version="1.1" xmlns="http://www.w3.org/2000/svg" xmlns:xlink="http://www.w3.org/1999/xlink" x="0px" y="0px"
	 width="841.89px" height="595.28px" viewBox="0 0 841.89 595.28" enable-background="new 0 0 841.89 595.28" xml:space="preserve">
<g id="Layer_2" display="none">
	
		<image display="inline" overflow="visible" width="600" height="400" xlink:href="carrickR1.jpg"  transform="matrix(1 0 0 1 -452 -2506.7197)">
	</image>
	
		<image display="inline" overflow="visible" width="600" height="400" xlink:href="carrickR2.jpg"  transform="matrix(1 0 0 1 262 -2506.7197)">
	</image>
	
		<image display="inline" overflow="visible" width="600" height="400" xlink:href="carrickR3.jpg"  transform="matrix(1 0 0 1 956 -2506.7197)">
	</image>
	
		<image display="inline" overflow="visible" width="600" height="400" xlink:href="carrickR4.jpg"  transform="matrix(1 0 0 1 1760 -2506.7197)">
	</image>
	
		<image display="inline" overflow="visible" width="600" height="400" xlink:href="carrickR5.jpg"  transform="matrix(1 0 0 1 -452 -1676.7197)">
	</image>
	
		<image display="inline" overflow="visible" width="600" height="400" xlink:href="carrickR6.jpg"  transform="matrix(1 0 0 1 262 -1676.7197)">
	</image>
	
		<image display="inline" overflow="visible" width="600" height="400" xlink:href="carrickR7.jpg"  transform="matrix(1 0 0 1 956 -1676.7197)">
	</image>
	
		<image display="inline" overflow="visible" width="600" height="400" xlink:href="carrickR8.jpg"  transform="matrix(1 0 0 1 1760 -1676.7197)">
	</image>
</g>
<g id="Layer_1" display="none">
	<g display="inline">
		<g>
			<path fill="#00A79D" d="M-163.333-2252.5c-16.285,0.027-32.558,0.662-48.837,0.98c-15.343,0.3-30.587-0.316-45.914-0.77
				c-24.565-0.727-50.08,1.946-71.218,15.492c-20.517,13.148-38.309,37.679-28.602,62.753c8.928,23.062,33.74,35.604,56.971,38.807
				c31.675,4.367,63.682,2.365,95.525,1.835c26.112-0.436,51.998-0.457,77.838-4.876c12.448-2.129,24.527-5.538,36.115-10.565
				c12.046-5.226,21.849-13.785,30.676-23.353c19.891-21.563,39.273-44.32,56.319-68.2c7.837-10.979,15.478-20.607,27.023-27.927
				c10.582-6.708,22.503-10.737,34.597-13.726c13.039-3.221,26.484-5.144,39.712-7.435c13.781-2.387,28.533-4.715,42.468-2.284
				c9.458,1.65,13.504-12.804,3.987-14.464c-26.235-4.578-54.064,2.634-79.825,7.489c-24.282,4.576-48.11,13.497-65.845,31.282
				c-10.091,10.119-17.31,23.046-26.106,34.26c-9.269,11.817-19.254,23.009-29.069,34.365c-8.711,10.079-17.004,21.006-27.68,29.137
				c-9.572,7.29-21.294,11.171-32.819,14.108c-24.259,6.184-49.736,7.024-74.65,7.089c-31.661,0.083-63.399,2.427-95.012-0.232
				c-21.754-1.83-49.652-9.059-56.991-32.839c-7.236-23.447,20.212-43.617,39.188-50.237c19.289-6.729,40.021-5.837,60.104-4.936
				c27.337,1.227,54.704-0.71,82.046-0.754C-153.661-2237.516-153.659-2252.516-163.333-2252.5L-163.333-2252.5z"/>
		</g>
	</g>
	<g display="inline">
		<g>
			<path fill="#00A79D" d="M858-2322.501c-31.92,0.521-63.438-5.869-95.333-6c-31.562-0.13-63.253,0.06-94.617,3.951
				c-31.978,3.967-62.414,13.1-92.585,24.172c-12.938,4.748-26.11,11.808-39.963,13.249c-12.535,1.304-24.485-1.452-34.914-8.488
				c-13.514-9.117-21.284-26.674-23.349-42.375c-0.964-7.33-0.198-13.234,5.072-18.684c4.933-5.099,11.93-8.217,18.47-10.669
				c7.717-2.894,15.572-5.007,23.832-3.388c8.316,1.63,15.485,6.584,21.703,12.122c7.224,6.432,13.872,13.731,20.657,20.626
				c6.738,6.846,13.067,14.029,17.218,22.771c4.146,8.734,17.077,1.118,12.951-7.57c-5.862-12.348-15.866-22.206-25.453-31.705
				c-9.292-9.207-17.968-19.054-29.525-25.517c-21.175-11.842-48.523-4.922-66.801,9.537c-8.765,6.934-14.009,16.832-13.529,28.137
				c0.536,12.629,4.468,25.164,10.397,36.256c12.526,23.431,36.988,36.078,63.271,33.948c11.824-0.958,22.27-5.576,33.219-9.761
				c13.172-5.034,26.454-9.781,39.883-14.087c26.756-8.58,53.948-13.694,81.957-15.789c27.656-2.068,55.887-2.599,83.6-1.471
				c28.017,1.14,55.739,6.195,83.84,5.736C867.663-2307.659,867.678-2322.659,858-2322.501L858-2322.501z"/>
		</g>
	</g>
	<g display="inline">
		<g>
			<path fill="#00A79D" d="M608.882-2277.191c3.37,2.489,5.195,7.255,7.153,10.81c2.832,5.142,6.493,9.896,10.063,14.542
				c7.353,9.57,15.559,18.372,24.055,26.928c18.503,18.637,35.386,38.618,53.211,57.881c6.583,7.114,17.165-3.52,10.607-10.606
				c-17.825-19.263-34.662-39.291-53.212-57.881c-8.836-8.855-17.435-18.009-24.869-28.09c-6.491-8.801-10.464-19.909-19.438-26.535
				c-3.296-2.434-8.361-0.553-10.261,2.69C603.958-2283.64,605.6-2279.615,608.882-2277.191L608.882-2277.191z"/>
		</g>
	</g>
	<g display="inline">
		<g>
			<path fill="#00A79D" d="M1552.668-2320.5c-13.828-0.988-27.812-0.667-41.668-0.667c-9.673,0-9.673,15,0,15
				c13.856,0,27.84-0.321,41.668,0.667C1562.325-2304.811,1562.259-2319.815,1552.668-2320.5L1552.668-2320.5z"/>
		</g>
	</g>
	<g display="inline">
		<g>
			<path fill="#00A79D" d="M1462.662-2321.566c-30.469-4.508-60.686,1.059-91.12,2.886c-13.999,0.84-27.547,2.947-41.003,6.971
				c-12.906,3.859-25.344,9.188-37.665,14.588c-23.975,10.505-48.62,22.595-74.878,26.055c-12.193,1.606-24.98,0.277-34.691-7.903
				c-9.122-7.685-15.846-18.327-16.957-30.404c-2.502-27.18,27.77-47.145,51.735-49.398c13.21-1.242,26.007,2.406,35.151,12.281
				c10.42,11.251,15.223,26.803,24.797,38.795c2.555,3.2,7.959,2.648,10.607,0c3.13-3.13,2.548-7.415,0-10.606
				c-6.922-8.67-11.192-19.263-17.106-28.599c-6.384-10.077-14.688-18.136-25.772-22.769c-19.718-8.242-42.67-3.938-60.801,6.262
				c-18.804,10.579-34.205,30.248-33.695,52.578c0.587,25.716,21.356,50.074,46.623,54.422c20.758,3.572,42.897-3.537,62.19-10.65
				c20.134-7.423,39.269-17.263,59.29-24.962c10.032-3.857,20.313-7.029,30.843-9.204c11.17-2.308,22.566-2.412,33.894-3.388
				c24.657-2.124,49.861-6.145,74.57-2.488c4.041,0.598,8.045-0.942,9.227-5.238
				C1468.883-2315.914,1466.713-2320.967,1462.662-2321.566L1462.662-2321.566z"/>
		</g>
	</g>
	<g display="inline">
		<g>
			<path fill="#00A79D" d="M1304.031-2270.364c16.619,17.876,31.688,36.989,45.209,57.309c6.574,9.878,13.796,18.934,22.104,27.417
				c8.572,8.754,17.682,16.954,26.021,25.941c6.593,7.104,17.175-3.527,10.607-10.606c-7.95-8.567-16.55-16.475-24.817-24.727
				c-8.816-8.8-16.029-18.256-22.95-28.572c-13.619-20.3-28.926-39.469-45.565-57.368
				C1308.039-2288.069,1297.456-2277.438,1304.031-2270.364L1304.031-2270.364z"/>
		</g>
	</g>
	<g display="inline">
		<g>
			<path fill="#00A79D" d="M2094.479-2316.119c-5.299-11.955-16.525-19.395-25.451-28.407c-9.496-9.589-18.683-19.116-29.821-26.864
				c-10.523-7.319-23.427-12.996-36.479-11.726c-11.836,1.152-22.036,7.713-29.589,16.67c-8.534,10.122-14.638,22.896-15.59,36.17
				c-0.978,13.624,5.958,26.124,13.454,36.891c13.666,19.631,35.652,30.464,59.138,32.505c34.757,3.021,62.162-18.33,90.738-34.524
				c14.523-8.229,30.028-14.884,46.805-16.466c21.106-1.99,42.696,1.513,63.652,3.703c4.074,0.426,7.5-3.734,7.5-7.5
				c0-4.41-3.436-7.075-7.5-7.5c-29.467-3.079-59.882-7.981-88.71,1.392c-24.635,8.01-45.515,24.054-68.162,36.114
				c-20.096,10.7-42.955,13.246-64.419,5.009c-9.843-3.777-18.899-10.791-25.261-19.163c-7.533-9.915-14.204-21.65-11.694-34.508
				c2.15-11.018,9.72-23.034,19.017-29.419c10.521-7.224,22.095-4.61,32.651,1.059c11.732,6.301,21.332,15.91,30.478,25.42
				c8.773,9.122,21.043,16.875,26.29,28.715c1.658,3.739,7.034,4.582,10.262,2.691
				C2095.604-2308.094,2096.135-2312.382,2094.479-2316.119L2094.479-2316.119z"/>
		</g>
	</g>
	<g display="inline">
		<g>
			<path fill="#00A79D" d="M2266.5-2305.75c29.369,0.128,58.914,6.437,88.163,1.314c9.516-1.666,5.47-16.12-3.988-14.464
				c-27.68,4.847-56.35-1.729-84.175-1.851C2256.825-2320.792,2256.829-2305.792,2266.5-2305.75L2266.5-2305.75z"/>
		</g>
	</g>
	<g display="inline">
		<g>
			<path fill="#00A79D" d="M2110.675-2270.436c4.762,1.674,8.627,5.769,12.35,9.016c4.845,4.226,10.101,7.986,15.229,11.857
				c10.089,7.616,19.279,15.786,27.282,25.6c13.946,17.103,25.807,36.69,45.349,48.105c8.37,4.889,15.916-8.078,7.57-12.952
				c-19.443-11.357-31.056-32.448-45.201-49.247c-8.344-9.908-18.567-17.768-28.854-25.533c-9.491-7.165-18.349-17.306-29.736-21.31
				C2105.513-2288.116,2101.613-2273.621,2110.675-2270.436L2110.675-2270.436z"/>
		</g>
	</g>
	<g display="inline">
		<g>
			<path fill="#00A79D" d="M1970.031-1567.698c13.303,12.438,29.563,20.86,43.49,32.471c15.609,13.015,29.189,28.236,45.178,40.862
				c3.205,2.531,7.465,3.142,10.605,0c2.637-2.637,3.215-8.068,0-10.606c-15.538-12.271-29.141-26.64-43.912-39.774
				c-13.98-12.432-31.069-20.763-44.754-33.56C1973.582-1584.902,1962.953-1574.317,1970.031-1567.698L1970.031-1567.698z"/>
		</g>
	</g>
	<g display="inline">
		<g>
			<path fill="#00A79D" d="M2042.193-1492.12c-4.959,8.741-11.207,17.254-13.443,27.219c-2.506,11.163,2.559,21.058,10.615,28.537
				c7.078,6.57,17.71-4.013,10.607-10.606c-5.662-5.255-8.16-10.128-5.75-17.633c2.281-7.1,7.271-13.509,10.922-19.945
				C2059.925-1492.975,2046.965-1500.531,2042.193-1492.12L2042.193-1492.12z"/>
		</g>
	</g>
	<g display="inline">
		<g>
			<path fill="#00A79D" d="M2088.033-1465.031c-0.816-1.036,0.979,1.383,1.136,1.607c0.69,0.991,1.327,2.019,1.952,3.053
				c1.368,2.26,2.312,4.249,2.982,6.697c2.555,9.317,17.025,5.357,14.465-3.987c-1.842-6.72-5.667-12.563-9.93-17.977
				c-2.533-3.218-7.973-2.633-10.605,0C2084.888-1472.493,2085.506-1468.24,2088.033-1465.031L2088.033-1465.031z"/>
		</g>
	</g>
	<g display="inline">
		<g>
			<path fill="#00A79D" d="M2107.342-1473.103c38.569,7.317,77.229-0.8,115.682-4.7c41.087-4.167,81.877,1.635,122.979,1.635
				c9.673,0,9.673-15,0-15c-39.908,0-79.531-5.528-119.438-1.973c-38.09,3.393-77.033,12.821-115.233,5.574
				C2101.879-1489.359,2097.846-1474.904,2107.342-1473.103L2107.342-1473.103z"/>
		</g>
	</g>
	<g display="inline">
		<g>
			<path fill="#00A79D" d="M1281.233-1487.662c-2.914-7.181-8.49-11.566-14.658-15.958c-6.841-4.87-13.578-9.855-20.789-14.176
				c-14.703-8.81-32.452-16.009-49.814-12.836c-14.955,2.733-26.63,15.143-30.246,29.563c-4.196,16.733,3.221,31.328,14.305,43.369
				c6.564,7.131,17.145-3.504,10.607-10.606c-7.582-8.236-12.832-17.244-10.448-28.775c2.196-10.619,10.736-17.436,21.064-19.323
				c5.513-1.007,11.502,0.741,16.724,2.287c7.15,2.118,13.816,5.535,20.237,9.274c5.686,3.311,11.018,7.149,16.314,11.037
				c3.549,2.605,10.488,5.816,12.239,10.131c1.536,3.785,4.936,6.418,9.227,5.238
				C1279.59-1479.425,1282.772-1483.867,1281.233-1487.662L1281.233-1487.662z"/>
		</g>
	</g>
	<g display="inline">
		<g>
			<path fill="#00A79D" d="M1226.667-1444.834c6.223,0,12.444,0,18.667,0c9.673,0,9.673-15,0-15c-6.223,0-12.444,0-18.667,0
				C1216.994-1459.834,1216.994-1444.834,1226.667-1444.834L1226.667-1444.834z"/>
		</g>
	</g>
	<g display="inline">
		<g>
			<path fill="#00A79D" d="M1283.786-1460.525c5.017-2.486,10.077-4.617,15.542-5.911c9.41-2.228,5.418-16.691-3.988-14.464
				c-6.679,1.582-12.993,4.384-19.124,7.422c-3.661,1.814-4.648,6.919-2.69,10.262
				C1275.695-1459.512,1280.123-1458.71,1283.786-1460.525L1283.786-1460.525z"/>
		</g>
	</g>
	<g display="inline">
		<g>
			<path fill="#00A79D" d="M1308.452-1451.192c20.969-9.222,13.811-42.802,9.514-59.724c-3.984-15.694-10.861-30.563-19.076-44.463
				c-8.827-14.935-15.708-31.228-25.747-45.408c-5.539-7.825-18.555-0.344-12.951,7.571c9.085,12.833,14.598,27.615,22.958,40.851
				c8.434,13.352,15.262,27.49,19.619,42.691c2.359,8.228,3.997,16.751,4.496,25.299c0.437,7.498,0.341,17.274-6.383,20.231
				c-3.744,1.647-4.577,7.042-2.69,10.261C1300.431-1450.059,1304.71-1449.546,1308.452-1451.192L1308.452-1451.192z"/>
		</g>
	</g>
	<g display="inline">
		<g>
			<path fill="#00A79D" d="M1360.667-1475.501c62.872,0.041,126.093,4.034,188.667-4c4.054-0.521,7.5-3.018,7.5-7.5
				c0-3.693-3.435-8.022-7.5-7.5c-62.574,8.034-125.795,4.041-188.667,4C1350.994-1490.508,1350.994-1475.508,1360.667-1475.501
				L1360.667-1475.501z"/>
		</g>
	</g>
	<g display="inline">
		<g>
			<path fill="#00A79D" d="M591.81-1492.12c-10.188-13.899-16.64-29.831-30.496-40.795c-12.687-10.038-28.076-14.162-43.318-18.651
				c-9.302-2.74-13.245,11.737-3.988,14.464c12.93,3.809,25.836,7.1,36.971,15.031c13.017,9.271,18.724,25.03,27.881,37.522
				c2.411,3.29,6.458,4.918,10.261,2.69C592.372-1483.764,594.232-1488.815,591.81-1492.12L591.81-1492.12z"/>
		</g>
	</g>
	<g display="inline">
		<g>
			<path fill="#00A79D" d="M470.858-1530.12c-11.426,15.93-6.667,42.486,2.913,58.171c11.588,18.971,32.847,25.557,53.568,28.847
				c4.034,0.641,8.053-0.973,9.227-5.238c0.991-3.605-1.195-8.584-5.238-9.226c-15.648-2.484-32.966-6.028-42.984-19.547
				c-8.411-11.351-13.359-33.13-4.534-45.435C489.46-1530.427,476.441-1537.904,470.858-1530.12L470.858-1530.12z"/>
		</g>
	</g>
	<g display="inline">
		<g>
			<path fill="#00A79D" d="M574.452-1447.191c19.813-10.199,40.23-19.142,60.667-28c3.754-1.627,4.568-7.056,2.69-10.262
				c-2.248-3.837-6.51-4.316-10.261-2.69c-20.438,8.859-40.855,17.801-60.667,28
				C558.279-1455.715,565.868-1442.772,574.452-1447.191L574.452-1447.191z"/>
		</g>
	</g>
	<g display="inline">
		<g>
			<path fill="#00A79D" d="M606.882-1446.525c20.257,8.976,28.634,30.714,39.926,48.221c14.249,22.092,35.115,37.993,53.89,55.939
				c6.989,6.681,17.611-3.911,10.607-10.606c-18.842-18.011-39.726-33.831-53.664-56.252
				c-11.719-18.851-21.689-40.728-43.188-50.254c-3.737-1.656-8.025-1.126-10.261,2.691
				C602.301-1453.559,603.143-1448.182,606.882-1446.525L606.882-1446.525z"/>
		</g>
	</g>
	<g display="inline">
		<g>
			<path fill="#00A79D" d="M674.667-1478.167c30.962,0.036,61.887,1.694,92.832,2.491c29.151,0.75,58.901-1.72,87.841,2.574
				c4.041,0.6,8.045-0.943,9.227-5.238c0.983-3.575-1.188-8.625-5.238-9.226c-29.104-4.319-58.608-2.378-87.914-3.017
				c-32.255-0.704-64.478-2.547-96.747-2.584C664.993-1493.179,664.994-1478.179,674.667-1478.167L674.667-1478.167z"/>
		</g>
	</g>
	<g display="inline">
		<g>
			<path fill="#00A79D" d="M-103.302-1444.365c18.765,15.291,30.959,36.648,44.638,56.229c6.48,9.278,14.292,17.109,22.266,25.085
				c7.574,7.576,15.631,15.683,19.167,26.042c3.106,9.1,17.598,5.192,14.464-3.987c-7.812-22.885-29.519-35.659-42.946-54.711
				c-14.466-20.526-27.25-43.185-46.983-59.265c-3.166-2.58-7.498-3.109-10.606,0
				C-105.972-1452.302-106.476-1446.951-103.302-1444.365L-103.302-1444.365z"/>
		</g>
	</g>
	<g display="inline">
		<g>
			<path fill="#00A79D" d="M33.334-1476.168c18.668-0.509,37.209,1.509,55.691,3.919c8.824,1.151,17.326,1.379,26.209,0.819
				c9.074-0.573,18.383-1.695,27.439-0.34c4.04,0.604,8.045-0.946,9.226-5.238c0.985-3.579-1.188-8.62-5.238-9.226
				c-18.576-2.78-37.141,1.699-55.751-0.767c-19.101-2.532-38.276-4.694-57.576-4.167
				C23.681-1490.905,23.655-1475.904,33.334-1476.168L33.334-1476.168z"/>
		</g>
	</g>
	<g display="inline">
		<g>
			<path fill="#00A79D" d="M-9.333-1495.168c-25.442,0.04-51.086,1.843-75.455,9.649c-24.278,7.777-46.627,21.189-71.873,25.952
				c-9.499,1.792-5.464,16.247,3.987,14.464c24.006-4.529,45.622-16.744,68.485-24.81c24.074-8.493,49.525-10.216,74.854-10.256
				C0.34-1480.183,0.341-1495.183-9.333-1495.168L-9.333-1495.168z"/>
		</g>
	</g>
	<g display="inline">
		<g>
			<path fill="#00A79D" d="M-195.333-1454.501c-9.261-0.088-17.912-1.948-25.49-7.466c-6.297-4.586-9.912-12.427-12.069-19.654
				c-2.477-8.299-4.249-18.517-2.236-27.057c1.638-6.949,6.563-12.121,12.544-15.722c13.619-8.199,32.012-8.284,46.708-3.241
				c9.88,3.391,19.016,11.082,26.788,17.835c9.404,8.171,17.657,17.733,22.612,29.258c1.616,3.758,7.064,4.563,10.261,2.69
				c3.846-2.253,4.306-6.505,2.691-10.262c-5.212-12.123-14.072-22.388-23.74-31.209c-8.763-7.997-19.058-16.203-30.021-20.936
				c-16.912-7.301-37.478-7.7-54.653-0.981c-18.515,7.243-29.933,22.806-28.75,42.963c1.175,20.03,7.807,40.701,25.82,51.611
				c8.796,5.328,19.406,7.074,29.536,7.17C-185.656-1439.41-185.665-1454.41-195.333-1454.501L-195.333-1454.501z"/>
		</g>
	</g>
	<g display="inline">
		<g>
			<path fill="#C2B59B" d="M-448.5-2299.5c30.903,0.417,62.086-7.984,91.479-16.843c13.949-4.204,27.676-9.572,40.34-16.815
				c12.844-7.346,24.102-16.831,35.313-26.409c11.136-9.514,22.294-18.908,33.315-28.558c5.367-4.7,11.24-8.796,16.819-13.238
				c5.931-4.722,11.129-10.03,16.498-15.352c19.116-18.948,44.133-27.389,69.544-34.261c30.873-8.35,62.485-13.86,94.213-17.712
				c27.365-3.321,55.634-5.862,83-1.616c18.913,2.935,38.516,8.168,54.368,19.271c6.627,4.641,12.011,11.116,14.135,18.992
				c2.808,10.414-5.78,20.325-13.674,25.776c-17.65,12.187-42.366,10.278-62.736,10.265c-23.063-0.015-46.351-0.157-69.12-4.23
				c-9.456-1.691-13.499,12.763-3.987,14.465c30.086,5.382,61.147,5.252,91.615,4.672c25.847-0.493,55.926-5.786,69.225-30.896
				c11.077-20.915-2.41-41.55-19.768-53.289c-16.345-11.054-36.813-16.396-56.07-19.488c-27.577-4.427-55.555-2.553-83.164,0.629
				c-31.833,3.668-63.499,8.926-94.585,16.757c-26.441,6.661-52.435,14.813-74.202,31.773c-5.048,3.934-9.629,8.4-14.028,13.036
				c-5.273,5.557-11.389,10.336-17.475,14.959c-11.731,8.911-22.216,19.206-33.716,28.396
				c-11.479,9.173-22.097,19.387-34.261,27.686c-12.438,8.485-26.303,14.446-40.549,19.139
				c-14.276,4.704-29.013,8.262-43.634,11.714c-16.083,3.796-32.33,6.403-48.895,6.179
				C-458.178-2314.631-458.165-2299.631-448.5-2299.5L-448.5-2299.5z"/>
		</g>
	</g>
	<g display="inline">
		<g>
			<path fill="#C2B59B" d="M268.494-2301.768c13.981-3.363,28.656-0.985,42.818-3.233c15.401-2.444,30.363-7.475,44.867-13.082
				c13.04-5.041,26.234-10.272,38.011-17.892c10.495-6.79,19.934-15.192,28.783-23.978c17.664-17.539,32.939-37.393,51.659-53.879
				c19.251-16.954,42.952-27.498,67.443-34.408c24.893-7.024,50.704-10.153,76.448-11.89c15.537-1.048,31.037-2.078,46.553-3.45
				c16.067-1.421,32.169-2.518,48.305-1.855c13.207,0.542,26.111,3.182,39.071,5.585c10.099,1.872,20.479,3.942,29.969,7.99
				c9.198,3.924,17.221,9.759,22.517,18.347c2.343,3.8,3.975,7.976,5.043,12.299c0.71,2.875,0.67,6.078,0.203,8.113
				c-0.715,3.12-3.107,6.203-5.438,7.918c-4.35,3.202-8.018,4.475-13.077,5.935c-11.71,3.376-23.903,3.891-36.125,3.868
				c-11.624-0.022-23.136-1.146-34.699-2.176c-20.279-1.807-40.61-3.161-60.845-5.442c-4.071-0.459-7.5,3.759-7.5,7.5
				c0,4.435,3.438,7.042,7.5,7.5c23.809,2.684,47.745,4.267,71.603,6.454c15.079,1.383,30.374,1.749,45.446,0.121
				c14.415-1.558,31.568-4.776,41.557-16.348c12.036-13.943,6.319-34.11-3.589-47.571c-13.214-17.954-35.163-24.428-56.07-28.496
				c-12.522-2.437-25.126-4.921-37.836-6.088c-16.061-1.476-32.266-0.576-48.306,0.694c-16.103,1.275-32.159,3.051-48.305,3.734
				c-12.735,0.539-25.498,1.828-38.139,3.433c-26.229,3.33-52.218,8.912-76.631,19.269c-21.344,9.055-39.872,21.982-56.289,38.302
				c-15.999,15.905-30.07,33.63-46.458,49.162c-7.778,7.371-16.121,14.012-25.339,19.496c-11.348,6.751-24.169,11.413-36.52,15.958
				c-13.057,4.806-27.017,9.457-40.94,10.719c-13.259,1.202-26.606-0.215-39.678,2.929
				C255.104-2313.97,259.093-2299.506,268.494-2301.768L268.494-2301.768z"/>
		</g>
	</g>
	<g display="inline">
		<g>
			<path fill="#C2B59B" d="M956.5-2305c15.534-0.113,30.825-2.749,46.184-4.785c14.981-1.985,29.746-2.28,44.837-1.942
				c31.494,0.705,62.984-0.744,94.479-0.773c9.673-0.009,9.674-15.009,0-15c-31.495,0.029-62.985,1.479-94.479,0.773
				c-15.104-0.339-29.841,0.019-44.837,1.942c-15.374,1.972-30.639,4.671-46.184,4.785C946.831-2319.93,946.824-2304.93,956.5-2305
				L956.5-2305z"/>
		</g>
	</g>
	<g display="inline">
		<g>
			<path fill="#C2B59B" d="M1175-2311.5c13.316-0.082,26.12-2.069,38.566-6.875c12.006-4.637,25.024-5.917,36.928-10.893
				c3.769-1.576,6.427-4.904,5.238-9.227c-0.98-3.563-5.446-6.818-9.227-5.238c-10.839,4.531-22.57,6.226-33.729,9.775
				c-6.195,1.972-12.07,4.402-18.459,5.781c-6.339,1.367-12.854,1.636-19.318,1.676C1165.33-2326.44,1165.324-2311.44,1175-2311.5
				L1175-2311.5z"/>
		</g>
	</g>
	<g display="inline">
		<g>
			<path fill="#C2B59B" d="M1282-2338.5c12.267,0.813,24.596-7.07,35.146-12.444c11.447-5.831,21.134-14.821,29.282-24.629
				c8.194-9.864,14.938-20.821,23.257-30.597c8.35-9.813,18.089-17.554,29.148-24.1c22.087-13.075,50.657-24.918,76.674-18.665
				c21.782,5.236,38.301,22.608,42.521,44.517c4.977,25.832-6.481,52.573-23.016,71.875c-19.781,23.094-47.135,38.463-70.317,57.74
				c-7.445,6.191,3.228,16.743,10.607,10.606c22.479-18.692,48.247-33.717,68.191-55.349c17.989-19.511,29.651-44.292,30.401-71.019
				c0.705-25.099-10.272-47.641-30.736-62.162c-21.09-14.966-46.921-14.983-70.938-8.328c-17.059,4.727-33.482,12.728-48.289,22.359
				c-12.9,8.392-23.187,19.365-32.52,31.476c-9.401,12.198-17.463,25.009-29.32,35.085c-5.713,4.855-12.324,8.103-19.005,11.366
				c-6.541,3.195-13.532,7.769-21.089,7.268C1272.338-2354.141,1272.4-2339.137,1282-2338.5L1282-2338.5z"/>
		</g>
	</g>
	<g display="inline">
		<g>
			<path fill="#C2B59B" d="M1190-1505c2.872,51.73,25.088,99.234,41.768,147.494c3.14,9.084,17.633,5.18,14.465-3.987
				c-16.174-46.796-38.447-93.348-41.232-143.506C1204.466-1514.617,1189.463-1514.669,1190-1505L1190-1505z"/>
		</g>
	</g>
	<g display="inline">
		<g>
			<path fill="#C2B59B" d="M1219.785-1486.024c4.021-2.903,8.664-4.648,13-7c3.59-1.947,4.707-6.82,2.691-10.261
				c-2.114-3.608-6.668-4.641-10.262-2.691c-4.336,2.352-8.979,4.097-13,7c-3.308,2.388-4.907,6.478-2.691,10.261
				C1211.44-1485.443,1216.464-1483.626,1219.785-1486.024L1219.785-1486.024z"/>
		</g>
	</g>
	<g display="inline">
		<g>
			<path fill="#C2B59B" d="M1262-1507c7.221-0.158,17.503-4.077,24.215-0.524c8.542,4.521,16.122-8.426,7.57-12.952
				c-10.278-5.44-20.892-1.762-31.785-1.524C1252.342-1521.789,1252.321-1506.788,1262-1507L1262-1507z"/>
		</g>
	</g>
	<g display="inline">
		<g>
			<path fill="#C2B59B" d="M1229.696-1478.197c6.409,7.055,14.501,11.995,21.929,17.85c7.396,5.83,14.221,12.31,22.021,17.63
				c13.446,9.17,30.117,12.566,45.977,8.942c14.247-3.255,25.954-13.316,30.779-27.1c2.636-7.528,2.639-17.057,0.141-24.597
				c-1.472-4.443-4.363-8.17-7.739-11.333c-1.204-1.127-2.63-1.88-4.088-2.604c-0.664-0.315-1.328-0.63-1.993-0.944
				c-2.48-1.174-0.975-1.538,0.517,1.259c-0.391,3.029-0.781,6.059-1.173,9.088c0.079-0.064,0.158-0.128,0.237-0.193
				c3.171-2.588,2.671-7.936,0-10.606c-3.107-3.107-7.442-2.583-10.607,0c-0.078,0.064-0.157,0.128-0.236,0.193
				c-2.647,2.161-2.643,6.332-1.173,9.089c1.251,2.346,3.561,3.505,5.844,4.585c2.542,1.203,4.069,2.377,5.574,4.817
				c2.906,4.712,1.77,12.265,0.233,17.257c-3.184,10.346-13.86,15.593-23.753,17.317c-12.483,2.176-24.761-3.471-34.555-10.664
				c-6.332-4.65-11.99-10.181-18.231-14.953c-6.575-5.026-13.493-9.473-19.096-15.641
				C1233.786-1495.978,1223.21-1485.338,1229.696-1478.197L1229.696-1478.197z"/>
		</g>
	</g>
	<g display="inline">
		<g>
			<path fill="#C2B59B" d="M955-1473.5c33.434,0.035,66.831,1.782,100.256,2.348c16.69,0.283,33.334,0.962,50.017,1.385
				c16.339,0.415,32.427-3.204,48.728-2.733c0-5,0-10,0-15c-0.031,0-0.062,0-0.093,0c-9.673,0-9.673,15,0,15
				c0.198,0,0.396,0,0.593,0c9.673,0,9.673-15,0-15c-0.197,0-0.395,0-0.593,0c-9.673,0-9.673,15,0,15c0.031,0,0.062,0,0.093,0
				c9.692,0,9.646-14.721,0-15c-15.659-0.453-31.146,2.881-46.828,2.766c-16.643-0.123-33.295-1.156-49.947-1.387
				c-34.084-0.473-68.133-2.343-102.225-2.378C945.326-1488.51,945.327-1473.51,955-1473.5L955-1473.5z"/>
		</g>
	</g>
	<g display="inline">
		<g>
			<path fill="#C2B59B" d="M400.197-1618.697c18.029,17.421,39.927,30.215,57.632,47.996c9.782,9.825,18.181,21.098,27.565,31.32
				c4.085,4.449,8.09,8.804,11.826,13.552c3.343,4.248,6.823,8.458,11.494,11.305c8.283,5.048,15.814-7.928,7.57-12.952
				c-3.819-2.328-6.622-6.627-9.344-10.085c-3.434-4.364-7.173-8.349-10.94-12.426c-9.434-10.21-17.883-21.362-27.565-31.32
				c-17.485-17.982-39.615-30.586-57.632-47.996C403.848-1636.024,393.23-1625.428,400.197-1618.697L400.197-1618.697z"/>
		</g>
	</g>
	<g display="inline">
		<g>
			<path fill="#C2B59B" d="M490.994-1487.268c19.531-4.42,38.854-9.63,58-15.5c9.22-2.827,5.285-17.307-3.988-14.464
				c-19.145,5.87-38.468,11.08-58,15.5C477.573-1499.597,481.574-1485.136,490.994-1487.268L490.994-1487.268z"/>
		</g>
	</g>
	<g display="inline">
		<g>
			<path fill="#C2B59B" d="M587-1511.5c18.873,0.208,40.876,7.6,55.283,19.978c15.229,13.083,8.918,36.347,2.984,52.529
				c-3.338,9.102,11.163,12.991,14.465,3.987c7.705-21.012,12.139-47.573-4.906-65.324c-8.329-8.675-20.063-14.121-31.062-18.467
				c-11.588-4.579-24.271-7.564-36.765-7.702C577.323-1526.606,577.333-1511.606,587-1511.5L587-1511.5z"/>
		</g>
	</g>
	<g display="inline">
		<g>
			<path fill="#C2B59B" d="M523.024-1483.215c10.999,19.846,24.891,39.232,41.032,55.235c16.131,15.991,38.246,28.109,61.438,22.211
				c9.369-2.382,5.393-16.85-3.988-14.464c-19.019,4.836-36.395-7.69-49.055-20.577c-14.346-14.603-26.573-32.111-36.476-49.976
				C531.287-1499.246,518.331-1491.682,523.024-1483.215L523.024-1483.215z"/>
		</g>
	</g>
	<g display="inline">
		<g>
			<path fill="#C2B59B" d="M267-1477.5c30.728,1.351,61.437,3.311,92.208,3.152c31.886-0.164,63.451-5.652,95.292-5.652
				c9.673,0,9.673-15,0-15c-15.673,0-31.261,1.659-46.845,3.139c-16.119,1.53-32.256,2.383-48.447,2.513
				c-30.766,0.248-61.488-1.801-92.208-3.152C257.325-1492.925,257.366-1477.924,267-1477.5L267-1477.5z"/>
		</g>
	</g>
	<g display="inline">
		<g>
			<path fill="#C2B59B" d="M-194.732-1466.506c2.43,8.744,7.604,15.972,12.938,23.161c5.919,7.976,10.522,16.278,14.34,25.452
				c7.183,17.254,12.979,37.295,28.475,49.087c11.806,8.984,27.128,11.568,41.643,10.758c7.739-0.432,15.463-1.884,22.918-3.967
				c7.06-1.973,15.081-4.377,20.721-9.182c7.375-6.282-3.289-16.84-10.606-10.606c-3.706,3.157-10.725,4.381-15.288,5.656
				c-6.216,1.737-12.557,2.81-18.998,3.169c-12.065,0.673-24.867-1.57-34.039-9.966c-5.347-4.895-8.595-11.727-11.67-18.167
				c-4.011-8.396-7.163-17.197-10.79-25.762c-3.45-8.147-7.574-15.633-12.806-22.765c-4.77-6.501-10.178-12.957-12.374-20.857
				C-182.854-1479.801-197.327-1475.843-194.732-1466.506L-194.732-1466.506z"/>
		</g>
	</g>
	<g display="inline">
		<g>
			<path fill="#C2B59B" d="M-28.506-1386.768c24.071-5.686,41.78-26.529,49.232-49.358c7.813-23.939,0.469-51.502-13.241-71.824
				c-6.705-9.939-15.47-18.865-26.205-24.376c-10.279-5.278-21.805-7.361-33.237-8.098c-22.855-1.474-46.317,3.503-68.107,10.003
				c-1.816,0.542-3.625,1.112-5.43,1.69c-9.176,2.936-5.252,17.42,3.987,14.464c18.881-6.041,38.43-10.562,58.299-11.286
				c9.858-0.36,19.667,0.429,29.161,3.187c9.859,2.864,17.529,8.743,24.246,16.365c13.865,15.732,21.88,39.818,17.485,60.598
				c-4.256,20.12-19.715,39.338-40.179,44.172C-41.906-1399.009-37.914-1384.546-28.506-1386.768L-28.506-1386.768z"/>
		</g>
	</g>
	<g display="inline">
		<g>
			<path fill="#C2B59B" d="M-452-1476.5c16.431-0.053,32.813-1.327,49.219-2.067c16.263-0.734,32.492-0.256,48.749,0.354
				c32.038,1.201,64.679,1.929,96.532-2.286c4.052-0.536,7.5-3.006,7.5-7.5c0-3.682-3.436-8.038-7.5-7.5
				c-31.854,4.215-64.494,3.482-96.532,2.286c-16.264-0.607-32.479-1.037-48.749-0.354c-16.411,0.689-32.785,2.015-49.219,2.067
				C-461.671-1491.469-461.674-1476.469-452-1476.5L-452-1476.5z"/>
		</g>
	</g>
	<g display="inline">
		<g>
			<path fill="#C2B59B" d="M-221.006-1486.768c18.836-4.955,38.545-6.03,57-12.5c9.066-3.178,5.166-17.673-3.987-14.464
				c-18.456,6.47-38.164,7.545-57,12.5C-234.341-1498.773-230.372-1484.305-221.006-1486.768L-221.006-1486.768z"/>
		</g>
	</g>
	<g display="inline">
		<g>
			<path fill="#C2B59B" d="M1763.006-2306.768c13.525,3.218,27.324,0.919,40.994,0.268c17.069-0.814,34.098-1.449,51.188-1.758
				c16.297-0.294,32.527-0.509,48.827-0.124c8.411,0.199,16.821,0.387,25.234,0.371c7.703-0.015,16.212,0.51,23.745-1.257
				c9.415-2.209,5.422-16.672-3.988-14.465c-6.693,1.57-14.826,0.712-21.688,0.725c-7.769,0.015-15.538-0.189-23.304-0.374
				c-16.3-0.387-32.53-0.177-48.827,0.124c-15.758,0.291-31.516,0.537-47.25,1.494c-13.272,0.808-27.842,3.65-40.943,0.532
				C1757.589-2323.47,1753.598-2309.007,1763.006-2306.768L1763.006-2306.768z"/>
		</g>
	</g>
	<g display="inline">
		<g>
			<path fill="#C2B59B" d="M1984-2314c21.69-0.201,42.443-6.441,62.994-12.768c9.215-2.838,5.282-17.318-3.988-14.465
				c-19.258,5.93-38.674,12.044-59.006,12.232C1974.332-2328.91,1974.323-2313.91,1984-2314L1984-2314z"/>
		</g>
	</g>
	<g display="inline">
		<g>
			<path fill="#C2B59B" d="M2080.494-2339.268c26.723-3.873,48.178-20.386,66.809-38.929c9.398-9.353,19.215-18.328,31.281-24.101
				c12.244-5.858,24.941-3.749,36.131,3.274c9.545,5.991,19.431,12.375,25.756,21.926c8.034,12.133,9.461,26.953,8.029,41.098
				c-1.219,12.039-7.044,23.27-13.336,33.383c-6.821,10.962-15.192,20.888-24.128,30.174c-9.981,10.374-21.442,18.807-32.339,28.14
				c-7.358,6.302,3.303,16.862,10.605,10.606c10.532-9.02,21.565-17.208,31.332-27.105c9.168-9.291,17.521-19.447,24.867-30.235
				c15.508-22.774,23.053-49.517,15.533-76.701c-3.438-12.429-10.878-23.437-20.777-31.602c-9.949-8.206-21.64-16.396-34.13-19.925
				c-27.291-7.708-51.513,12.624-69.431,30.461c-17,16.922-35.813,31.538-60.191,35.071c-4.053,0.588-6.219,5.661-5.238,9.227
				C2072.452-2340.201,2076.451-2338.682,2080.494-2339.268L2080.494-2339.268z"/>
		</g>
	</g>
	<g display="inline">
		<g>
			<path fill="#C2B59B" d="M2147.715-2231.476c-3.639,2.568-8.944,0.815-12.933-0.243c-5.235-1.389-10.339-3.347-15.468-5.081
				c-14.832-5.016-30.669-7.584-46.314-7.7c-9.676-0.071-9.669,14.929,0,15c16.153,0.12,31.632,3.461,46.865,8.685
				c10.538,3.614,25.121,9.558,35.42,2.291C2163.121-2224.053,2155.639-2237.067,2147.715-2231.476L2147.715-2231.476z"/>
		</g>
	</g>
	<g display="inline">
		<g>
			<path fill="#C2B59B" d="M2011.523-1513.285c-7.919,10.518-1.742,25.876,6.673,34.088c6.925,6.757,17.539-3.842,10.607-10.606
				c-3.925-3.83-8.143-10.845-4.327-15.912c2.465-3.274,0.527-8.375-2.691-10.261
				C2017.948-1518.224,2013.978-1516.544,2011.523-1513.285L2011.523-1513.285z"/>
		</g>
	</g>
	<g display="inline">
		<g>
			<path fill="#C2B59B" d="M2070.506-1512.768c7.156,2.063,11.586,7.097,9.479,14.753c-2.143,7.787-12.075,12.926-18.271,17.039
				c-8.018,5.322-0.515,18.319,7.57,12.952c10.735-7.126,23.088-15.011,25.781-28.618c2.92-14.745-6.869-26.642-20.572-30.59
				C2065.178-1529.917,2061.229-1515.441,2070.506-1512.768L2070.506-1512.768z"/>
		</g>
	</g>
	<g display="inline">
		<g>
			<path fill="#C2B59B" d="M2048.197-1456.697c12.015,12.888,27.311,21.849,41.347,32.274c14.919,11.081,29.95,22.149,46.671,30.399
				c8.642,4.264,16.245-8.672,7.57-12.952c-16.188-7.987-30.794-18.621-45.248-29.342c-13.49-10.008-28.195-18.608-39.734-30.985
				C2052.194-1474.392,2041.61-1463.761,2048.197-1456.697L2048.197-1456.697z"/>
		</g>
	</g>
	<g display="inline">
		<g>
			<path fill="#C2B59B" d="M1766-1474c39.748,0,79.502-0.014,119.235-1.24c19.354-0.597,38.595-0.207,57.935,0.706
				c9.62,0.453,19.239,0.929,28.865,1.241c10.133,0.328,20.371-0.189,30.465,0.793c9.627,0.938,9.537-14.071,0-15
				c-9.455-0.921-19.04-0.48-28.531-0.736c-9.631-0.26-19.256-0.747-28.879-1.207c-19.979-0.955-39.859-1.434-59.854-0.796
				c-39.73,1.267-79.489,1.24-119.235,1.24C1756.327-1489,1756.327-1474,1766-1474L1766-1474z"/>
		</g>
	</g>
</g>
<g id="Layer_3" display="none">
	<g display="inline">
		<path fill="none" stroke="#414042" stroke-width="2" stroke-miterlimit="10" d="M-165.333-2248.5
			c-16.285,0.027-32.558,0.662-48.837,0.98c-15.343,0.3-30.587-0.316-45.914-0.77c-24.565-0.727-50.08,1.946-71.218,15.492
			c-20.517,13.148-38.309,37.679-28.602,62.753c8.928,23.062,33.74,35.604,56.971,38.807c31.675,4.367,63.682,2.365,95.525,1.835
			c26.112-0.436,51.998-0.457,77.838-4.876c12.448-2.129,24.527-5.538,36.115-10.565c12.046-5.226,21.849-13.785,30.676-23.353
			c19.891-21.563,39.273-44.32,56.319-68.2c7.837-10.979,15.478-20.607,27.023-27.927c10.582-6.708,22.503-10.737,34.597-13.726
			c13.039-3.221,26.484-5.144,39.712-7.435c13.781-2.387,28.533-4.715,42.468-2.284c9.458,1.65,13.504-12.804,3.987-14.464
			c-26.235-4.578-54.064,2.634-79.825,7.489c-24.282,4.576-48.11,13.497-65.845,31.282c-10.091,10.119-17.31,23.046-26.106,34.26
			c-9.269,11.817-19.254,23.009-29.069,34.365c-8.711,10.079-17.004,21.006-27.68,29.137c-9.572,7.29-21.294,11.171-32.819,14.108
			c-24.259,6.184-49.736,7.024-74.65,7.089c-31.661,0.083-63.399,2.427-95.012-0.232c-21.754-1.83-49.652-9.059-56.991-32.839
			c-7.236-23.447,20.212-43.617,39.188-50.237c19.289-6.729,40.021-5.837,60.104-4.936c27.337,1.227,54.704-0.71,82.046-0.754
			C-155.661-2233.516-155.659-2248.516-165.333-2248.5L-165.333-2248.5z"/>
	</g>
	<g display="inline">
		<path fill="none" stroke="#414042" stroke-width="2" stroke-miterlimit="10" d="M856-2318.501c-31.92,0.521-63.438-5.869-95.333-6
			c-31.562-0.13-63.253,0.06-94.617,3.951c-31.978,3.967-62.414,13.1-92.585,24.172c-12.938,4.748-26.11,11.808-39.963,13.249
			c-12.535,1.304-24.485-1.452-34.914-8.488c-13.514-9.117-21.284-26.674-23.349-42.375c-0.964-7.33-0.198-13.234,5.072-18.684
			c4.933-5.099,11.93-8.217,18.47-10.669c7.717-2.894,15.572-5.007,23.832-3.388c8.316,1.63,15.485,6.584,21.703,12.122
			c7.224,6.432,13.872,13.731,20.657,20.626c6.738,6.846,13.067,14.029,17.218,22.771c4.146,8.734,17.077,1.118,12.951-7.57
			c-5.862-12.348-15.866-22.206-25.453-31.705c-9.292-9.207-17.968-19.054-29.525-25.517c-21.175-11.842-48.523-4.922-66.801,9.537
			c-8.765,6.934-14.009,16.832-13.529,28.137c0.536,12.629,4.468,25.164,10.397,36.256c12.526,23.431,36.988,36.078,63.271,33.948
			c11.824-0.958,22.27-5.576,33.219-9.761c13.172-5.034,26.454-9.781,39.883-14.087c26.756-8.58,53.948-13.694,81.957-15.789
			c27.656-2.068,55.887-2.599,83.6-1.471c28.017,1.14,55.739,6.195,83.84,5.736C865.663-2303.659,865.678-2318.659,856-2318.501
			L856-2318.501z"/>
	</g>
	<g display="inline">
		<path fill="none" stroke="#414042" stroke-width="2" stroke-miterlimit="10" d="M606.882-2273.191
			c3.37,2.489,5.195,7.255,7.153,10.81c2.832,5.142,6.493,9.896,10.063,14.542c7.353,9.57,15.559,18.372,24.055,26.928
			c18.503,18.637,35.386,38.618,53.211,57.881c6.583,7.114,17.165-3.52,10.607-10.606c-17.825-19.263-34.662-39.291-53.212-57.881
			c-8.836-8.855-17.435-18.009-24.869-28.09c-6.491-8.801-10.464-19.909-19.438-26.535c-3.296-2.434-8.361-0.553-10.261,2.69
			C601.958-2279.64,603.6-2275.615,606.882-2273.191L606.882-2273.191z"/>
	</g>
	<g display="inline">
		<path fill="none" stroke="#414042" stroke-width="2" stroke-miterlimit="10" d="M1550.668-2316.5
			c-13.828-0.988-27.812-0.667-41.668-0.667c-9.673,0-9.673,15,0,15c13.856,0,27.84-0.321,41.668,0.667
			C1560.325-2300.811,1560.259-2315.815,1550.668-2316.5L1550.668-2316.5z"/>
	</g>
	<g display="inline">
		<path fill="none" stroke="#414042" stroke-width="2" stroke-miterlimit="10" d="M1460.662-2317.566
			c-30.469-4.508-60.686,1.059-91.12,2.886c-13.999,0.84-27.547,2.947-41.003,6.971c-12.906,3.859-25.344,9.188-37.665,14.588
			c-23.975,10.505-48.62,22.595-74.878,26.055c-12.193,1.606-24.98,0.277-34.691-7.903c-9.122-7.685-15.846-18.327-16.957-30.404
			c-2.502-27.18,27.77-47.145,51.735-49.398c13.21-1.242,26.007,2.406,35.151,12.281c10.42,11.251,15.223,26.803,24.797,38.795
			c2.555,3.2,7.959,2.648,10.607,0c3.13-3.13,2.548-7.415,0-10.606c-6.922-8.67-11.192-19.263-17.106-28.599
			c-6.384-10.077-14.688-18.136-25.772-22.769c-19.718-8.242-42.67-3.938-60.801,6.262c-18.804,10.579-34.205,30.248-33.695,52.578
			c0.587,25.716,21.356,50.074,46.623,54.422c20.758,3.572,42.897-3.537,62.19-10.65c20.134-7.423,39.269-17.263,59.29-24.962
			c10.032-3.857,20.313-7.029,30.843-9.204c11.17-2.308,22.566-2.412,33.894-3.388c24.657-2.124,49.861-6.145,74.57-2.488
			c4.041,0.598,8.045-0.942,9.227-5.238C1466.883-2311.914,1464.713-2316.967,1460.662-2317.566L1460.662-2317.566z"/>
	</g>
	<g display="inline">
		<path fill="none" stroke="#414042" stroke-width="2" stroke-miterlimit="10" d="M1302.031-2266.364
			c16.619,17.876,31.688,36.989,45.209,57.309c6.574,9.878,13.796,18.934,22.104,27.417c8.572,8.754,17.682,16.954,26.021,25.941
			c6.593,7.104,17.175-3.527,10.607-10.606c-7.95-8.567-16.55-16.475-24.817-24.727c-8.816-8.8-16.029-18.256-22.95-28.572
			c-13.619-20.3-28.926-39.469-45.565-57.368C1306.039-2284.069,1295.456-2273.438,1302.031-2266.364L1302.031-2266.364z"/>
	</g>
	<g display="inline">
		<path fill="none" stroke="#414042" stroke-width="2" stroke-miterlimit="10" d="M2092.479-2312.119
			c-5.299-11.955-16.525-19.395-25.451-28.407c-9.496-9.589-18.683-19.116-29.821-26.864c-10.523-7.319-23.427-12.996-36.479-11.726
			c-11.836,1.152-22.036,7.713-29.589,16.67c-8.534,10.122-14.638,22.896-15.59,36.17c-0.978,13.624,5.958,26.124,13.454,36.891
			c13.666,19.631,35.652,30.464,59.138,32.505c34.757,3.021,62.162-18.33,90.738-34.524c14.523-8.229,30.028-14.884,46.805-16.466
			c21.106-1.99,42.696,1.513,63.652,3.703c4.074,0.426,7.5-3.734,7.5-7.5c0-4.41-3.436-7.075-7.5-7.5
			c-29.467-3.079-59.882-7.981-88.71,1.392c-24.635,8.01-45.515,24.054-68.162,36.114c-20.096,10.7-42.955,13.246-64.419,5.009
			c-9.843-3.777-18.899-10.791-25.261-19.163c-7.533-9.915-14.204-21.65-11.694-34.508c2.15-11.018,9.72-23.034,19.017-29.419
			c10.521-7.224,22.095-4.61,32.651,1.059c11.732,6.301,21.332,15.91,30.478,25.42c8.773,9.122,21.043,16.875,26.29,28.715
			c1.658,3.739,7.034,4.582,10.262,2.691C2093.604-2304.094,2094.135-2308.382,2092.479-2312.119L2092.479-2312.119z"/>
	</g>
	<g display="inline">
		<path fill="none" stroke="#414042" stroke-width="2" stroke-miterlimit="10" d="M2264.5-2301.75
			c29.369,0.128,58.914,6.437,88.163,1.314c9.516-1.666,5.47-16.12-3.988-14.464c-27.68,4.847-56.35-1.729-84.175-1.851
			C2254.825-2316.792,2254.829-2301.792,2264.5-2301.75L2264.5-2301.75z"/>
	</g>
	<g display="inline">
		<path fill="none" stroke="#414042" stroke-width="2" stroke-miterlimit="10" d="M2108.675-2266.436
			c4.762,1.674,8.627,5.769,12.35,9.016c4.845,4.226,10.101,7.986,15.229,11.857c10.089,7.616,19.279,15.786,27.282,25.6
			c13.946,17.103,25.807,36.69,45.349,48.105c8.37,4.889,15.916-8.078,7.57-12.952c-19.443-11.357-31.056-32.448-45.201-49.247
			c-8.344-9.908-18.567-17.768-28.854-25.533c-9.491-7.165-18.349-17.306-29.736-21.31
			C2103.513-2284.116,2099.613-2269.621,2108.675-2266.436L2108.675-2266.436z"/>
	</g>
	<g display="inline">
		<path fill="none" stroke="#414042" stroke-width="2" stroke-miterlimit="10" d="M1968.031-1563.698
			c13.303,12.438,29.563,20.86,43.49,32.471c15.609,13.015,29.189,28.236,45.178,40.862c3.205,2.531,7.465,3.142,10.605,0
			c2.637-2.637,3.215-8.068,0-10.606c-15.538-12.271-29.141-26.64-43.912-39.774c-13.98-12.432-31.069-20.763-44.754-33.56
			C1971.582-1580.902,1960.953-1570.317,1968.031-1563.698L1968.031-1563.698z"/>
	</g>
	<g display="inline">
		<path fill="none" stroke="#414042" stroke-width="2" stroke-miterlimit="10" d="M2040.193-1488.12
			c-4.959,8.741-11.207,17.254-13.443,27.219c-2.506,11.163,2.559,21.058,10.615,28.537c7.078,6.57,17.71-4.013,10.607-10.606
			c-5.662-5.255-8.16-10.128-5.75-17.633c2.281-7.1,7.271-13.509,10.922-19.945
			C2057.925-1488.975,2044.965-1496.531,2040.193-1488.12L2040.193-1488.12z"/>
	</g>
	<g display="inline">
		<path fill="none" stroke="#414042" stroke-width="2" stroke-miterlimit="10" d="M2086.033-1461.031
			c-0.816-1.036,0.979,1.383,1.136,1.607c0.69,0.991,1.327,2.019,1.952,3.053c1.368,2.26,2.312,4.249,2.982,6.697
			c2.555,9.317,17.025,5.357,14.465-3.987c-1.842-6.72-5.667-12.563-9.93-17.977c-2.533-3.218-7.973-2.633-10.605,0
			C2082.888-1468.493,2083.506-1464.24,2086.033-1461.031L2086.033-1461.031z"/>
	</g>
	<g display="inline">
		<path fill="none" stroke="#414042" stroke-width="2" stroke-miterlimit="10" d="M2105.342-1469.103
			c38.569,7.317,77.229-0.8,115.682-4.7c41.087-4.167,81.877,1.635,122.979,1.635c9.673,0,9.673-15,0-15
			c-39.908,0-79.531-5.528-119.438-1.973c-38.09,3.393-77.033,12.821-115.233,5.574
			C2099.879-1485.359,2095.846-1470.904,2105.342-1469.103L2105.342-1469.103z"/>
	</g>
	<g display="inline">
		<path fill="none" stroke="#414042" stroke-width="2" stroke-miterlimit="10" d="M1279.233-1483.662
			c-2.914-7.181-8.49-11.566-14.658-15.958c-6.841-4.87-13.578-9.855-20.789-14.176c-14.703-8.81-32.452-16.009-49.814-12.836
			c-14.955,2.733-26.63,15.143-30.246,29.563c-4.196,16.733,3.221,31.328,14.305,43.369c6.564,7.131,17.145-3.504,10.607-10.606
			c-7.582-8.236-12.832-17.244-10.448-28.775c2.196-10.619,10.736-17.436,21.064-19.323c5.513-1.007,11.502,0.741,16.724,2.287
			c7.15,2.118,13.816,5.535,20.237,9.274c5.686,3.311,11.018,7.149,16.314,11.037c3.549,2.605,10.488,5.816,12.239,10.131
			c1.536,3.785,4.936,6.418,9.227,5.238C1277.59-1475.425,1280.772-1479.867,1279.233-1483.662L1279.233-1483.662z"/>
	</g>
	<g display="inline">
		<path fill="none" stroke="#414042" stroke-width="2" stroke-miterlimit="10" d="M1224.667-1440.834c6.223,0,12.444,0,18.667,0
			c9.673,0,9.673-15,0-15c-6.223,0-12.444,0-18.667,0C1214.994-1455.834,1214.994-1440.834,1224.667-1440.834L1224.667-1440.834z"/>
	</g>
	<g display="inline">
		<path fill="none" stroke="#414042" stroke-width="2" stroke-miterlimit="10" d="M1281.786-1456.525
			c5.017-2.486,10.077-4.617,15.542-5.911c9.41-2.228,5.418-16.691-3.988-14.464c-6.679,1.582-12.993,4.384-19.124,7.422
			c-3.661,1.814-4.648,6.919-2.69,10.262C1273.695-1455.512,1278.123-1454.71,1281.786-1456.525L1281.786-1456.525z"/>
	</g>
	<g display="inline">
		<path fill="none" stroke="#414042" stroke-width="2" stroke-miterlimit="10" d="M1306.452-1447.192
			c20.969-9.222,13.811-42.802,9.514-59.724c-3.984-15.694-10.861-30.563-19.076-44.463c-8.827-14.935-15.708-31.228-25.747-45.408
			c-5.539-7.825-18.555-0.344-12.951,7.571c9.085,12.833,14.598,27.615,22.958,40.851c8.434,13.352,15.262,27.49,19.619,42.691
			c2.359,8.228,3.997,16.751,4.496,25.299c0.437,7.498,0.341,17.274-6.383,20.231c-3.744,1.647-4.577,7.042-2.69,10.261
			C1298.431-1446.059,1302.71-1445.546,1306.452-1447.192L1306.452-1447.192z"/>
	</g>
	<g display="inline">
		<path fill="none" stroke="#414042" stroke-width="2" stroke-miterlimit="10" d="M1358.667-1471.501
			c62.872,0.041,126.093,4.034,188.667-4c4.054-0.521,7.5-3.018,7.5-7.5c0-3.693-3.435-8.022-7.5-7.5
			c-62.574,8.034-125.795,4.041-188.667,4C1348.994-1486.508,1348.994-1471.508,1358.667-1471.501L1358.667-1471.501z"/>
	</g>
	<g display="inline">
		<path fill="none" stroke="#414042" stroke-width="2" stroke-miterlimit="10" d="M589.81-1488.12
			c-10.188-13.899-16.64-29.831-30.496-40.795c-12.687-10.038-28.076-14.162-43.318-18.651c-9.302-2.74-13.245,11.737-3.988,14.464
			c12.93,3.809,25.836,7.1,36.971,15.031c13.017,9.271,18.724,25.03,27.881,37.522c2.411,3.29,6.458,4.918,10.261,2.69
			C590.372-1479.764,592.232-1484.815,589.81-1488.12L589.81-1488.12z"/>
	</g>
	<g display="inline">
		<path fill="none" stroke="#414042" stroke-width="2" stroke-miterlimit="10" d="M468.858-1526.12
			c-11.426,15.93-6.667,42.486,2.913,58.171c11.588,18.971,32.847,25.557,53.568,28.847c4.034,0.641,8.053-0.973,9.227-5.238
			c0.991-3.605-1.195-8.584-5.238-9.226c-15.648-2.484-32.966-6.028-42.984-19.547c-8.411-11.351-13.359-33.13-4.534-45.435
			C487.46-1526.427,474.441-1533.904,468.858-1526.12L468.858-1526.12z"/>
	</g>
	<g display="inline">
		<path fill="none" stroke="#414042" stroke-width="2" stroke-miterlimit="10" d="M572.452-1443.191
			c19.813-10.199,40.23-19.142,60.667-28c3.754-1.627,4.568-7.056,2.69-10.262c-2.248-3.837-6.51-4.316-10.261-2.69
			c-20.438,8.859-40.855,17.801-60.667,28C556.279-1451.715,563.868-1438.772,572.452-1443.191L572.452-1443.191z"/>
	</g>
	<g display="inline">
		<path fill="none" stroke="#414042" stroke-width="2" stroke-miterlimit="10" d="M604.882-1442.525
			c20.257,8.976,28.634,30.714,39.926,48.221c14.249,22.092,35.115,37.993,53.89,55.939c6.989,6.681,17.611-3.911,10.607-10.606
			c-18.842-18.011-39.726-33.831-53.664-56.252c-11.719-18.851-21.689-40.728-43.188-50.254c-3.737-1.656-8.025-1.126-10.261,2.691
			C600.301-1449.559,601.143-1444.182,604.882-1442.525L604.882-1442.525z"/>
	</g>
	<g display="inline">
		<path fill="none" stroke="#414042" stroke-width="2" stroke-miterlimit="10" d="M672.667-1474.167
			c30.962,0.036,61.887,1.694,92.832,2.491c29.151,0.75,58.901-1.72,87.841,2.574c4.041,0.6,8.045-0.943,9.227-5.238
			c0.983-3.575-1.188-8.625-5.238-9.226c-29.104-4.319-58.608-2.378-87.914-3.017c-32.255-0.704-64.478-2.547-96.747-2.584
			C662.993-1489.179,662.994-1474.179,672.667-1474.167L672.667-1474.167z"/>
	</g>
	<g display="inline">
		<path fill="none" stroke="#414042" stroke-width="2" stroke-miterlimit="10" d="M-105.302-1440.365
			c18.765,15.291,30.959,36.648,44.638,56.229c6.48,9.278,14.292,17.109,22.266,25.085c7.574,7.576,15.631,15.683,19.167,26.042
			c3.106,9.1,17.598,5.192,14.464-3.987c-7.812-22.885-29.519-35.659-42.946-54.711c-14.466-20.526-27.25-43.185-46.983-59.265
			c-3.166-2.58-7.498-3.109-10.606,0C-107.972-1448.302-108.476-1442.951-105.302-1440.365L-105.302-1440.365z"/>
	</g>
	<g display="inline">
		<path fill="none" stroke="#414042" stroke-width="2" stroke-miterlimit="10" d="M31.334-1472.168
			c18.668-0.509,37.209,1.509,55.691,3.919c8.824,1.151,17.326,1.379,26.209,0.819c9.074-0.573,18.383-1.695,27.439-0.34
			c4.04,0.604,8.045-0.946,9.226-5.238c0.985-3.579-1.188-8.62-5.238-9.226c-18.576-2.78-37.141,1.699-55.751-0.767
			c-19.101-2.532-38.276-4.694-57.576-4.167C21.681-1486.905,21.655-1471.904,31.334-1472.168L31.334-1472.168z"/>
	</g>
	<g display="inline">
		<path fill="none" stroke="#414042" stroke-width="2" stroke-miterlimit="10" d="M-11.333-1491.168
			c-25.442,0.04-51.086,1.843-75.455,9.649c-24.278,7.777-46.627,21.189-71.873,25.952c-9.499,1.792-5.464,16.247,3.987,14.464
			c24.006-4.529,45.622-16.744,68.485-24.81c24.074-8.493,49.525-10.216,74.854-10.256
			C-1.66-1476.183-1.659-1491.183-11.333-1491.168L-11.333-1491.168z"/>
	</g>
	<g display="inline">
		<path fill="none" stroke="#414042" stroke-width="2" stroke-miterlimit="10" d="M-197.333-1450.501
			c-9.261-0.088-17.912-1.948-25.49-7.466c-6.297-4.586-9.912-12.427-12.069-19.654c-2.477-8.299-4.249-18.517-2.236-27.057
			c1.638-6.949,6.563-12.121,12.544-15.722c13.619-8.199,32.012-8.284,46.708-3.241c9.88,3.391,19.016,11.082,26.788,17.835
			c9.404,8.171,17.657,17.733,22.612,29.258c1.616,3.758,7.064,4.563,10.261,2.69c3.846-2.253,4.306-6.505,2.691-10.262
			c-5.212-12.123-14.072-22.388-23.74-31.209c-8.763-7.997-19.058-16.203-30.021-20.936c-16.912-7.301-37.478-7.7-54.653-0.981
			c-18.515,7.243-29.933,22.806-28.75,42.963c1.175,20.03,7.807,40.701,25.82,51.611c8.796,5.328,19.406,7.074,29.536,7.17
			C-187.656-1435.41-187.665-1450.41-197.333-1450.501L-197.333-1450.501z"/>
	</g>
	<g display="inline">
		<path fill="none" stroke="#414042" stroke-width="2" stroke-miterlimit="10" d="M-450.5-2295.5
			c30.903,0.417,62.086-7.984,91.479-16.843c13.949-4.204,27.676-9.572,40.34-16.815c12.844-7.346,24.102-16.831,35.313-26.409
			c11.136-9.514,22.294-18.908,33.315-28.558c5.367-4.7,11.24-8.796,16.819-13.238c5.931-4.722,11.129-10.03,16.498-15.352
			c19.116-18.948,44.133-27.389,69.544-34.261c30.873-8.35,62.485-13.86,94.213-17.712c27.365-3.321,55.634-5.862,83-1.616
			c18.913,2.935,38.516,8.168,54.368,19.271c6.627,4.641,12.011,11.116,14.135,18.992c2.808,10.414-5.78,20.325-13.674,25.776
			c-17.65,12.187-42.366,10.278-62.736,10.265c-23.063-0.015-46.351-0.157-69.12-4.23c-9.456-1.691-13.499,12.763-3.987,14.465
			c30.086,5.382,61.147,5.252,91.615,4.672c25.847-0.493,55.926-5.786,69.225-30.896c11.077-20.915-2.41-41.55-19.768-53.289
			c-16.345-11.054-36.813-16.396-56.07-19.488c-27.577-4.427-55.555-2.553-83.164,0.629c-31.833,3.668-63.499,8.926-94.585,16.757
			c-26.441,6.661-52.435,14.813-74.202,31.773c-5.048,3.934-9.629,8.4-14.028,13.036c-5.273,5.557-11.389,10.336-17.475,14.959
			c-11.731,8.911-22.216,19.206-33.716,28.396c-11.479,9.173-22.097,19.387-34.261,27.686
			c-12.438,8.485-26.303,14.446-40.549,19.139c-14.276,4.704-29.013,8.262-43.634,11.714c-16.083,3.796-32.33,6.403-48.895,6.179
			C-460.178-2310.631-460.165-2295.631-450.5-2295.5L-450.5-2295.5z"/>
	</g>
	<g display="inline">
		<path fill="none" stroke="#414042" stroke-width="2" stroke-miterlimit="10" d="M266.494-2297.768
			c13.981-3.363,28.656-0.985,42.818-3.233c15.401-2.444,30.363-7.475,44.867-13.082c13.04-5.041,26.234-10.272,38.011-17.892
			c10.495-6.79,19.934-15.192,28.783-23.978c17.664-17.539,32.939-37.393,51.659-53.879c19.251-16.954,42.952-27.498,67.443-34.408
			c24.893-7.024,50.704-10.153,76.448-11.89c15.537-1.048,31.037-2.078,46.553-3.45c16.067-1.421,32.169-2.518,48.305-1.855
			c13.207,0.542,26.111,3.182,39.071,5.585c10.099,1.872,20.479,3.942,29.969,7.99c9.198,3.924,17.221,9.759,22.517,18.347
			c2.343,3.8,3.975,7.976,5.043,12.299c0.71,2.875,0.67,6.078,0.203,8.113c-0.715,3.12-3.107,6.203-5.438,7.918
			c-4.35,3.202-8.018,4.475-13.077,5.935c-11.71,3.376-23.903,3.891-36.125,3.868c-11.624-0.022-23.136-1.146-34.699-2.176
			c-20.279-1.807-40.61-3.161-60.845-5.442c-4.071-0.459-7.5,3.759-7.5,7.5c0,4.435,3.438,7.042,7.5,7.5
			c23.809,2.684,47.745,4.267,71.603,6.454c15.079,1.383,30.374,1.749,45.446,0.121c14.415-1.558,31.568-4.776,41.557-16.348
			c12.036-13.943,6.319-34.11-3.589-47.571c-13.214-17.954-35.163-24.428-56.07-28.496c-12.522-2.437-25.126-4.921-37.836-6.088
			c-16.061-1.476-32.266-0.576-48.306,0.694c-16.103,1.275-32.159,3.051-48.305,3.734c-12.735,0.539-25.498,1.828-38.139,3.433
			c-26.229,3.33-52.218,8.912-76.631,19.269c-21.344,9.055-39.872,21.982-56.289,38.302c-15.999,15.905-30.07,33.63-46.458,49.162
			c-7.778,7.371-16.121,14.012-25.339,19.496c-11.348,6.751-24.169,11.413-36.52,15.958c-13.057,4.806-27.017,9.457-40.94,10.719
			c-13.259,1.202-26.606-0.215-39.678,2.929C253.104-2309.97,257.093-2295.506,266.494-2297.768L266.494-2297.768z"/>
	</g>
	<g display="inline">
		<path fill="none" stroke="#414042" stroke-width="2" stroke-miterlimit="10" d="M954.5-2301
			c15.534-0.113,30.825-2.749,46.184-4.785c14.981-1.985,29.746-2.28,44.837-1.942c31.494,0.705,62.984-0.744,94.479-0.773
			c9.673-0.009,9.674-15.009,0-15c-31.495,0.029-62.985,1.479-94.479,0.773c-15.104-0.339-29.841,0.019-44.837,1.942
			c-15.374,1.972-30.639,4.671-46.184,4.785C944.831-2315.93,944.824-2300.93,954.5-2301L954.5-2301z"/>
	</g>
	<g display="inline">
		<path fill="none" stroke="#414042" stroke-width="2" stroke-miterlimit="10" d="M1173-2307.5
			c13.316-0.082,26.12-2.069,38.566-6.875c12.006-4.637,25.024-5.917,36.928-10.893c3.769-1.576,6.427-4.904,5.238-9.227
			c-0.98-3.563-5.446-6.818-9.227-5.238c-10.839,4.531-22.57,6.226-33.729,9.775c-6.195,1.972-12.07,4.402-18.459,5.781
			c-6.339,1.367-12.854,1.636-19.318,1.676C1163.33-2322.44,1163.324-2307.44,1173-2307.5L1173-2307.5z"/>
	</g>
	<g display="inline">
		<path fill="none" stroke="#414042" stroke-width="2" stroke-miterlimit="10" d="M1280-2334.5
			c12.267,0.813,24.596-7.07,35.146-12.444c11.447-5.831,21.134-14.821,29.282-24.629c8.194-9.864,14.938-20.821,23.257-30.597
			c8.35-9.813,18.089-17.554,29.148-24.1c22.087-13.075,50.657-24.918,76.674-18.665c21.782,5.236,38.301,22.608,42.521,44.517
			c4.977,25.832-6.481,52.573-23.016,71.875c-19.781,23.094-47.135,38.463-70.317,57.74c-7.445,6.191,3.228,16.743,10.607,10.606
			c22.479-18.692,48.247-33.717,68.191-55.349c17.989-19.511,29.651-44.292,30.401-71.019c0.705-25.099-10.272-47.641-30.736-62.162
			c-21.09-14.966-46.921-14.983-70.938-8.328c-17.059,4.727-33.482,12.728-48.289,22.359c-12.9,8.392-23.187,19.365-32.52,31.476
			c-9.401,12.198-17.463,25.009-29.32,35.085c-5.713,4.855-12.324,8.103-19.005,11.366c-6.541,3.195-13.532,7.769-21.089,7.268
			C1270.338-2350.141,1270.4-2335.137,1280-2334.5L1280-2334.5z"/>
	</g>
	<g display="inline">
		<path fill="none" stroke="#414042" stroke-width="2" stroke-miterlimit="10" d="M1188-1501
			c2.872,51.73,25.088,99.234,41.768,147.494c3.14,9.084,17.633,5.18,14.465-3.987c-16.174-46.796-38.447-93.348-41.232-143.506
			C1202.466-1510.617,1187.463-1510.669,1188-1501L1188-1501z"/>
	</g>
	<g display="inline">
		<path fill="none" stroke="#414042" stroke-width="2" stroke-miterlimit="10" d="M1217.785-1482.024c4.021-2.903,8.664-4.648,13-7
			c3.59-1.947,4.707-6.82,2.691-10.261c-2.114-3.608-6.668-4.641-10.262-2.691c-4.336,2.352-8.979,4.097-13,7
			c-3.308,2.388-4.907,6.478-2.691,10.261C1209.44-1481.443,1214.464-1479.626,1217.785-1482.024L1217.785-1482.024z"/>
	</g>
	<g display="inline">
		<path fill="none" stroke="#414042" stroke-width="2" stroke-miterlimit="10" d="M1260-1503c7.221-0.158,17.503-4.077,24.215-0.524
			c8.542,4.521,16.122-8.426,7.57-12.952c-10.278-5.44-20.892-1.762-31.785-1.524C1250.342-1517.789,1250.321-1502.788,1260-1503
			L1260-1503z"/>
	</g>
	<g display="inline">
		<path fill="none" stroke="#414042" stroke-width="2" stroke-miterlimit="10" d="M1227.696-1474.197
			c6.409,7.055,14.501,11.995,21.929,17.85c7.396,5.83,14.221,12.31,22.021,17.63c13.446,9.17,30.117,12.566,45.977,8.942
			c14.247-3.255,25.954-13.316,30.779-27.1c2.636-7.528,2.639-17.057,0.141-24.597c-1.472-4.443-4.363-8.17-7.739-11.333
			c-1.204-1.127-3.544-2.852-6.449-4.217c-3.977-1.87-7.493-2.365-10.658,0.217c-0.078,0.064-0.157,0.128-0.236,0.193
			c-2.647,2.161-2.643,6.332-1.173,9.089c1.251,2.346,3.561,3.505,5.844,4.585c2.542,1.203,4.069,2.377,5.574,4.817
			c2.906,4.712,1.77,12.265,0.233,17.257c-3.184,10.346-13.86,15.593-23.753,17.317c-12.483,2.176-24.761-3.471-34.555-10.664
			c-6.332-4.65-11.99-10.181-18.231-14.953c-6.575-5.026-13.493-9.473-19.096-15.641
			C1231.786-1491.978,1221.21-1481.338,1227.696-1474.197L1227.696-1474.197z"/>
	</g>
	<g display="inline">
		<path fill="none" stroke="#414042" stroke-width="2" stroke-miterlimit="10" d="M953-1469.5
			c33.434,0.035,66.831,1.782,100.256,2.348c16.69,0.283,33.334,0.962,50.017,1.385c16.339,0.415,49.03-2.733,49.228-2.733
			c9.673,0,9.146-14.721-0.5-15c-15.659-0.453-31.146,2.881-46.828,2.766c-16.643-0.123-33.295-1.156-49.947-1.387
			c-34.084-0.473-68.133-2.343-102.225-2.378C943.326-1484.51,943.327-1469.51,953-1469.5L953-1469.5z"/>
	</g>
	<g display="inline">
		<path fill="none" stroke="#414042" stroke-width="2" stroke-miterlimit="10" d="M398.197-1614.697
			c18.029,17.421,39.927,30.215,57.632,47.996c9.782,9.825,18.181,21.098,27.565,31.32c4.085,4.449,8.09,8.804,11.826,13.552
			c3.343,4.248,6.823,8.458,11.494,11.305c8.283,5.048,15.814-7.928,7.57-12.952c-3.819-2.328-6.622-6.627-9.344-10.085
			c-3.434-4.364-7.173-8.349-10.94-12.426c-9.434-10.21-17.883-21.362-27.565-31.32c-17.485-17.982-39.615-30.586-57.632-47.996
			C401.848-1632.024,391.23-1621.428,398.197-1614.697L398.197-1614.697z"/>
	</g>
	<g display="inline">
		<path fill="none" stroke="#414042" stroke-width="2" stroke-miterlimit="10" d="M488.994-1483.268
			c19.531-4.42,38.854-9.63,58-15.5c9.22-2.827,5.285-17.307-3.988-14.464c-19.145,5.87-38.468,11.08-58,15.5
			C475.573-1495.597,479.574-1481.136,488.994-1483.268L488.994-1483.268z"/>
	</g>
	<g display="inline">
		<path fill="none" stroke="#414042" stroke-width="2" stroke-miterlimit="10" d="M585-1507.5
			c18.873,0.208,40.876,7.6,55.283,19.978c15.229,13.083,8.918,36.347,2.984,52.529c-3.338,9.102,11.163,12.991,14.465,3.987
			c7.705-21.012,12.139-47.573-4.906-65.324c-8.329-8.675-20.063-14.121-31.062-18.467c-11.588-4.579-24.271-7.564-36.765-7.702
			C575.323-1522.606,575.333-1507.606,585-1507.5L585-1507.5z"/>
	</g>
	<g display="inline">
		<path fill="none" stroke="#414042" stroke-width="2" stroke-miterlimit="10" d="M521.024-1479.215
			c10.999,19.846,24.891,39.232,41.032,55.235c16.131,15.991,38.246,28.109,61.438,22.211c9.369-2.382,5.393-16.85-3.988-14.464
			c-19.019,4.836-36.395-7.69-49.055-20.577c-14.346-14.603-26.573-32.111-36.476-49.976
			C529.287-1495.246,516.331-1487.682,521.024-1479.215L521.024-1479.215z"/>
	</g>
	<g display="inline">
		<path fill="none" stroke="#414042" stroke-width="2" stroke-miterlimit="10" d="M265-1473.5
			c30.728,1.351,61.437,3.311,92.208,3.152c31.886-0.164,63.451-5.652,95.292-5.652c9.673,0,9.673-15,0-15
			c-15.673,0-31.261,1.659-46.845,3.139c-16.119,1.53-32.256,2.383-48.447,2.513c-30.766,0.248-61.488-1.801-92.208-3.152
			C255.325-1488.925,255.366-1473.924,265-1473.5L265-1473.5z"/>
	</g>
	<g display="inline">
		<path fill="none" stroke="#414042" stroke-width="2" stroke-miterlimit="10" d="M-196.732-1462.506
			c2.43,8.744,7.604,15.972,12.938,23.161c5.919,7.976,10.522,16.278,14.34,25.452c7.183,17.254,12.979,37.295,28.475,49.087
			c11.806,8.984,27.128,11.568,41.643,10.758c7.739-0.432,15.463-1.884,22.918-3.967c7.06-1.973,15.081-4.377,20.721-9.182
			c7.375-6.282-3.289-16.84-10.606-10.606c-3.706,3.157-10.725,4.381-15.288,5.656c-6.216,1.737-12.557,2.81-18.998,3.169
			c-12.065,0.673-24.867-1.57-34.039-9.966c-5.347-4.895-8.595-11.727-11.67-18.167c-4.011-8.396-7.163-17.197-10.79-25.762
			c-3.45-8.147-7.574-15.633-12.806-22.765c-4.77-6.501-10.178-12.957-12.374-20.857
			C-184.854-1475.801-199.327-1471.843-196.732-1462.506L-196.732-1462.506z"/>
	</g>
	<g display="inline">
		<path fill="none" stroke="#414042" stroke-width="2" stroke-miterlimit="10" d="M-30.506-1382.768
			c24.071-5.686,41.78-26.529,49.232-49.358c7.813-23.939,0.469-51.502-13.241-71.824c-6.705-9.939-15.47-18.865-26.205-24.376
			c-10.279-5.278-21.805-7.361-33.237-8.098c-22.855-1.474-46.317,3.503-68.107,10.003c-1.816,0.542-3.625,1.112-5.43,1.69
			c-9.176,2.936-5.252,17.42,3.987,14.464c18.881-6.041,38.43-10.562,58.299-11.286c9.858-0.36,19.667,0.429,29.161,3.187
			c9.859,2.864,17.529,8.743,24.246,16.365c13.865,15.732,21.88,39.818,17.485,60.598c-4.256,20.12-19.715,39.338-40.179,44.172
			C-43.906-1395.009-39.914-1380.546-30.506-1382.768L-30.506-1382.768z"/>
	</g>
	<g display="inline">
		<path fill="none" stroke="#414042" stroke-width="2" stroke-miterlimit="10" d="M-454-1472.5
			c16.431-0.053,32.813-1.327,49.219-2.067c16.263-0.734,32.492-0.256,48.749,0.354c32.038,1.201,64.679,1.929,96.532-2.286
			c4.052-0.536,7.5-3.006,7.5-7.5c0-3.682-3.436-8.038-7.5-7.5c-31.854,4.215-64.494,3.482-96.532,2.286
			c-16.264-0.607-32.479-1.037-48.749-0.354c-16.411,0.689-32.785,2.015-49.219,2.067
			C-463.671-1487.469-463.674-1472.469-454-1472.5L-454-1472.5z"/>
	</g>
	<g display="inline">
		<path fill="none" stroke="#414042" stroke-width="2" stroke-miterlimit="10" d="M-223.006-1482.768
			c18.836-4.955,38.545-6.03,57-12.5c9.066-3.178,5.166-17.673-3.987-14.464c-18.456,6.47-38.164,7.545-57,12.5
			C-236.341-1494.773-232.372-1480.305-223.006-1482.768L-223.006-1482.768z"/>
	</g>
	<g display="inline">
		<path fill="none" stroke="#414042" stroke-width="2" stroke-miterlimit="10" d="M1761.006-2302.768
			c13.525,3.218,27.324,0.919,40.994,0.268c17.069-0.814,34.098-1.449,51.188-1.758c16.297-0.294,32.527-0.509,48.827-0.124
			c8.411,0.199,16.821,0.387,25.234,0.371c7.703-0.015,16.212,0.51,23.745-1.257c9.415-2.209,5.422-16.672-3.988-14.465
			c-6.693,1.57-14.826,0.712-21.688,0.725c-7.769,0.015-15.538-0.189-23.304-0.374c-16.3-0.387-32.53-0.177-48.827,0.124
			c-15.758,0.291-31.516,0.537-47.25,1.494c-13.272,0.808-27.842,3.65-40.943,0.532
			C1755.589-2319.47,1751.598-2305.007,1761.006-2302.768L1761.006-2302.768z"/>
	</g>
	<g display="inline">
		<path fill="none" stroke="#414042" stroke-width="2" stroke-miterlimit="10" d="M1982-2310
			c21.69-0.201,42.443-6.441,62.994-12.768c9.215-2.838,5.282-17.318-3.988-14.465c-19.258,5.93-38.674,12.044-59.006,12.232
			C1972.332-2324.91,1972.323-2309.91,1982-2310L1982-2310z"/>
	</g>
	<g display="inline">
		<path fill="none" stroke="#414042" stroke-width="2" stroke-miterlimit="10" d="M2078.494-2335.268
			c26.723-3.873,48.178-20.386,66.809-38.929c9.398-9.353,19.215-18.328,31.281-24.101c12.244-5.858,24.941-3.749,36.131,3.274
			c9.545,5.991,19.431,12.375,25.756,21.926c8.034,12.133,9.461,26.953,8.029,41.098c-1.219,12.039-7.044,23.27-13.336,33.383
			c-6.821,10.962-15.192,20.888-24.128,30.174c-9.981,10.374-21.442,18.807-32.339,28.14c-7.358,6.302,3.303,16.862,10.605,10.606
			c10.532-9.02,21.565-17.208,31.332-27.105c9.168-9.291,17.521-19.447,24.867-30.235c15.508-22.774,23.053-49.517,15.533-76.701
			c-3.438-12.429-10.878-23.437-20.777-31.602c-9.949-8.206-21.64-16.396-34.13-19.925c-27.291-7.708-51.513,12.624-69.431,30.461
			c-17,16.922-35.813,31.538-60.191,35.071c-4.053,0.588-6.219,5.661-5.238,9.227
			C2070.452-2336.201,2074.451-2334.682,2078.494-2335.268L2078.494-2335.268z"/>
	</g>
	<g display="inline">
		<path fill="none" stroke="#414042" stroke-width="2" stroke-miterlimit="10" d="M2145.715-2227.476
			c-3.639,2.568-8.944,0.815-12.933-0.243c-5.235-1.389-10.339-3.347-15.468-5.081c-14.832-5.016-30.669-7.584-46.314-7.7
			c-9.676-0.071-9.669,14.929,0,15c16.153,0.12,31.632,3.461,46.865,8.685c10.538,3.614,25.121,9.558,35.42,2.291
			C2161.121-2220.053,2153.639-2233.067,2145.715-2227.476L2145.715-2227.476z"/>
	</g>
	<g display="inline">
		<path fill="none" stroke="#414042" stroke-width="2" stroke-miterlimit="10" d="M2009.523-1509.285
			c-7.919,10.518-1.742,25.876,6.673,34.088c6.925,6.757,17.539-3.842,10.607-10.606c-3.925-3.83-8.143-10.845-4.327-15.912
			c2.465-3.274,0.527-8.375-2.691-10.261C2015.948-1514.224,2011.978-1512.544,2009.523-1509.285L2009.523-1509.285z"/>
	</g>
	<g display="inline">
		<path fill="none" stroke="#414042" stroke-width="2" stroke-miterlimit="10" d="M2068.506-1508.768
			c7.156,2.063,11.586,7.097,9.479,14.753c-2.143,7.787-12.075,12.926-18.271,17.039c-8.018,5.322-0.515,18.319,7.57,12.952
			c10.735-7.126,23.088-15.011,25.781-28.618c2.92-14.745-6.869-26.642-20.572-30.59
			C2063.178-1525.917,2059.229-1511.441,2068.506-1508.768L2068.506-1508.768z"/>
	</g>
	<g display="inline">
		<path fill="none" stroke="#414042" stroke-width="2" stroke-miterlimit="10" d="M2046.197-1452.697
			c12.015,12.888,27.311,21.849,41.347,32.274c14.919,11.081,29.95,22.149,46.671,30.399c8.642,4.264,16.245-8.672,7.57-12.952
			c-16.188-7.987-30.794-18.621-45.248-29.342c-13.49-10.008-28.195-18.608-39.734-30.985
			C2050.194-1470.392,2039.61-1459.761,2046.197-1452.697L2046.197-1452.697z"/>
	</g>
	<g display="inline">
		<path fill="none" stroke="#414042" stroke-width="2" stroke-miterlimit="10" d="M1764-1470c39.748,0,79.502-0.014,119.235-1.24
			c19.354-0.597,38.595-0.207,57.935,0.706c9.62,0.453,19.239,0.929,28.865,1.241c10.133,0.328,20.371-0.189,30.465,0.793
			c9.627,0.938,9.537-14.071,0-15c-9.455-0.921-19.04-0.48-28.531-0.736c-9.631-0.26-19.256-0.747-28.879-1.207
			c-19.979-0.955-39.859-1.434-59.854-0.796c-39.73,1.267-79.489,1.24-119.235,1.24C1754.327-1485,1754.327-1470,1764-1470
			L1764-1470z"/>
	</g>
</g>
<g id="Layer_4">
	<g>
		<path fill="none" d="M418.764,276.771c-20.598,4.771-41.775,7.929-62.951,10.412c3.791,15.158,12.041,28.301,27,34.815
			c14.623,6.369,32.271,5.295,47.539,1.488c14.867-3.707,28.074-10.759,41.527-17.508c-8.084-13.021-16.865-25.536-27.707-36.645
			C435.855,272.277,427.393,274.772,418.764,276.771z"/>
		<path fill="none" d="M493.391,312.421c3.678,6.37,7.309,12.769,11.057,19.099c6.805,11.494,13.795,23.484,22.906,33.328
			c1.832,1.979,3.732,3.877,5.67,5.733c0.402-0.126,0.809-0.242,1.211-0.376c23.633-7.838,44.18-24.095,60.328-42.754
			c8.617-9.957,17.063-21.355,22.922-33.729c-6.324,0.021-12.648,0.065-18.971,0.148
			C562.213,294.348,526.623,298.727,493.391,312.421z"/>
		<path fill="none" d="M613.393,219.62c-33.135-40.274-86.209,4.447-117.537,23.729c-11.934,7.345-23.807,14.63-36.729,20.147
			c8.908,9.715,16.871,20.315,23.953,31.632c0.883,1.411,1.754,2.828,2.619,4.249c1.549-0.685,3.105-1.358,4.678-2
			c24.828-10.128,51.137-15.32,77.824-17.278c18.234-1.338,36.555-1.528,54.871-1.468c0.891-3.383,1.541-6.82,1.914-10.301
			C626.748,251.845,624.287,232.863,613.393,219.62z"/>
		<path fill="none" d="M431.643,257.727c-6.885-5.835-14.217-11.152-22.186-15.39c-9.389-4.993-21.354-9.758-32.199-7.258
			c-17.283,3.984-23.648,20.931-23.475,37.116c2.533-0.325,5.066-0.633,7.598-0.979
			C384.957,267.999,408.834,264.669,431.643,257.727z"/>
		<path fill="#C2B59B" d="M459.127,263.496c12.922-5.517,24.795-12.802,36.729-20.147c31.328-19.282,84.402-64.003,117.537-23.729
			c10.895,13.243,13.355,32.225,11.594,48.709c-0.373,3.481-1.023,6.918-1.914,10.301c5.088,0.017,10.176,0.051,15.26,0.087
			c0.031-0.139,0.07-0.275,0.1-0.414c4.105-18.97,2.193-39.017-6.182-56.562c-7.768-16.274-22.777-28.639-40.563-32.096
			c-24.504-4.763-48.98,6.408-69.459,18.784c-23.928,14.46-46.121,31.915-72.111,42.72c-0.781,0.325-1.57,0.623-2.355,0.936
			C451.709,255.736,455.5,259.541,459.127,263.496z"/>
		<path fill="#C2B59B" d="M339.031,273.979c-69.869,7.932-140.447,8.832-210.686,8.842c-9.674,0.001-9.674,15.001,0,15
			c64.902-0.009,129.883-0.953,194.529-7.184c5.947-0.573,11.916-1.163,17.898-1.789c-0.316-1.521-0.605-3.051-0.832-4.594
			C339.447,280.914,339.133,277.465,339.031,273.979z"/>
		<path fill="#C2B59B" d="M444.172,269.333c-1.252-1.284-2.523-2.554-3.834-3.799c-2.818-2.677-5.719-5.286-8.695-7.808
			c-22.809,6.943-46.686,10.272-70.262,13.489c-2.531,0.345-5.064,0.653-7.598,0.979c0.039,3.662,0.41,7.286,1.068,10.71
			c0.277,1.443,0.607,2.866,0.961,4.278c21.176-2.483,42.354-5.642,62.951-10.412C427.393,274.772,435.855,272.277,444.172,269.333z
			"/>
		<path fill="#C2B59B" d="M515.805,373.855c-22.74,1.857-46.213-4.719-68.465-7.768c-4.049-0.553-8.035,0.911-9.227,5.238
			c-0.975,3.543,1.18,8.671,5.238,9.227c28.207,3.863,57.189,12.183,85.574,6.508C524.258,382.868,519.902,378.483,515.805,373.855z
			"/>
		<path fill="#C2B59B" d="M617.484,293.723c-5.859,12.373-14.305,23.771-22.922,33.729c-16.148,18.659-36.695,34.916-60.328,42.754
			c-0.402,0.134-0.809,0.25-1.211,0.376c4.148,3.979,8.506,7.72,12.971,11.339c21.926-8.707,41.273-24.198,56.998-41.414
			c12.365-13.536,23.803-29.422,30.686-46.79C628.279,293.707,622.881,293.705,617.484,293.723z"/>
		<path fill="#00A79D" d="M568.201,280.099c-26.688,1.958-52.996,7.15-77.824,17.278c-1.572,0.642-3.129,1.315-4.678,2
			c2.623,4.314,5.168,8.672,7.691,13.044c33.232-13.694,68.822-18.073,105.123-18.55c6.322-0.083,12.646-0.128,18.971-0.148
			c2.316-4.889,4.23-9.928,5.588-15.092C604.756,278.571,586.436,278.761,568.201,280.099z"/>
		<path fill="#00A79D" d="M528.926,387.061c2.297,2.063,4.662,4.08,7.115,6.057c13.195,10.639,27.166,20.283,39.002,32.507
			c6.738,6.96,17.334-3.657,10.605-10.606c-12.023-12.417-26.279-22.252-39.654-33.098c-3.023,1.2-6.096,2.274-9.213,3.203
			C534.168,385.902,531.549,386.536,528.926,387.061z"/>
		<path fill="#00A79D" d="M735.34,280.088c-10.693-4.131-23.309-2.908-34.488-2.185c-13.77,0.89-27.453,0.917-41.252,0.917
			c-7.08,0-14.172-0.051-21.268-0.103c-1.131,5.106-2.717,10.108-4.654,14.998c13.9,0.023,27.803,0.105,41.697,0.105
			c10.039,0,19.947-0.614,29.963-1.192c8.543-0.494,17.873-1.221,26.014,1.925c3.818,1.475,8.223-1.595,9.227-5.238
			C741.744,285.074,739.148,281.561,735.34,280.088z"/>
		<path fill="#00A79D" d="M459.127,263.496c-0.063,0.026-0.121,0.056-0.184,0.082c-4.873,2.073-9.795,3.995-14.771,5.756
			c10.842,11.109,19.623,23.625,27.707,36.645c4.553-2.285,9.137-4.527,13.82-6.602c-0.865-1.421-1.736-2.838-2.619-4.249
			C475.998,283.811,468.035,273.211,459.127,263.496z"/>
		<path fill="#00A79D" d="M430.352,323.486c-15.268,3.807-32.916,4.881-47.539-1.488c-14.959-6.515-23.209-19.657-27-34.815
			c-5.016,0.588-10.031,1.142-15.039,1.666c3.57,17.196,12.768,32.825,27.752,42.511c31.676,20.473,74.596,7.318,104.701-9.283
			c2.098-1.157,4.209-2.262,6.328-3.331c-2.516-4.288-5.061-8.554-7.676-12.767C458.426,312.728,445.219,319.779,430.352,323.486z"
			/>
		<path fill="#00A79D" d="M485.699,299.377c-4.684,2.074-9.268,4.316-13.82,6.602c2.615,4.213,5.16,8.479,7.676,12.767
			c4.563-2.302,9.176-4.404,13.836-6.324C490.867,308.049,488.322,303.691,485.699,299.377z"/>
		<path fill="#00A79D" d="M527.354,364.848c-9.111-9.844-16.102-21.834-22.906-33.328c-3.748-6.33-7.379-12.729-11.057-19.099
			c-4.66,1.92-9.273,4.022-13.836,6.324c7.061,12.023,13.914,24.216,21.59,35.897c4.527,6.893,9.381,13.254,14.66,19.213
			c5.799-0.474,11.549-1.505,17.219-3.274C531.086,368.725,529.186,366.826,527.354,364.848z"/>
		<path fill="#00A79D" d="M377.258,235.078c10.846-2.5,22.811,2.265,32.199,7.258c7.969,4.238,15.301,9.555,22.186,15.39
			c5.441-1.656,10.82-3.522,16.119-5.64c-5.887-5.444-12.129-10.542-18.756-15.242c-19.012-13.483-45.551-24.275-67.639-11.51
			c-17.248,9.968-22.885,29.855-22.336,48.644c4.922-0.559,9.838-1.154,14.752-1.785
			C353.609,256.009,359.975,239.062,377.258,235.078z"/>
		<path fill="#00A79D" d="M440.338,265.535c1.311,1.245,2.582,2.515,3.834,3.799c4.977-1.761,9.898-3.683,14.771-5.756
			c0.063-0.026,0.121-0.055,0.184-0.082c-3.627-3.955-7.418-7.76-11.365-11.409c-5.299,2.117-10.678,3.983-16.119,5.64
			C434.619,260.249,437.52,262.857,440.338,265.535z"/>
		<path fill="#C2B59B" d="M623.072,278.631c-1.357,5.164-3.271,10.203-5.588,15.092c5.396-0.018,10.795-0.016,16.193-0.007
			c1.938-4.889,3.523-9.892,4.654-14.998C633.248,278.682,628.16,278.647,623.072,278.631z"/>
		<path fill="#00A79D" d="M354.852,282.904c-0.658-3.425-1.029-7.048-1.068-10.71c-4.914,0.631-9.83,1.226-14.752,1.785
			c0.102,3.487,0.416,6.936,0.91,10.276c0.227,1.543,0.516,3.072,0.832,4.594c5.008-0.524,10.023-1.078,15.039-1.666
			C355.459,285.771,355.129,284.348,354.852,282.904z"/>
		<path fill="#00A79D" d="M515.805,373.855c4.098,4.628,8.453,9.013,13.121,13.205c2.623-0.524,5.242-1.158,7.855-1.938
			c3.117-0.929,6.189-2.003,9.213-3.203c-4.465-3.619-8.822-7.359-12.971-11.339C527.354,372.351,521.604,373.382,515.805,373.855z"
			/>
	</g>
</g>
<g id="Layer_5">
	<g>
		<path fill="none" stroke="#000000" stroke-miterlimit="10" d="M442.172,271.333c-1.252-1.283-2.523-2.554-3.834-3.798
			c-2.818-2.677-5.719-5.286-8.695-7.808"/>
		<path fill="none" stroke="#000000" stroke-miterlimit="10" d="M526.926,389.061c2.295,2.063,4.662,4.081,7.115,6.058
			c13.195,10.638,27.166,20.282,39.002,32.506c6.738,6.96,17.334-3.657,10.605-10.606c-12.023-12.417-26.281-22.252-39.656-33.098"
			/>
		<path fill="none" stroke="#000000" stroke-miterlimit="10" d="M631.678,295.715c13.9,0.023,27.803,0.105,41.697,0.105
			c10.039,0,19.947-0.614,29.963-1.193c8.543-0.493,17.873-1.221,26.014,1.925c3.818,1.476,8.223-1.594,9.227-5.238
			c1.166-4.241-1.43-7.754-5.238-9.226c-10.693-4.131-23.309-2.908-34.488-2.186c-13.77,0.89-27.453,0.917-41.252,0.917
			c-7.08,0-14.172-0.051-21.268-0.103"/>
		<path fill="none" stroke="#000000" stroke-miterlimit="10" d="M337.031,275.979c-0.549-18.789,5.088-38.676,22.336-48.644
			c22.088-12.766,48.627-1.973,67.639,11.51c6.627,4.7,12.869,9.798,18.758,15.242"/>
		<path fill="none" stroke="#000000" stroke-miterlimit="10" d="M483.699,301.378c1.549-0.687,3.105-1.358,4.678-2.001
			c24.828-10.128,51.137-15.32,77.824-17.278c18.234-1.338,36.555-1.528,54.871-1.468"/>
		<path fill="none" stroke="#000000" stroke-miterlimit="10" d="M615.484,295.723c-6.324,0.021-12.648,0.065-18.971,0.148
			c-36.301,0.477-71.891,4.855-105.123,18.55"/>
		<path fill="none" stroke="#000000" stroke-miterlimit="10" d="M531.023,372.581c4.148,3.979,8.506,7.72,12.969,11.339"/>
		<path fill="none" stroke="#000000" stroke-miterlimit="10" d="M483.699,301.378c-4.684,2.073-9.268,4.316-13.82,6.601"/>
		<path fill="none" stroke="#000000" stroke-miterlimit="10" d="M457.127,265.496c-3.629-3.956-7.418-7.76-11.363-11.409"/>
		<path fill="none" stroke="#000000" stroke-miterlimit="10" d="M469.879,307.979c-8.084-13.021-16.865-25.536-27.707-36.646"/>
		<path fill="none" stroke="#000000" stroke-miterlimit="10" d="M429.643,259.727c-6.883-5.835-14.217-11.152-22.186-15.39
			c-9.389-4.993-21.354-9.758-32.199-7.258c-17.283,3.984-23.648,20.931-23.475,37.116"/>
		<path fill="none" stroke="#000000" stroke-miterlimit="10" d="M513.805,375.855c-5.279-5.959-10.133-12.32-14.66-19.213
			c-7.676-11.682-14.529-23.874-21.59-35.897"/>
		<path fill="none" stroke="#000000" stroke-miterlimit="10" d="M469.879,307.979c-13.453,6.749-26.66,13.801-41.527,17.508
			c-15.268,3.806-32.916,4.88-47.539-1.488c-14.959-6.515-23.209-19.657-27.002-34.815"/>
		<path fill="none" stroke="#000000" stroke-miterlimit="10" d="M483.699,301.378c-0.865-1.422-1.736-2.839-2.619-4.25
			c-7.082-11.317-15.045-21.917-23.953-31.632"/>
		<path fill="none" stroke="#000000" stroke-miterlimit="10" d="M337.031,275.979c0.102,3.487,0.416,6.935,0.91,10.276
			c0.227,1.543,0.516,3.072,0.832,4.594"/>
		<path fill="none" stroke="#000000" stroke-miterlimit="10" d="M353.811,289.183c-0.352-1.412-0.682-2.835-0.959-4.278
			c-0.658-3.425-1.029-7.048-1.068-10.71"/>
		<path fill="none" stroke="#000000" stroke-miterlimit="10" d="M491.391,314.421c3.678,6.37,7.309,12.769,11.057,19.099
			c6.805,11.494,13.795,23.485,22.906,33.328c1.832,1.979,3.732,3.877,5.67,5.733"/>
		<path fill="none" stroke="#000000" stroke-miterlimit="10" d="M477.555,320.745c4.563-2.302,9.176-4.404,13.836-6.324"/>
		<path fill="none" stroke="#000000" stroke-miterlimit="10" d="M513.805,375.855c4.098,4.628,8.453,9.013,13.121,13.205"/>
		<path fill="none" stroke="#000000" stroke-miterlimit="10" d="M477.555,320.745c-2.119,1.069-4.23,2.174-6.328,3.331
			c-30.105,16.602-73.025,29.756-104.701,9.283c-14.984-9.686-24.182-25.313-27.752-42.511"/>
		<path fill="none" stroke="#000000" stroke-miterlimit="10" d="M631.678,295.715c1.938-4.889,3.523-9.891,4.654-14.997"/>
		<path fill="none" stroke="#000000" stroke-miterlimit="10" d="M621.072,280.631c-1.357,5.164-3.271,10.203-5.588,15.092"/>
		<path fill="none" stroke="#000000" stroke-miterlimit="10" d="M442.172,271.333c-8.316,2.944-16.779,5.439-25.408,7.438
			c-20.598,4.771-41.775,7.929-62.953,10.412"/>
		<path fill="none" stroke="#000000" stroke-miterlimit="10" d="M513.805,375.855c-22.74,1.857-46.213-4.719-68.465-7.767
			c-4.049-0.555-8.035,0.91-9.227,5.238c-0.975,3.542,1.18,8.67,5.238,9.226c28.207,3.863,57.189,12.182,85.574,6.508"/>
		<path fill="none" stroke="#000000" stroke-miterlimit="10" d="M429.643,259.727c-22.809,6.943-46.686,10.273-70.262,13.489
			c-2.531,0.345-5.064,0.653-7.598,0.979"/>
		<path fill="none" stroke="#000000" stroke-miterlimit="10" d="M337.031,275.979c-69.869,7.932-140.447,8.832-210.686,8.842
			c-9.674,0.001-9.674,15.001,0,15c64.902-0.009,129.883-0.953,194.529-7.184c5.947-0.573,11.916-1.162,17.898-1.788"/>
		<path fill="none" stroke="#000000" stroke-miterlimit="10" d="M445.764,254.087c0.783-0.313,1.572-0.611,2.354-0.936
			c25.99-10.805,48.184-28.26,72.111-42.72c20.479-12.376,44.955-23.547,69.459-18.784c17.785,3.458,32.795,15.822,40.563,32.096
			c8.375,17.544,10.287,37.592,6.182,56.562c-0.029,0.139-0.068,0.275-0.1,0.414"/>
		<path fill="none" stroke="#000000" stroke-miterlimit="10" d="M621.072,280.631c0.891-3.383,1.541-6.82,1.914-10.301
			c1.762-16.484-0.699-35.467-11.594-48.709c-33.135-40.273-86.209,4.447-117.537,23.729c-11.934,7.345-23.807,14.629-36.729,20.147
			"/>
		<path fill="none" stroke="#000000" stroke-miterlimit="10" d="M615.484,295.723c-5.859,12.373-14.305,23.771-22.922,33.729
			c-16.148,18.658-36.695,34.915-60.328,42.753c-0.402,0.134-0.809,0.25-1.211,0.376"/>
		<path fill="none" stroke="#000000" stroke-miterlimit="10" d="M631.678,295.715c-6.883,17.369-18.32,33.254-30.686,46.791
			c-15.725,17.216-35.072,32.707-57,41.414"/>
	</g>
</g>
</svg>
