<?xml version="1.0" encoding="utf-8"?>
<!-- Generator: Adobe Illustrator 16.0.0, SVG Export Plug-In . SVG Version: 6.00 Build 0)  -->
<!DOCTYPE svg PUBLIC "-//W3C//DTD SVG 1.1//EN" "http://www.w3.org/Graphics/SVG/1.1/DTD/svg11.dtd">
<svg version="1.1" xmlns="http://www.w3.org/2000/svg" xmlns:xlink="http://www.w3.org/1999/xlink" x="0px" y="0px"
	 width="841.89px" height="595.28px" viewBox="0 0 841.89 595.28" enable-background="new 0 0 841.89 595.28" xml:space="preserve">
<g id="Layer_2" display="none">
	
		<image display="inline" overflow="visible" width="600" height="400" xlink:href="carrickR1.jpg"  transform="matrix(1 0 0 1 -452 -2506.7197)">
	</image>
	
		<image display="inline" overflow="visible" width="600" height="400" xlink:href="carrickR2.jpg"  transform="matrix(1 0 0 1 262 -2506.7197)">
	</image>
	
		<image display="inline" overflow="visible" width="600" height="400" xlink:href="carrickR3.jpg"  transform="matrix(1 0 0 1 956 -2506.7197)">
	</image>
	
		<image display="inline" overflow="visible" width="600" height="400" xlink:href="carrickR4.jpg"  transform="matrix(1 0 0 1 1760 -2506.7197)">
	</image>
	
		<image display="inline" overflow="visible" width="600" height="400" xlink:href="carrickR5.jpg"  transform="matrix(1 0 0 1 -452 -1676.7197)">
	</image>
	
		<image display="inline" overflow="visible" width="600" height="400" xlink:href="carrickR6.jpg"  transform="matrix(1 0 0 1 262 -1676.7197)">
	</image>
	
		<image display="inline" overflow="visible" width="600" height="400" xlink:href="carrickR7.jpg"  transform="matrix(1 0 0 1 956 -1676.7197)">
	</image>
	
		<image display="inline" overflow="visible" width="600" height="400" xlink:href="carrickR8.jpg"  transform="matrix(1 0 0 1 1760 -1676.7197)">
	</image>
</g>
<g id="Layer_1" display="none">
	<g display="inline">
		<g>
			<path fill="#00A79D" d="M-163.333-2252.5c-16.285,0.027-32.558,0.662-48.837,0.98c-15.343,0.3-30.587-0.316-45.914-0.77
				c-24.565-0.727-50.08,1.946-71.218,15.492c-20.517,13.148-38.309,37.679-28.602,62.753c8.928,23.062,33.74,35.604,56.971,38.807
				c31.675,4.367,63.682,2.365,95.525,1.835c26.112-0.436,51.998-0.457,77.838-4.876c12.448-2.129,24.527-5.538,36.115-10.565
				c12.046-5.226,21.849-13.785,30.676-23.353c19.891-21.563,39.273-44.32,56.319-68.2c7.837-10.979,15.478-20.607,27.023-27.927
				c10.582-6.708,22.503-10.737,34.597-13.726c13.039-3.221,26.484-5.144,39.712-7.435c13.781-2.387,28.533-4.715,42.468-2.284
				c9.458,1.65,13.504-12.804,3.987-14.464c-26.235-4.578-54.064,2.634-79.825,7.489c-24.282,4.576-48.11,13.497-65.845,31.282
				c-10.091,10.119-17.31,23.046-26.106,34.26c-9.269,11.817-19.254,23.009-29.069,34.365c-8.711,10.079-17.004,21.006-27.68,29.137
				c-9.572,7.29-21.294,11.171-32.819,14.108c-24.259,6.184-49.736,7.024-74.65,7.089c-31.661,0.083-63.399,2.427-95.012-0.232
				c-21.754-1.83-49.652-9.059-56.991-32.839c-7.236-23.447,20.212-43.617,39.188-50.237c19.289-6.729,40.021-5.837,60.104-4.936
				c27.337,1.227,54.704-0.71,82.046-0.754C-153.661-2237.516-153.659-2252.516-163.333-2252.5L-163.333-2252.5z"/>
		</g>
	</g>
	<g display="inline">
		<g>
			<path fill="#00A79D" d="M858-2322.501c-31.92,0.521-63.438-5.869-95.333-6c-31.562-0.13-63.253,0.06-94.617,3.951
				c-31.978,3.967-62.414,13.1-92.585,24.172c-12.938,4.748-26.11,11.808-39.963,13.249c-12.535,1.304-24.485-1.452-34.914-8.488
				c-13.514-9.117-21.284-26.674-23.349-42.375c-0.964-7.33-0.198-13.234,5.072-18.684c4.933-5.099,11.93-8.217,18.47-10.669
				c7.717-2.894,15.572-5.007,23.832-3.388c8.316,1.63,15.485,6.584,21.703,12.122c7.224,6.432,13.872,13.731,20.657,20.626
				c6.738,6.846,13.067,14.029,17.218,22.771c4.146,8.734,17.077,1.118,12.951-7.57c-5.862-12.348-15.866-22.206-25.453-31.705
				c-9.292-9.207-17.968-19.054-29.525-25.517c-21.175-11.842-48.523-4.922-66.801,9.537c-8.765,6.934-14.009,16.832-13.529,28.137
				c0.536,12.629,4.468,25.164,10.397,36.256c12.526,23.431,36.988,36.078,63.271,33.948c11.824-0.958,22.27-5.576,33.219-9.761
				c13.172-5.034,26.454-9.781,39.883-14.087c26.756-8.58,53.948-13.694,81.957-15.789c27.656-2.068,55.887-2.599,83.6-1.471
				c28.017,1.14,55.739,6.195,83.84,5.736C867.663-2307.659,867.678-2322.659,858-2322.501L858-2322.501z"/>
		</g>
	</g>
	<g display="inline">
		<g>
			<path fill="#00A79D" d="M608.882-2277.191c3.37,2.489,5.195,7.255,7.153,10.81c2.832,5.142,6.493,9.896,10.063,14.542
				c7.353,9.57,15.559,18.372,24.055,26.928c18.503,18.637,35.386,38.618,53.211,57.881c6.583,7.114,17.165-3.52,10.607-10.606
				c-17.825-19.263-34.662-39.291-53.212-57.881c-8.836-8.855-17.435-18.009-24.869-28.09c-6.491-8.801-10.464-19.909-19.438-26.535
				c-3.296-2.434-8.361-0.553-10.261,2.69C603.958-2283.64,605.6-2279.615,608.882-2277.191L608.882-2277.191z"/>
		</g>
	</g>
	<g display="inline">
		<g>
			<path fill="#00A79D" d="M1552.668-2320.5c-13.828-0.988-27.812-0.667-41.668-0.667c-9.673,0-9.673,15,0,15
				c13.856,0,27.84-0.321,41.668,0.667C1562.325-2304.811,1562.259-2319.815,1552.668-2320.5L1552.668-2320.5z"/>
		</g>
	</g>
	<g display="inline">
		<g>
			<path fill="#00A79D" d="M1462.662-2321.566c-30.469-4.508-60.686,1.059-91.12,2.886c-13.999,0.84-27.547,2.947-41.003,6.971
				c-12.906,3.859-25.344,9.188-37.665,14.588c-23.975,10.505-48.62,22.595-74.878,26.055c-12.193,1.606-24.98,0.277-34.691-7.903
				c-9.122-7.685-15.846-18.327-16.957-30.404c-2.502-27.18,27.77-47.145,51.735-49.398c13.21-1.242,26.007,2.406,35.151,12.281
				c10.42,11.251,15.223,26.803,24.797,38.795c2.555,3.2,7.959,2.648,10.607,0c3.13-3.13,2.548-7.415,0-10.606
				c-6.922-8.67-11.192-19.263-17.106-28.599c-6.384-10.077-14.688-18.136-25.772-22.769c-19.718-8.242-42.67-3.938-60.801,6.262
				c-18.804,10.579-34.205,30.248-33.695,52.578c0.587,25.716,21.356,50.074,46.623,54.422c20.758,3.572,42.897-3.537,62.19-10.65
				c20.134-7.423,39.269-17.263,59.29-24.962c10.032-3.857,20.313-7.029,30.843-9.204c11.17-2.308,22.566-2.412,33.894-3.388
				c24.657-2.124,49.861-6.145,74.57-2.488c4.041,0.598,8.045-0.942,9.227-5.238
				C1468.883-2315.914,1466.713-2320.967,1462.662-2321.566L1462.662-2321.566z"/>
		</g>
	</g>
	<g display="inline">
		<g>
			<path fill="#00A79D" d="M1304.031-2270.364c16.619,17.876,31.688,36.989,45.209,57.309c6.574,9.878,13.796,18.934,22.104,27.417
				c8.572,8.754,17.682,16.954,26.021,25.941c6.593,7.104,17.175-3.527,10.607-10.606c-7.95-8.567-16.55-16.475-24.817-24.727
				c-8.816-8.8-16.029-18.256-22.95-28.572c-13.619-20.3-28.926-39.469-45.565-57.368
				C1308.039-2288.069,1297.456-2277.438,1304.031-2270.364L1304.031-2270.364z"/>
		</g>
	</g>
	<g display="inline">
		<g>
			<path fill="#00A79D" d="M2094.479-2316.119c-5.299-11.955-16.525-19.395-25.451-28.407c-9.496-9.589-18.683-19.116-29.821-26.864
				c-10.523-7.319-23.427-12.996-36.479-11.726c-11.836,1.152-22.036,7.713-29.589,16.67c-8.534,10.122-14.638,22.896-15.59,36.17
				c-0.978,13.624,5.958,26.124,13.454,36.891c13.666,19.631,35.652,30.464,59.138,32.505c34.757,3.021,62.162-18.33,90.738-34.524
				c14.523-8.229,30.028-14.884,46.805-16.466c21.106-1.99,42.696,1.513,63.652,3.703c4.074,0.426,7.5-3.734,7.5-7.5
				c0-4.41-3.436-7.075-7.5-7.5c-29.467-3.079-59.882-7.981-88.71,1.392c-24.635,8.01-45.515,24.054-68.162,36.114
				c-20.096,10.7-42.955,13.246-64.419,5.009c-9.843-3.777-18.899-10.791-25.261-19.163c-7.533-9.915-14.204-21.65-11.694-34.508
				c2.15-11.018,9.72-23.034,19.017-29.419c10.521-7.224,22.095-4.61,32.651,1.059c11.732,6.301,21.332,15.91,30.478,25.42
				c8.773,9.122,21.043,16.875,26.29,28.715c1.658,3.739,7.034,4.582,10.262,2.691
				C2095.604-2308.094,2096.135-2312.382,2094.479-2316.119L2094.479-2316.119z"/>
		</g>
	</g>
	<g display="inline">
		<g>
			<path fill="#00A79D" d="M2266.5-2305.75c29.369,0.128,58.914,6.437,88.163,1.314c9.516-1.666,5.47-16.12-3.988-14.464
				c-27.68,4.847-56.35-1.729-84.175-1.851C2256.825-2320.792,2256.829-2305.792,2266.5-2305.75L2266.5-2305.75z"/>
		</g>
	</g>
	<g display="inline">
		<g>
			<path fill="#00A79D" d="M2110.675-2270.436c4.762,1.674,8.627,5.769,12.35,9.016c4.845,4.226,10.101,7.986,15.229,11.857
				c10.089,7.616,19.279,15.786,27.282,25.6c13.946,17.103,25.807,36.69,45.349,48.105c8.37,4.889,15.916-8.078,7.57-12.952
				c-19.443-11.357-31.056-32.448-45.201-49.247c-8.344-9.908-18.567-17.768-28.854-25.533c-9.491-7.165-18.349-17.306-29.736-21.31
				C2105.513-2288.116,2101.613-2273.621,2110.675-2270.436L2110.675-2270.436z"/>
		</g>
	</g>
	<g display="inline">
		<g>
			<path fill="#00A79D" d="M1970.031-1567.698c13.303,12.438,29.563,20.86,43.49,32.471c15.609,13.015,29.189,28.236,45.178,40.862
				c3.205,2.531,7.465,3.142,10.605,0c2.637-2.637,3.215-8.068,0-10.606c-15.538-12.271-29.141-26.64-43.912-39.774
				c-13.98-12.432-31.069-20.763-44.754-33.56C1973.582-1584.902,1962.953-1574.317,1970.031-1567.698L1970.031-1567.698z"/>
		</g>
	</g>
	<g display="inline">
		<g>
			<path fill="#00A79D" d="M2042.193-1492.12c-4.959,8.741-11.207,17.254-13.443,27.219c-2.506,11.163,2.559,21.058,10.615,28.537
				c7.078,6.57,17.71-4.013,10.607-10.606c-5.662-5.255-8.16-10.128-5.75-17.633c2.281-7.1,7.271-13.509,10.922-19.945
				C2059.925-1492.975,2046.965-1500.531,2042.193-1492.12L2042.193-1492.12z"/>
		</g>
	</g>
	<g display="inline">
		<g>
			<path fill="#00A79D" d="M2088.033-1465.031c-0.816-1.036,0.979,1.383,1.136,1.607c0.69,0.991,1.327,2.019,1.952,3.053
				c1.368,2.26,2.312,4.249,2.982,6.697c2.555,9.317,17.025,5.357,14.465-3.987c-1.842-6.72-5.667-12.563-9.93-17.977
				c-2.533-3.218-7.973-2.633-10.605,0C2084.888-1472.493,2085.506-1468.24,2088.033-1465.031L2088.033-1465.031z"/>
		</g>
	</g>
	<g display="inline">
		<g>
			<path fill="#00A79D" d="M2107.342-1473.103c38.569,7.317,77.229-0.8,115.682-4.7c41.087-4.167,81.877,1.635,122.979,1.635
				c9.673,0,9.673-15,0-15c-39.908,0-79.531-5.528-119.438-1.973c-38.09,3.393-77.033,12.821-115.233,5.574
				C2101.879-1489.359,2097.846-1474.904,2107.342-1473.103L2107.342-1473.103z"/>
		</g>
	</g>
	<g display="inline">
		<g>
			<path fill="#00A79D" d="M1281.233-1487.662c-2.914-7.181-8.49-11.566-14.658-15.958c-6.841-4.87-13.578-9.855-20.789-14.176
				c-14.703-8.81-32.452-16.009-49.814-12.836c-14.955,2.733-26.63,15.143-30.246,29.563c-4.196,16.733,3.221,31.328,14.305,43.369
				c6.564,7.131,17.145-3.504,10.607-10.606c-7.582-8.236-12.832-17.244-10.448-28.775c2.196-10.619,10.736-17.436,21.064-19.323
				c5.513-1.007,11.502,0.741,16.724,2.287c7.15,2.118,13.816,5.535,20.237,9.274c5.686,3.311,11.018,7.149,16.314,11.037
				c3.549,2.605,10.488,5.816,12.239,10.131c1.536,3.785,4.936,6.418,9.227,5.238
				C1279.59-1479.425,1282.772-1483.867,1281.233-1487.662L1281.233-1487.662z"/>
		</g>
	</g>
	<g display="inline">
		<g>
			<path fill="#00A79D" d="M1226.667-1444.834c6.223,0,12.444,0,18.667,0c9.673,0,9.673-15,0-15c-6.223,0-12.444,0-18.667,0
				C1216.994-1459.834,1216.994-1444.834,1226.667-1444.834L1226.667-1444.834z"/>
		</g>
	</g>
	<g display="inline">
		<g>
			<path fill="#00A79D" d="M1283.786-1460.525c5.017-2.486,10.077-4.617,15.542-5.911c9.41-2.228,5.418-16.691-3.988-14.464
				c-6.679,1.582-12.993,4.384-19.124,7.422c-3.661,1.814-4.648,6.919-2.69,10.262
				C1275.695-1459.512,1280.123-1458.71,1283.786-1460.525L1283.786-1460.525z"/>
		</g>
	</g>
	<g display="inline">
		<g>
			<path fill="#00A79D" d="M1308.452-1451.192c20.969-9.222,13.811-42.802,9.514-59.724c-3.984-15.694-10.861-30.563-19.076-44.463
				c-8.827-14.935-15.708-31.228-25.747-45.408c-5.539-7.825-18.555-0.344-12.951,7.571c9.085,12.833,14.598,27.615,22.958,40.851
				c8.434,13.352,15.262,27.49,19.619,42.691c2.359,8.228,3.997,16.751,4.496,25.299c0.437,7.498,0.341,17.274-6.383,20.231
				c-3.744,1.647-4.577,7.042-2.69,10.261C1300.431-1450.059,1304.71-1449.546,1308.452-1451.192L1308.452-1451.192z"/>
		</g>
	</g>
	<g display="inline">
		<g>
			<path fill="#00A79D" d="M1360.667-1475.501c62.872,0.041,126.093,4.034,188.667-4c4.054-0.521,7.5-3.018,7.5-7.5
				c0-3.693-3.435-8.022-7.5-7.5c-62.574,8.034-125.795,4.041-188.667,4C1350.994-1490.508,1350.994-1475.508,1360.667-1475.501
				L1360.667-1475.501z"/>
		</g>
	</g>
	<g display="inline">
		<g>
			<path fill="#00A79D" d="M591.81-1492.12c-10.188-13.899-16.64-29.831-30.496-40.795c-12.687-10.038-28.076-14.162-43.318-18.651
				c-9.302-2.74-13.245,11.737-3.988,14.464c12.93,3.809,25.836,7.1,36.971,15.031c13.017,9.271,18.724,25.03,27.881,37.522
				c2.411,3.29,6.458,4.918,10.261,2.69C592.372-1483.764,594.232-1488.815,591.81-1492.12L591.81-1492.12z"/>
		</g>
	</g>
	<g display="inline">
		<g>
			<path fill="#00A79D" d="M470.858-1530.12c-11.426,15.93-6.667,42.486,2.913,58.171c11.588,18.971,32.847,25.557,53.568,28.847
				c4.034,0.641,8.053-0.973,9.227-5.238c0.991-3.605-1.195-8.584-5.238-9.226c-15.648-2.484-32.966-6.028-42.984-19.547
				c-8.411-11.351-13.359-33.13-4.534-45.435C489.46-1530.427,476.441-1537.904,470.858-1530.12L470.858-1530.12z"/>
		</g>
	</g>
	<g display="inline">
		<g>
			<path fill="#00A79D" d="M574.452-1447.191c19.813-10.199,40.23-19.142,60.667-28c3.754-1.627,4.568-7.056,2.69-10.262
				c-2.248-3.837-6.51-4.316-10.261-2.69c-20.438,8.859-40.855,17.801-60.667,28
				C558.279-1455.715,565.868-1442.772,574.452-1447.191L574.452-1447.191z"/>
		</g>
	</g>
	<g display="inline">
		<g>
			<path fill="#00A79D" d="M606.882-1446.525c20.257,8.976,28.634,30.714,39.926,48.221c14.249,22.092,35.115,37.993,53.89,55.939
				c6.989,6.681,17.611-3.911,10.607-10.606c-18.842-18.011-39.726-33.831-53.664-56.252
				c-11.719-18.851-21.689-40.728-43.188-50.254c-3.737-1.656-8.025-1.126-10.261,2.691
				C602.301-1453.559,603.143-1448.182,606.882-1446.525L606.882-1446.525z"/>
		</g>
	</g>
	<g display="inline">
		<g>
			<path fill="#00A79D" d="M674.667-1478.167c30.962,0.036,61.887,1.694,92.832,2.491c29.151,0.75,58.901-1.72,87.841,2.574
				c4.041,0.6,8.045-0.943,9.227-5.238c0.983-3.575-1.188-8.625-5.238-9.226c-29.104-4.319-58.608-2.378-87.914-3.017
				c-32.255-0.704-64.478-2.547-96.747-2.584C664.993-1493.179,664.994-1478.179,674.667-1478.167L674.667-1478.167z"/>
		</g>
	</g>
	<g display="inline">
		<g>
			<path fill="#00A79D" d="M-103.302-1444.365c18.765,15.291,30.959,36.648,44.638,56.229c6.48,9.278,14.292,17.109,22.266,25.085
				c7.574,7.576,15.631,15.683,19.167,26.042c3.106,9.1,17.598,5.192,14.464-3.987c-7.812-22.885-29.519-35.659-42.946-54.711
				c-14.466-20.526-27.25-43.185-46.983-59.265c-3.166-2.58-7.498-3.109-10.606,0
				C-105.972-1452.302-106.476-1446.951-103.302-1444.365L-103.302-1444.365z"/>
		</g>
	</g>
	<g display="inline">
		<g>
			<path fill="#00A79D" d="M33.334-1476.168c18.668-0.509,37.209,1.509,55.691,3.919c8.824,1.151,17.326,1.379,26.209,0.819
				c9.074-0.573,18.383-1.695,27.439-0.34c4.04,0.604,8.045-0.946,9.226-5.238c0.985-3.579-1.188-8.62-5.238-9.226
				c-18.576-2.78-37.141,1.699-55.751-0.767c-19.101-2.532-38.276-4.694-57.576-4.167
				C23.681-1490.905,23.655-1475.904,33.334-1476.168L33.334-1476.168z"/>
		</g>
	</g>
	<g display="inline">
		<g>
			<path fill="#00A79D" d="M-9.333-1495.168c-25.442,0.04-51.086,1.843-75.455,9.649c-24.278,7.777-46.627,21.189-71.873,25.952
				c-9.499,1.792-5.464,16.247,3.987,14.464c24.006-4.529,45.622-16.744,68.485-24.81c24.074-8.493,49.525-10.216,74.854-10.256
				C0.34-1480.183,0.341-1495.183-9.333-1495.168L-9.333-1495.168z"/>
		</g>
	</g>
	<g display="inline">
		<g>
			<path fill="#00A79D" d="M-195.333-1454.501c-9.261-0.088-17.912-1.948-25.49-7.466c-6.297-4.586-9.912-12.427-12.069-19.654
				c-2.477-8.299-4.249-18.517-2.236-27.057c1.638-6.949,6.563-12.121,12.544-15.722c13.619-8.199,32.012-8.284,46.708-3.241
				c9.88,3.391,19.016,11.082,26.788,17.835c9.404,8.171,17.657,17.733,22.612,29.258c1.616,3.758,7.064,4.563,10.261,2.69
				c3.846-2.253,4.306-6.505,2.691-10.262c-5.212-12.123-14.072-22.388-23.74-31.209c-8.763-7.997-19.058-16.203-30.021-20.936
				c-16.912-7.301-37.478-7.7-54.653-0.981c-18.515,7.243-29.933,22.806-28.75,42.963c1.175,20.03,7.807,40.701,25.82,51.611
				c8.796,5.328,19.406,7.074,29.536,7.17C-185.656-1439.41-185.665-1454.41-195.333-1454.501L-195.333-1454.501z"/>
		</g>
	</g>
	<g display="inline">
		<g>
			<path fill="#C2B59B" d="M-448.5-2299.5c30.903,0.417,62.086-7.984,91.479-16.843c13.949-4.204,27.676-9.572,40.34-16.815
				c12.844-7.346,24.102-16.831,35.313-26.409c11.136-9.514,22.294-18.908,33.315-28.558c5.367-4.7,11.24-8.796,16.819-13.238
				c5.931-4.722,11.129-10.03,16.498-15.352c19.116-18.948,44.133-27.389,69.544-34.261c30.873-8.35,62.485-13.86,94.213-17.712
				c27.365-3.321,55.634-5.862,83-1.616c18.913,2.935,38.516,8.168,54.368,19.271c6.627,4.641,12.011,11.116,14.135,18.992
				c2.808,10.414-5.78,20.325-13.674,25.776c-17.65,12.187-42.366,10.278-62.736,10.265c-23.063-0.015-46.351-0.157-69.12-4.23
				c-9.456-1.691-13.499,12.763-3.987,14.465c30.086,5.382,61.147,5.252,91.615,4.672c25.847-0.493,55.926-5.786,69.225-30.896
				c11.077-20.915-2.41-41.55-19.768-53.289c-16.345-11.054-36.813-16.396-56.07-19.488c-27.577-4.427-55.555-2.553-83.164,0.629
				c-31.833,3.668-63.499,8.926-94.585,16.757c-26.441,6.661-52.435,14.813-74.202,31.773c-5.048,3.934-9.629,8.4-14.028,13.036
				c-5.273,5.557-11.389,10.336-17.475,14.959c-11.731,8.911-22.216,19.206-33.716,28.396
				c-11.479,9.173-22.097,19.387-34.261,27.686c-12.438,8.485-26.303,14.446-40.549,19.139
				c-14.276,4.704-29.013,8.262-43.634,11.714c-16.083,3.796-32.33,6.403-48.895,6.179
				C-458.178-2314.631-458.165-2299.631-448.5-2299.5L-448.5-2299.5z"/>
		</g>
	</g>
	<g display="inline">
		<g>
			<path fill="#C2B59B" d="M268.494-2301.768c13.981-3.363,28.656-0.985,42.818-3.233c15.401-2.444,30.363-7.475,44.867-13.082
				c13.04-5.041,26.234-10.272,38.011-17.892c10.495-6.79,19.934-15.192,28.783-23.978c17.664-17.539,32.939-37.393,51.659-53.879
				c19.251-16.954,42.952-27.498,67.443-34.408c24.893-7.024,50.704-10.153,76.448-11.89c15.537-1.048,31.037-2.078,46.553-3.45
				c16.067-1.421,32.169-2.518,48.305-1.855c13.207,0.542,26.111,3.182,39.071,5.585c10.099,1.872,20.479,3.942,29.969,7.99
				c9.198,3.924,17.221,9.759,22.517,18.347c2.343,3.8,3.975,7.976,5.043,12.299c0.71,2.875,0.67,6.078,0.203,8.113
				c-0.715,3.12-3.107,6.203-5.438,7.918c-4.35,3.202-8.018,4.475-13.077,5.935c-11.71,3.376-23.903,3.891-36.125,3.868
				c-11.624-0.022-23.136-1.146-34.699-2.176c-20.279-1.807-40.61-3.161-60.845-5.442c-4.071-0.459-7.5,3.759-7.5,7.5
				c0,4.435,3.438,7.042,7.5,7.5c23.809,2.684,47.745,4.267,71.603,6.454c15.079,1.383,30.374,1.749,45.446,0.121
				c14.415-1.558,31.568-4.776,41.557-16.348c12.036-13.943,6.319-34.11-3.589-47.571c-13.214-17.954-35.163-24.428-56.07-28.496
				c-12.522-2.437-25.126-4.921-37.836-6.088c-16.061-1.476-32.266-0.576-48.306,0.694c-16.103,1.275-32.159,3.051-48.305,3.734
				c-12.735,0.539-25.498,1.828-38.139,3.433c-26.229,3.33-52.218,8.912-76.631,19.269c-21.344,9.055-39.872,21.982-56.289,38.302
				c-15.999,15.905-30.07,33.63-46.458,49.162c-7.778,7.371-16.121,14.012-25.339,19.496c-11.348,6.751-24.169,11.413-36.52,15.958
				c-13.057,4.806-27.017,9.457-40.94,10.719c-13.259,1.202-26.606-0.215-39.678,2.929
				C255.104-2313.97,259.093-2299.506,268.494-2301.768L268.494-2301.768z"/>
		</g>
	</g>
	<g display="inline">
		<g>
			<path fill="#C2B59B" d="M956.5-2305c15.534-0.113,30.825-2.749,46.184-4.785c14.981-1.985,29.746-2.28,44.837-1.942
				c31.494,0.705,62.984-0.744,94.479-0.773c9.673-0.009,9.674-15.009,0-15c-31.495,0.029-62.985,1.479-94.479,0.773
				c-15.104-0.339-29.841,0.019-44.837,1.942c-15.374,1.972-30.639,4.671-46.184,4.785C946.831-2319.93,946.824-2304.93,956.5-2305
				L956.5-2305z"/>
		</g>
	</g>
	<g display="inline">
		<g>
			<path fill="#C2B59B" d="M1175-2311.5c13.316-0.082,26.12-2.069,38.566-6.875c12.006-4.637,25.024-5.917,36.928-10.893
				c3.769-1.576,6.427-4.904,5.238-9.227c-0.98-3.563-5.446-6.818-9.227-5.238c-10.839,4.531-22.57,6.226-33.729,9.775
				c-6.195,1.972-12.07,4.402-18.459,5.781c-6.339,1.367-12.854,1.636-19.318,1.676C1165.33-2326.44,1165.324-2311.44,1175-2311.5
				L1175-2311.5z"/>
		</g>
	</g>
	<g display="inline">
		<g>
			<path fill="#C2B59B" d="M1282-2338.5c12.267,0.813,24.596-7.07,35.146-12.444c11.447-5.831,21.134-14.821,29.282-24.629
				c8.194-9.864,14.938-20.821,23.257-30.597c8.35-9.813,18.089-17.554,29.148-24.1c22.087-13.075,50.657-24.918,76.674-18.665
				c21.782,5.236,38.301,22.608,42.521,44.517c4.977,25.832-6.481,52.573-23.016,71.875c-19.781,23.094-47.135,38.463-70.317,57.74
				c-7.445,6.191,3.228,16.743,10.607,10.606c22.479-18.692,48.247-33.717,68.191-55.349c17.989-19.511,29.651-44.292,30.401-71.019
				c0.705-25.099-10.272-47.641-30.736-62.162c-21.09-14.966-46.921-14.983-70.938-8.328c-17.059,4.727-33.482,12.728-48.289,22.359
				c-12.9,8.392-23.187,19.365-32.52,31.476c-9.401,12.198-17.463,25.009-29.32,35.085c-5.713,4.855-12.324,8.103-19.005,11.366
				c-6.541,3.195-13.532,7.769-21.089,7.268C1272.338-2354.141,1272.4-2339.137,1282-2338.5L1282-2338.5z"/>
		</g>
	</g>
	<g display="inline">
		<g>
			<path fill="#C2B59B" d="M1190-1505c2.872,51.73,25.088,99.234,41.768,147.494c3.14,9.084,17.633,5.18,14.465-3.987
				c-16.174-46.796-38.447-93.348-41.232-143.506C1204.466-1514.617,1189.463-1514.669,1190-1505L1190-1505z"/>
		</g>
	</g>
	<g display="inline">
		<g>
			<path fill="#C2B59B" d="M1219.785-1486.024c4.021-2.903,8.664-4.648,13-7c3.59-1.947,4.707-6.82,2.691-10.261
				c-2.114-3.608-6.668-4.641-10.262-2.691c-4.336,2.352-8.979,4.097-13,7c-3.308,2.388-4.907,6.478-2.691,10.261
				C1211.44-1485.443,1216.464-1483.626,1219.785-1486.024L1219.785-1486.024z"/>
		</g>
	</g>
	<g display="inline">
		<g>
			<path fill="#C2B59B" d="M1262-1507c7.221-0.158,17.503-4.077,24.215-0.524c8.542,4.521,16.122-8.426,7.57-12.952
				c-10.278-5.44-20.892-1.762-31.785-1.524C1252.342-1521.789,1252.321-1506.788,1262-1507L1262-1507z"/>
		</g>
	</g>
	<g display="inline">
		<g>
			<path fill="#C2B59B" d="M1229.696-1478.197c6.409,7.055,14.501,11.995,21.929,17.85c7.396,5.83,14.221,12.31,22.021,17.63
				c13.446,9.17,30.117,12.566,45.977,8.942c14.247-3.255,25.954-13.316,30.779-27.1c2.636-7.528,2.639-17.057,0.141-24.597
				c-1.472-4.443-4.363-8.17-7.739-11.333c-1.204-1.127-2.63-1.88-4.088-2.604c-0.664-0.315-1.328-0.63-1.993-0.944
				c-2.48-1.174-0.975-1.538,0.517,1.259c-0.391,3.029-0.781,6.059-1.173,9.088c0.079-0.064,0.158-0.128,0.237-0.193
				c3.171-2.588,2.671-7.936,0-10.606c-3.107-3.107-7.442-2.583-10.607,0c-0.078,0.064-0.157,0.128-0.236,0.193
				c-2.647,2.161-2.643,6.332-1.173,9.089c1.251,2.346,3.561,3.505,5.844,4.585c2.542,1.203,4.069,2.377,5.574,4.817
				c2.906,4.712,1.77,12.265,0.233,17.257c-3.184,10.346-13.86,15.593-23.753,17.317c-12.483,2.176-24.761-3.471-34.555-10.664
				c-6.332-4.65-11.99-10.181-18.231-14.953c-6.575-5.026-13.493-9.473-19.096-15.641
				C1233.786-1495.978,1223.21-1485.338,1229.696-1478.197L1229.696-1478.197z"/>
		</g>
	</g>
	<g display="inline">
		<g>
			<path fill="#C2B59B" d="M955-1473.5c33.434,0.035,66.831,1.782,100.256,2.348c16.69,0.283,33.334,0.962,50.017,1.385
				c16.339,0.415,32.427-3.204,48.728-2.733c0-5,0-10,0-15c-0.031,0-0.062,0-0.093,0c-9.673,0-9.673,15,0,15
				c0.198,0,0.396,0,0.593,0c9.673,0,9.673-15,0-15c-0.197,0-0.395,0-0.593,0c-9.673,0-9.673,15,0,15c0.031,0,0.062,0,0.093,0
				c9.692,0,9.646-14.721,0-15c-15.659-0.453-31.146,2.881-46.828,2.766c-16.643-0.123-33.295-1.156-49.947-1.387
				c-34.084-0.473-68.133-2.343-102.225-2.378C945.326-1488.51,945.327-1473.51,955-1473.5L955-1473.5z"/>
		</g>
	</g>
	<g display="inline">
		<g>
			<path fill="#C2B59B" d="M400.197-1618.697c18.029,17.421,39.927,30.215,57.632,47.996c9.782,9.825,18.181,21.098,27.565,31.32
				c4.085,4.449,8.09,8.804,11.826,13.552c3.343,4.248,6.823,8.458,11.494,11.305c8.283,5.048,15.814-7.928,7.57-12.952
				c-3.819-2.328-6.622-6.627-9.344-10.085c-3.434-4.364-7.173-8.349-10.94-12.426c-9.434-10.21-17.883-21.362-27.565-31.32
				c-17.485-17.982-39.615-30.586-57.632-47.996C403.848-1636.024,393.23-1625.428,400.197-1618.697L400.197-1618.697z"/>
		</g>
	</g>
	<g display="inline">
		<g>
			<path fill="#C2B59B" d="M490.994-1487.268c19.531-4.42,38.854-9.63,58-15.5c9.22-2.827,5.285-17.307-3.988-14.464
				c-19.145,5.87-38.468,11.08-58,15.5C477.573-1499.597,481.574-1485.136,490.994-1487.268L490.994-1487.268z"/>
		</g>
	</g>
	<g display="inline">
		<g>
			<path fill="#C2B59B" d="M587-1511.5c18.873,0.208,40.876,7.6,55.283,19.978c15.229,13.083,8.918,36.347,2.984,52.529
				c-3.338,9.102,11.163,12.991,14.465,3.987c7.705-21.012,12.139-47.573-4.906-65.324c-8.329-8.675-20.063-14.121-31.062-18.467
				c-11.588-4.579-24.271-7.564-36.765-7.702C577.323-1526.606,577.333-1511.606,587-1511.5L587-1511.5z"/>
		</g>
	</g>
	<g display="inline">
		<g>
			<path fill="#C2B59B" d="M523.024-1483.215c10.999,19.846,24.891,39.232,41.032,55.235c16.131,15.991,38.246,28.109,61.438,22.211
				c9.369-2.382,5.393-16.85-3.988-14.464c-19.019,4.836-36.395-7.69-49.055-20.577c-14.346-14.603-26.573-32.111-36.476-49.976
				C531.287-1499.246,518.331-1491.682,523.024-1483.215L523.024-1483.215z"/>
		</g>
	</g>
	<g display="inline">
		<g>
			<path fill="#C2B59B" d="M267-1477.5c30.728,1.351,61.437,3.311,92.208,3.152c31.886-0.164,63.451-5.652,95.292-5.652
				c9.673,0,9.673-15,0-15c-15.673,0-31.261,1.659-46.845,3.139c-16.119,1.53-32.256,2.383-48.447,2.513
				c-30.766,0.248-61.488-1.801-92.208-3.152C257.325-1492.925,257.366-1477.924,267-1477.5L267-1477.5z"/>
		</g>
	</g>
	<g display="inline">
		<g>
			<path fill="#C2B59B" d="M-194.732-1466.506c2.43,8.744,7.604,15.972,12.938,23.161c5.919,7.976,10.522,16.278,14.34,25.452
				c7.183,17.254,12.979,37.295,28.475,49.087c11.806,8.984,27.128,11.568,41.643,10.758c7.739-0.432,15.463-1.884,22.918-3.967
				c7.06-1.973,15.081-4.377,20.721-9.182c7.375-6.282-3.289-16.84-10.606-10.606c-3.706,3.157-10.725,4.381-15.288,5.656
				c-6.216,1.737-12.557,2.81-18.998,3.169c-12.065,0.673-24.867-1.57-34.039-9.966c-5.347-4.895-8.595-11.727-11.67-18.167
				c-4.011-8.396-7.163-17.197-10.79-25.762c-3.45-8.147-7.574-15.633-12.806-22.765c-4.77-6.501-10.178-12.957-12.374-20.857
				C-182.854-1479.801-197.327-1475.843-194.732-1466.506L-194.732-1466.506z"/>
		</g>
	</g>
	<g display="inline">
		<g>
			<path fill="#C2B59B" d="M-28.506-1386.768c24.071-5.686,41.78-26.529,49.232-49.358c7.813-23.939,0.469-51.502-13.241-71.824
				c-6.705-9.939-15.47-18.865-26.205-24.376c-10.279-5.278-21.805-7.361-33.237-8.098c-22.855-1.474-46.317,3.503-68.107,10.003
				c-1.816,0.542-3.625,1.112-5.43,1.69c-9.176,2.936-5.252,17.42,3.987,14.464c18.881-6.041,38.43-10.562,58.299-11.286
				c9.858-0.36,19.667,0.429,29.161,3.187c9.859,2.864,17.529,8.743,24.246,16.365c13.865,15.732,21.88,39.818,17.485,60.598
				c-4.256,20.12-19.715,39.338-40.179,44.172C-41.906-1399.009-37.914-1384.546-28.506-1386.768L-28.506-1386.768z"/>
		</g>
	</g>
	<g display="inline">
		<g>
			<path fill="#C2B59B" d="M-452-1476.5c16.431-0.053,32.813-1.327,49.219-2.067c16.263-0.734,32.492-0.256,48.749,0.354
				c32.038,1.201,64.679,1.929,96.532-2.286c4.052-0.536,7.5-3.006,7.5-7.5c0-3.682-3.436-8.038-7.5-7.5
				c-31.854,4.215-64.494,3.482-96.532,2.286c-16.264-0.607-32.479-1.037-48.749-0.354c-16.411,0.689-32.785,2.015-49.219,2.067
				C-461.671-1491.469-461.674-1476.469-452-1476.5L-452-1476.5z"/>
		</g>
	</g>
	<g display="inline">
		<g>
			<path fill="#C2B59B" d="M-221.006-1486.768c18.836-4.955,38.545-6.03,57-12.5c9.066-3.178,5.166-17.673-3.987-14.464
				c-18.456,6.47-38.164,7.545-57,12.5C-234.341-1498.773-230.372-1484.305-221.006-1486.768L-221.006-1486.768z"/>
		</g>
	</g>
	<g display="inline">
		<g>
			<path fill="#C2B59B" d="M1763.006-2306.768c13.525,3.218,27.324,0.919,40.994,0.268c17.069-0.814,34.098-1.449,51.188-1.758
				c16.297-0.294,32.527-0.509,48.827-0.124c8.411,0.199,16.821,0.387,25.234,0.371c7.703-0.015,16.212,0.51,23.745-1.257
				c9.415-2.209,5.422-16.672-3.988-14.465c-6.693,1.57-14.826,0.712-21.688,0.725c-7.769,0.015-15.538-0.189-23.304-0.374
				c-16.3-0.387-32.53-0.177-48.827,0.124c-15.758,0.291-31.516,0.537-47.25,1.494c-13.272,0.808-27.842,3.65-40.943,0.532
				C1757.589-2323.47,1753.598-2309.007,1763.006-2306.768L1763.006-2306.768z"/>
		</g>
	</g>
	<g display="inline">
		<g>
			<path fill="#C2B59B" d="M1984-2314c21.69-0.201,42.443-6.441,62.994-12.768c9.215-2.838,5.282-17.318-3.988-14.465
				c-19.258,5.93-38.674,12.044-59.006,12.232C1974.332-2328.91,1974.323-2313.91,1984-2314L1984-2314z"/>
		</g>
	</g>
	<g display="inline">
		<g>
			<path fill="#C2B59B" d="M2080.494-2339.268c26.723-3.873,48.178-20.386,66.809-38.929c9.398-9.353,19.215-18.328,31.281-24.101
				c12.244-5.858,24.941-3.749,36.131,3.274c9.545,5.991,19.431,12.375,25.756,21.926c8.034,12.133,9.461,26.953,8.029,41.098
				c-1.219,12.039-7.044,23.27-13.336,33.383c-6.821,10.962-15.192,20.888-24.128,30.174c-9.981,10.374-21.442,18.807-32.339,28.14
				c-7.358,6.302,3.303,16.862,10.605,10.606c10.532-9.02,21.565-17.208,31.332-27.105c9.168-9.291,17.521-19.447,24.867-30.235
				c15.508-22.774,23.053-49.517,15.533-76.701c-3.438-12.429-10.878-23.437-20.777-31.602c-9.949-8.206-21.64-16.396-34.13-19.925
				c-27.291-7.708-51.513,12.624-69.431,30.461c-17,16.922-35.813,31.538-60.191,35.071c-4.053,0.588-6.219,5.661-5.238,9.227
				C2072.452-2340.201,2076.451-2338.682,2080.494-2339.268L2080.494-2339.268z"/>
		</g>
	</g>
	<g display="inline">
		<g>
			<path fill="#C2B59B" d="M2147.715-2231.476c-3.639,2.568-8.944,0.815-12.933-0.243c-5.235-1.389-10.339-3.347-15.468-5.081
				c-14.832-5.016-30.669-7.584-46.314-7.7c-9.676-0.071-9.669,14.929,0,15c16.153,0.12,31.632,3.461,46.865,8.685
				c10.538,3.614,25.121,9.558,35.42,2.291C2163.121-2224.053,2155.639-2237.067,2147.715-2231.476L2147.715-2231.476z"/>
		</g>
	</g>
	<g display="inline">
		<g>
			<path fill="#C2B59B" d="M2011.523-1513.285c-7.919,10.518-1.742,25.876,6.673,34.088c6.925,6.757,17.539-3.842,10.607-10.606
				c-3.925-3.83-8.143-10.845-4.327-15.912c2.465-3.274,0.527-8.375-2.691-10.261
				C2017.948-1518.224,2013.978-1516.544,2011.523-1513.285L2011.523-1513.285z"/>
		</g>
	</g>
	<g display="inline">
		<g>
			<path fill="#C2B59B" d="M2070.506-1512.768c7.156,2.063,11.586,7.097,9.479,14.753c-2.143,7.787-12.075,12.926-18.271,17.039
				c-8.018,5.322-0.515,18.319,7.57,12.952c10.735-7.126,23.088-15.011,25.781-28.618c2.92-14.745-6.869-26.642-20.572-30.59
				C2065.178-1529.917,2061.229-1515.441,2070.506-1512.768L2070.506-1512.768z"/>
		</g>
	</g>
	<g display="inline">
		<g>
			<path fill="#C2B59B" d="M2048.197-1456.697c12.015,12.888,27.311,21.849,41.347,32.274c14.919,11.081,29.95,22.149,46.671,30.399
				c8.642,4.264,16.245-8.672,7.57-12.952c-16.188-7.987-30.794-18.621-45.248-29.342c-13.49-10.008-28.195-18.608-39.734-30.985
				C2052.194-1474.392,2041.61-1463.761,2048.197-1456.697L2048.197-1456.697z"/>
		</g>
	</g>
	<g display="inline">
		<g>
			<path fill="#C2B59B" d="M1766-1474c39.748,0,79.502-0.014,119.235-1.24c19.354-0.597,38.595-0.207,57.935,0.706
				c9.62,0.453,19.239,0.929,28.865,1.241c10.133,0.328,20.371-0.189,30.465,0.793c9.627,0.938,9.537-14.071,0-15
				c-9.455-0.921-19.04-0.48-28.531-0.736c-9.631-0.26-19.256-0.747-28.879-1.207c-19.979-0.955-39.859-1.434-59.854-0.796
				c-39.73,1.267-79.489,1.24-119.235,1.24C1756.327-1489,1756.327-1474,1766-1474L1766-1474z"/>
		</g>
	</g>
</g>
<g id="Layer_3" display="none">
	<g display="inline">
		<path fill="none" stroke="#414042" stroke-width="2" stroke-miterlimit="10" d="M-165.333-2248.5
			c-16.285,0.027-32.558,0.662-48.837,0.98c-15.343,0.3-30.587-0.316-45.914-0.77c-24.565-0.727-50.08,1.946-71.218,15.492
			c-20.517,13.148-38.309,37.679-28.602,62.753c8.928,23.062,33.74,35.604,56.971,38.807c31.675,4.367,63.682,2.365,95.525,1.835
			c26.112-0.436,51.998-0.457,77.838-4.876c12.448-2.129,24.527-5.538,36.115-10.565c12.046-5.226,21.849-13.785,30.676-23.353
			c19.891-21.563,39.273-44.32,56.319-68.2c7.837-10.979,15.478-20.607,27.023-27.927c10.582-6.708,22.503-10.737,34.597-13.726
			c13.039-3.221,26.484-5.144,39.712-7.435c13.781-2.387,28.533-4.715,42.468-2.284c9.458,1.65,13.504-12.804,3.987-14.464
			c-26.235-4.578-54.064,2.634-79.825,7.489c-24.282,4.576-48.11,13.497-65.845,31.282c-10.091,10.119-17.31,23.046-26.106,34.26
			c-9.269,11.817-19.254,23.009-29.069,34.365c-8.711,10.079-17.004,21.006-27.68,29.137c-9.572,7.29-21.294,11.171-32.819,14.108
			c-24.259,6.184-49.736,7.024-74.65,7.089c-31.661,0.083-63.399,2.427-95.012-0.232c-21.754-1.83-49.652-9.059-56.991-32.839
			c-7.236-23.447,20.212-43.617,39.188-50.237c19.289-6.729,40.021-5.837,60.104-4.936c27.337,1.227,54.704-0.71,82.046-0.754
			C-155.661-2233.516-155.659-2248.516-165.333-2248.5L-165.333-2248.5z"/>
	</g>
	<g display="inline">
		<path fill="none" stroke="#414042" stroke-width="2" stroke-miterlimit="10" d="M856-2318.501c-31.92,0.521-63.438-5.869-95.333-6
			c-31.562-0.13-63.253,0.06-94.617,3.951c-31.978,3.967-62.414,13.1-92.585,24.172c-12.938,4.748-26.11,11.808-39.963,13.249
			c-12.535,1.304-24.485-1.452-34.914-8.488c-13.514-9.117-21.284-26.674-23.349-42.375c-0.964-7.33-0.198-13.234,5.072-18.684
			c4.933-5.099,11.93-8.217,18.47-10.669c7.717-2.894,15.572-5.007,23.832-3.388c8.316,1.63,15.485,6.584,21.703,12.122
			c7.224,6.432,13.872,13.731,20.657,20.626c6.738,6.846,13.067,14.029,17.218,22.771c4.146,8.734,17.077,1.118,12.951-7.57
			c-5.862-12.348-15.866-22.206-25.453-31.705c-9.292-9.207-17.968-19.054-29.525-25.517c-21.175-11.842-48.523-4.922-66.801,9.537
			c-8.765,6.934-14.009,16.832-13.529,28.137c0.536,12.629,4.468,25.164,10.397,36.256c12.526,23.431,36.988,36.078,63.271,33.948
			c11.824-0.958,22.27-5.576,33.219-9.761c13.172-5.034,26.454-9.781,39.883-14.087c26.756-8.58,53.948-13.694,81.957-15.789
			c27.656-2.068,55.887-2.599,83.6-1.471c28.017,1.14,55.739,6.195,83.84,5.736C865.663-2303.659,865.678-2318.659,856-2318.501
			L856-2318.501z"/>
	</g>
	<g display="inline">
		<path fill="none" stroke="#414042" stroke-width="2" stroke-miterlimit="10" d="M606.882-2273.191
			c3.37,2.489,5.195,7.255,7.153,10.81c2.832,5.142,6.493,9.896,10.063,14.542c7.353,9.57,15.559,18.372,24.055,26.928
			c18.503,18.637,35.386,38.618,53.211,57.881c6.583,7.114,17.165-3.52,10.607-10.606c-17.825-19.263-34.662-39.291-53.212-57.881
			c-8.836-8.855-17.435-18.009-24.869-28.09c-6.491-8.801-10.464-19.909-19.438-26.535c-3.296-2.434-8.361-0.553-10.261,2.69
			C601.958-2279.64,603.6-2275.615,606.882-2273.191L606.882-2273.191z"/>
	</g>
	<g display="inline">
		<path fill="none" stroke="#414042" stroke-width="2" stroke-miterlimit="10" d="M1550.668-2316.5
			c-13.828-0.988-27.812-0.667-41.668-0.667c-9.673,0-9.673,15,0,15c13.856,0,27.84-0.321,41.668,0.667
			C1560.325-2300.811,1560.259-2315.815,1550.668-2316.5L1550.668-2316.5z"/>
	</g>
	<g display="inline">
		<path fill="none" stroke="#414042" stroke-width="2" stroke-miterlimit="10" d="M1460.662-2317.566
			c-30.469-4.508-60.686,1.059-91.12,2.886c-13.999,0.84-27.547,2.947-41.003,6.971c-12.906,3.859-25.344,9.188-37.665,14.588
			c-23.975,10.505-48.62,22.595-74.878,26.055c-12.193,1.606-24.98,0.277-34.691-7.903c-9.122-7.685-15.846-18.327-16.957-30.404
			c-2.502-27.18,27.77-47.145,51.735-49.398c13.21-1.242,26.007,2.406,35.151,12.281c10.42,11.251,15.223,26.803,24.797,38.795
			c2.555,3.2,7.959,2.648,10.607,0c3.13-3.13,2.548-7.415,0-10.606c-6.922-8.67-11.192-19.263-17.106-28.599
			c-6.384-10.077-14.688-18.136-25.772-22.769c-19.718-8.242-42.67-3.938-60.801,6.262c-18.804,10.579-34.205,30.248-33.695,52.578
			c0.587,25.716,21.356,50.074,46.623,54.422c20.758,3.572,42.897-3.537,62.19-10.65c20.134-7.423,39.269-17.263,59.29-24.962
			c10.032-3.857,20.313-7.029,30.843-9.204c11.17-2.308,22.566-2.412,33.894-3.388c24.657-2.124,49.861-6.145,74.57-2.488
			c4.041,0.598,8.045-0.942,9.227-5.238C1466.883-2311.914,1464.713-2316.967,1460.662-2317.566L1460.662-2317.566z"/>
	</g>
	<g display="inline">
		<path fill="none" stroke="#414042" stroke-width="2" stroke-miterlimit="10" d="M1302.031-2266.364
			c16.619,17.876,31.688,36.989,45.209,57.309c6.574,9.878,13.796,18.934,22.104,27.417c8.572,8.754,17.682,16.954,26.021,25.941
			c6.593,7.104,17.175-3.527,10.607-10.606c-7.95-8.567-16.55-16.475-24.817-24.727c-8.816-8.8-16.029-18.256-22.95-28.572
			c-13.619-20.3-28.926-39.469-45.565-57.368C1306.039-2284.069,1295.456-2273.438,1302.031-2266.364L1302.031-2266.364z"/>
	</g>
	<g display="inline">
		<path fill="none" stroke="#414042" stroke-width="2" stroke-miterlimit="10" d="M2092.479-2312.119
			c-5.299-11.955-16.525-19.395-25.451-28.407c-9.496-9.589-18.683-19.116-29.821-26.864c-10.523-7.319-23.427-12.996-36.479-11.726
			c-11.836,1.152-22.036,7.713-29.589,16.67c-8.534,10.122-14.638,22.896-15.59,36.17c-0.978,13.624,5.958,26.124,13.454,36.891
			c13.666,19.631,35.652,30.464,59.138,32.505c34.757,3.021,62.162-18.33,90.738-34.524c14.523-8.229,30.028-14.884,46.805-16.466
			c21.106-1.99,42.696,1.513,63.652,3.703c4.074,0.426,7.5-3.734,7.5-7.5c0-4.41-3.436-7.075-7.5-7.5
			c-29.467-3.079-59.882-7.981-88.71,1.392c-24.635,8.01-45.515,24.054-68.162,36.114c-20.096,10.7-42.955,13.246-64.419,5.009
			c-9.843-3.777-18.899-10.791-25.261-19.163c-7.533-9.915-14.204-21.65-11.694-34.508c2.15-11.018,9.72-23.034,19.017-29.419
			c10.521-7.224,22.095-4.61,32.651,1.059c11.732,6.301,21.332,15.91,30.478,25.42c8.773,9.122,21.043,16.875,26.29,28.715
			c1.658,3.739,7.034,4.582,10.262,2.691C2093.604-2304.094,2094.135-2308.382,2092.479-2312.119L2092.479-2312.119z"/>
	</g>
	<g display="inline">
		<path fill="none" stroke="#414042" stroke-width="2" stroke-miterlimit="10" d="M2264.5-2301.75
			c29.369,0.128,58.914,6.437,88.163,1.314c9.516-1.666,5.47-16.12-3.988-14.464c-27.68,4.847-56.35-1.729-84.175-1.851
			C2254.825-2316.792,2254.829-2301.792,2264.5-2301.75L2264.5-2301.75z"/>
	</g>
	<g display="inline">
		<path fill="none" stroke="#414042" stroke-width="2" stroke-miterlimit="10" d="M2108.675-2266.436
			c4.762,1.674,8.627,5.769,12.35,9.016c4.845,4.226,10.101,7.986,15.229,11.857c10.089,7.616,19.279,15.786,27.282,25.6
			c13.946,17.103,25.807,36.69,45.349,48.105c8.37,4.889,15.916-8.078,7.57-12.952c-19.443-11.357-31.056-32.448-45.201-49.247
			c-8.344-9.908-18.567-17.768-28.854-25.533c-9.491-7.165-18.349-17.306-29.736-21.31
			C2103.513-2284.116,2099.613-2269.621,2108.675-2266.436L2108.675-2266.436z"/>
	</g>
	<g display="inline">
		<path fill="none" stroke="#414042" stroke-width="2" stroke-miterlimit="10" d="M1968.031-1563.698
			c13.303,12.438,29.563,20.86,43.49,32.471c15.609,13.015,29.189,28.236,45.178,40.862c3.205,2.531,7.465,3.142,10.605,0
			c2.637-2.637,3.215-8.068,0-10.606c-15.538-12.271-29.141-26.64-43.912-39.774c-13.98-12.432-31.069-20.763-44.754-33.56
			C1971.582-1580.902,1960.953-1570.317,1968.031-1563.698L1968.031-1563.698z"/>
	</g>
	<g display="inline">
		<path fill="none" stroke="#414042" stroke-width="2" stroke-miterlimit="10" d="M2040.193-1488.12
			c-4.959,8.741-11.207,17.254-13.443,27.219c-2.506,11.163,2.559,21.058,10.615,28.537c7.078,6.57,17.71-4.013,10.607-10.606
			c-5.662-5.255-8.16-10.128-5.75-17.633c2.281-7.1,7.271-13.509,10.922-19.945
			C2057.925-1488.975,2044.965-1496.531,2040.193-1488.12L2040.193-1488.12z"/>
	</g>
	<g display="inline">
		<path fill="none" stroke="#414042" stroke-width="2" stroke-miterlimit="10" d="M2086.033-1461.031
			c-0.816-1.036,0.979,1.383,1.136,1.607c0.69,0.991,1.327,2.019,1.952,3.053c1.368,2.26,2.312,4.249,2.982,6.697
			c2.555,9.317,17.025,5.357,14.465-3.987c-1.842-6.72-5.667-12.563-9.93-17.977c-2.533-3.218-7.973-2.633-10.605,0
			C2082.888-1468.493,2083.506-1464.24,2086.033-1461.031L2086.033-1461.031z"/>
	</g>
	<g display="inline">
		<path fill="none" stroke="#414042" stroke-width="2" stroke-miterlimit="10" d="M2105.342-1469.103
			c38.569,7.317,77.229-0.8,115.682-4.7c41.087-4.167,81.877,1.635,122.979,1.635c9.673,0,9.673-15,0-15
			c-39.908,0-79.531-5.528-119.438-1.973c-38.09,3.393-77.033,12.821-115.233,5.574
			C2099.879-1485.359,2095.846-1470.904,2105.342-1469.103L2105.342-1469.103z"/>
	</g>
	<g display="inline">
		<path fill="none" stroke="#414042" stroke-width="2" stroke-miterlimit="10" d="M1279.233-1483.662
			c-2.914-7.181-8.49-11.566-14.658-15.958c-6.841-4.87-13.578-9.855-20.789-14.176c-14.703-8.81-32.452-16.009-49.814-12.836
			c-14.955,2.733-26.63,15.143-30.246,29.563c-4.196,16.733,3.221,31.328,14.305,43.369c6.564,7.131,17.145-3.504,10.607-10.606
			c-7.582-8.236-12.832-17.244-10.448-28.775c2.196-10.619,10.736-17.436,21.064-19.323c5.513-1.007,11.502,0.741,16.724,2.287
			c7.15,2.118,13.816,5.535,20.237,9.274c5.686,3.311,11.018,7.149,16.314,11.037c3.549,2.605,10.488,5.816,12.239,10.131
			c1.536,3.785,4.936,6.418,9.227,5.238C1277.59-1475.425,1280.772-1479.867,1279.233-1483.662L1279.233-1483.662z"/>
	</g>
	<g display="inline">
		<path fill="none" stroke="#414042" stroke-width="2" stroke-miterlimit="10" d="M1224.667-1440.834c6.223,0,12.444,0,18.667,0
			c9.673,0,9.673-15,0-15c-6.223,0-12.444,0-18.667,0C1214.994-1455.834,1214.994-1440.834,1224.667-1440.834L1224.667-1440.834z"/>
	</g>
	<g display="inline">
		<path fill="none" stroke="#414042" stroke-width="2" stroke-miterlimit="10" d="M1281.786-1456.525
			c5.017-2.486,10.077-4.617,15.542-5.911c9.41-2.228,5.418-16.691-3.988-14.464c-6.679,1.582-12.993,4.384-19.124,7.422
			c-3.661,1.814-4.648,6.919-2.69,10.262C1273.695-1455.512,1278.123-1454.71,1281.786-1456.525L1281.786-1456.525z"/>
	</g>
	<g display="inline">
		<path fill="none" stroke="#414042" stroke-width="2" stroke-miterlimit="10" d="M1306.452-1447.192
			c20.969-9.222,13.811-42.802,9.514-59.724c-3.984-15.694-10.861-30.563-19.076-44.463c-8.827-14.935-15.708-31.228-25.747-45.408
			c-5.539-7.825-18.555-0.344-12.951,7.571c9.085,12.833,14.598,27.615,22.958,40.851c8.434,13.352,15.262,27.49,19.619,42.691
			c2.359,8.228,3.997,16.751,4.496,25.299c0.437,7.498,0.341,17.274-6.383,20.231c-3.744,1.647-4.577,7.042-2.69,10.261
			C1298.431-1446.059,1302.71-1445.546,1306.452-1447.192L1306.452-1447.192z"/>
	</g>
	<g display="inline">
		<path fill="none" stroke="#414042" stroke-width="2" stroke-miterlimit="10" d="M1358.667-1471.501
			c62.872,0.041,126.093,4.034,188.667-4c4.054-0.521,7.5-3.018,7.5-7.5c0-3.693-3.435-8.022-7.5-7.5
			c-62.574,8.034-125.795,4.041-188.667,4C1348.994-1486.508,1348.994-1471.508,1358.667-1471.501L1358.667-1471.501z"/>
	</g>
	<g display="inline">
		<path fill="none" stroke="#414042" stroke-width="2" stroke-miterlimit="10" d="M589.81-1488.12
			c-10.188-13.899-16.64-29.831-30.496-40.795c-12.687-10.038-28.076-14.162-43.318-18.651c-9.302-2.74-13.245,11.737-3.988,14.464
			c12.93,3.809,25.836,7.1,36.971,15.031c13.017,9.271,18.724,25.03,27.881,37.522c2.411,3.29,6.458,4.918,10.261,2.69
			C590.372-1479.764,592.232-1484.815,589.81-1488.12L589.81-1488.12z"/>
	</g>
	<g display="inline">
		<path fill="none" stroke="#414042" stroke-width="2" stroke-miterlimit="10" d="M468.858-1526.12
			c-11.426,15.93-6.667,42.486,2.913,58.171c11.588,18.971,32.847,25.557,53.568,28.847c4.034,0.641,8.053-0.973,9.227-5.238
			c0.991-3.605-1.195-8.584-5.238-9.226c-15.648-2.484-32.966-6.028-42.984-19.547c-8.411-11.351-13.359-33.13-4.534-45.435
			C487.46-1526.427,474.441-1533.904,468.858-1526.12L468.858-1526.12z"/>
	</g>
	<g display="inline">
		<path fill="none" stroke="#414042" stroke-width="2" stroke-miterlimit="10" d="M572.452-1443.191
			c19.813-10.199,40.23-19.142,60.667-28c3.754-1.627,4.568-7.056,2.69-10.262c-2.248-3.837-6.51-4.316-10.261-2.69
			c-20.438,8.859-40.855,17.801-60.667,28C556.279-1451.715,563.868-1438.772,572.452-1443.191L572.452-1443.191z"/>
	</g>
	<g display="inline">
		<path fill="none" stroke="#414042" stroke-width="2" stroke-miterlimit="10" d="M604.882-1442.525
			c20.257,8.976,28.634,30.714,39.926,48.221c14.249,22.092,35.115,37.993,53.89,55.939c6.989,6.681,17.611-3.911,10.607-10.606
			c-18.842-18.011-39.726-33.831-53.664-56.252c-11.719-18.851-21.689-40.728-43.188-50.254c-3.737-1.656-8.025-1.126-10.261,2.691
			C600.301-1449.559,601.143-1444.182,604.882-1442.525L604.882-1442.525z"/>
	</g>
	<g display="inline">
		<path fill="none" stroke="#414042" stroke-width="2" stroke-miterlimit="10" d="M672.667-1474.167
			c30.962,0.036,61.887,1.694,92.832,2.491c29.151,0.75,58.901-1.72,87.841,2.574c4.041,0.6,8.045-0.943,9.227-5.238
			c0.983-3.575-1.188-8.625-5.238-9.226c-29.104-4.319-58.608-2.378-87.914-3.017c-32.255-0.704-64.478-2.547-96.747-2.584
			C662.993-1489.179,662.994-1474.179,672.667-1474.167L672.667-1474.167z"/>
	</g>
	<g display="inline">
		<path fill="none" stroke="#414042" stroke-width="2" stroke-miterlimit="10" d="M-105.302-1440.365
			c18.765,15.291,30.959,36.648,44.638,56.229c6.48,9.278,14.292,17.109,22.266,25.085c7.574,7.576,15.631,15.683,19.167,26.042
			c3.106,9.1,17.598,5.192,14.464-3.987c-7.812-22.885-29.519-35.659-42.946-54.711c-14.466-20.526-27.25-43.185-46.983-59.265
			c-3.166-2.58-7.498-3.109-10.606,0C-107.972-1448.302-108.476-1442.951-105.302-1440.365L-105.302-1440.365z"/>
	</g>
	<g display="inline">
		<path fill="none" stroke="#414042" stroke-width="2" stroke-miterlimit="10" d="M31.334-1472.168
			c18.668-0.509,37.209,1.509,55.691,3.919c8.824,1.151,17.326,1.379,26.209,0.819c9.074-0.573,18.383-1.695,27.439-0.34
			c4.04,0.604,8.045-0.946,9.226-5.238c0.985-3.579-1.188-8.62-5.238-9.226c-18.576-2.78-37.141,1.699-55.751-0.767
			c-19.101-2.532-38.276-4.694-57.576-4.167C21.681-1486.905,21.655-1471.904,31.334-1472.168L31.334-1472.168z"/>
	</g>
	<g display="inline">
		<path fill="none" stroke="#414042" stroke-width="2" stroke-miterlimit="10" d="M-11.333-1491.168
			c-25.442,0.04-51.086,1.843-75.455,9.649c-24.278,7.777-46.627,21.189-71.873,25.952c-9.499,1.792-5.464,16.247,3.987,14.464
			c24.006-4.529,45.622-16.744,68.485-24.81c24.074-8.493,49.525-10.216,74.854-10.256
			C-1.66-1476.183-1.659-1491.183-11.333-1491.168L-11.333-1491.168z"/>
	</g>
	<g display="inline">
		<path fill="none" stroke="#414042" stroke-width="2" stroke-miterlimit="10" d="M-197.333-1450.501
			c-9.261-0.088-17.912-1.948-25.49-7.466c-6.297-4.586-9.912-12.427-12.069-19.654c-2.477-8.299-4.249-18.517-2.236-27.057
			c1.638-6.949,6.563-12.121,12.544-15.722c13.619-8.199,32.012-8.284,46.708-3.241c9.88,3.391,19.016,11.082,26.788,17.835
			c9.404,8.171,17.657,17.733,22.612,29.258c1.616,3.758,7.064,4.563,10.261,2.69c3.846-2.253,4.306-6.505,2.691-10.262
			c-5.212-12.123-14.072-22.388-23.74-31.209c-8.763-7.997-19.058-16.203-30.021-20.936c-16.912-7.301-37.478-7.7-54.653-0.981
			c-18.515,7.243-29.933,22.806-28.75,42.963c1.175,20.03,7.807,40.701,25.82,51.611c8.796,5.328,19.406,7.074,29.536,7.17
			C-187.656-1435.41-187.665-1450.41-197.333-1450.501L-197.333-1450.501z"/>
	</g>
	<g display="inline">
		<path fill="none" stroke="#414042" stroke-width="2" stroke-miterlimit="10" d="M-450.5-2295.5
			c30.903,0.417,62.086-7.984,91.479-16.843c13.949-4.204,27.676-9.572,40.34-16.815c12.844-7.346,24.102-16.831,35.313-26.409
			c11.136-9.514,22.294-18.908,33.315-28.558c5.367-4.7,11.24-8.796,16.819-13.238c5.931-4.722,11.129-10.03,16.498-15.352
			c19.116-18.948,44.133-27.389,69.544-34.261c30.873-8.35,62.485-13.86,94.213-17.712c27.365-3.321,55.634-5.862,83-1.616
			c18.913,2.935,38.516,8.168,54.368,19.271c6.627,4.641,12.011,11.116,14.135,18.992c2.808,10.414-5.78,20.325-13.674,25.776
			c-17.65,12.187-42.366,10.278-62.736,10.265c-23.063-0.015-46.351-0.157-69.12-4.23c-9.456-1.691-13.499,12.763-3.987,14.465
			c30.086,5.382,61.147,5.252,91.615,4.672c25.847-0.493,55.926-5.786,69.225-30.896c11.077-20.915-2.41-41.55-19.768-53.289
			c-16.345-11.054-36.813-16.396-56.07-19.488c-27.577-4.427-55.555-2.553-83.164,0.629c-31.833,3.668-63.499,8.926-94.585,16.757
			c-26.441,6.661-52.435,14.813-74.202,31.773c-5.048,3.934-9.629,8.4-14.028,13.036c-5.273,5.557-11.389,10.336-17.475,14.959
			c-11.731,8.911-22.216,19.206-33.716,28.396c-11.479,9.173-22.097,19.387-34.261,27.686
			c-12.438,8.485-26.303,14.446-40.549,19.139c-14.276,4.704-29.013,8.262-43.634,11.714c-16.083,3.796-32.33,6.403-48.895,6.179
			C-460.178-2310.631-460.165-2295.631-450.5-2295.5L-450.5-2295.5z"/>
	</g>
	<g display="inline">
		<path fill="none" stroke="#414042" stroke-width="2" stroke-miterlimit="10" d="M266.494-2297.768
			c13.981-3.363,28.656-0.985,42.818-3.233c15.401-2.444,30.363-7.475,44.867-13.082c13.04-5.041,26.234-10.272,38.011-17.892
			c10.495-6.79,19.934-15.192,28.783-23.978c17.664-17.539,32.939-37.393,51.659-53.879c19.251-16.954,42.952-27.498,67.443-34.408
			c24.893-7.024,50.704-10.153,76.448-11.89c15.537-1.048,31.037-2.078,46.553-3.45c16.067-1.421,32.169-2.518,48.305-1.855
			c13.207,0.542,26.111,3.182,39.071,5.585c10.099,1.872,20.479,3.942,29.969,7.99c9.198,3.924,17.221,9.759,22.517,18.347
			c2.343,3.8,3.975,7.976,5.043,12.299c0.71,2.875,0.67,6.078,0.203,8.113c-0.715,3.12-3.107,6.203-5.438,7.918
			c-4.35,3.202-8.018,4.475-13.077,5.935c-11.71,3.376-23.903,3.891-36.125,3.868c-11.624-0.022-23.136-1.146-34.699-2.176
			c-20.279-1.807-40.61-3.161-60.845-5.442c-4.071-0.459-7.5,3.759-7.5,7.5c0,4.435,3.438,7.042,7.5,7.5
			c23.809,2.684,47.745,4.267,71.603,6.454c15.079,1.383,30.374,1.749,45.446,0.121c14.415-1.558,31.568-4.776,41.557-16.348
			c12.036-13.943,6.319-34.11-3.589-47.571c-13.214-17.954-35.163-24.428-56.07-28.496c-12.522-2.437-25.126-4.921-37.836-6.088
			c-16.061-1.476-32.266-0.576-48.306,0.694c-16.103,1.275-32.159,3.051-48.305,3.734c-12.735,0.539-25.498,1.828-38.139,3.433
			c-26.229,3.33-52.218,8.912-76.631,19.269c-21.344,9.055-39.872,21.982-56.289,38.302c-15.999,15.905-30.07,33.63-46.458,49.162
			c-7.778,7.371-16.121,14.012-25.339,19.496c-11.348,6.751-24.169,11.413-36.52,15.958c-13.057,4.806-27.017,9.457-40.94,10.719
			c-13.259,1.202-26.606-0.215-39.678,2.929C253.104-2309.97,257.093-2295.506,266.494-2297.768L266.494-2297.768z"/>
	</g>
	<g display="inline">
		<path fill="none" stroke="#414042" stroke-width="2" stroke-miterlimit="10" d="M954.5-2301
			c15.534-0.113,30.825-2.749,46.184-4.785c14.981-1.985,29.746-2.28,44.837-1.942c31.494,0.705,62.984-0.744,94.479-0.773
			c9.673-0.009,9.674-15.009,0-15c-31.495,0.029-62.985,1.479-94.479,0.773c-15.104-0.339-29.841,0.019-44.837,1.942
			c-15.374,1.972-30.639,4.671-46.184,4.785C944.831-2315.93,944.824-2300.93,954.5-2301L954.5-2301z"/>
	</g>
	<g display="inline">
		<path fill="none" stroke="#414042" stroke-width="2" stroke-miterlimit="10" d="M1173-2307.5
			c13.316-0.082,26.12-2.069,38.566-6.875c12.006-4.637,25.024-5.917,36.928-10.893c3.769-1.576,6.427-4.904,5.238-9.227
			c-0.98-3.563-5.446-6.818-9.227-5.238c-10.839,4.531-22.57,6.226-33.729,9.775c-6.195,1.972-12.07,4.402-18.459,5.781
			c-6.339,1.367-12.854,1.636-19.318,1.676C1163.33-2322.44,1163.324-2307.44,1173-2307.5L1173-2307.5z"/>
	</g>
	<g display="inline">
		<path fill="none" stroke="#414042" stroke-width="2" stroke-miterlimit="10" d="M1280-2334.5
			c12.267,0.813,24.596-7.07,35.146-12.444c11.447-5.831,21.134-14.821,29.282-24.629c8.194-9.864,14.938-20.821,23.257-30.597
			c8.35-9.813,18.089-17.554,29.148-24.1c22.087-13.075,50.657-24.918,76.674-18.665c21.782,5.236,38.301,22.608,42.521,44.517
			c4.977,25.832-6.481,52.573-23.016,71.875c-19.781,23.094-47.135,38.463-70.317,57.74c-7.445,6.191,3.228,16.743,10.607,10.606
			c22.479-18.692,48.247-33.717,68.191-55.349c17.989-19.511,29.651-44.292,30.401-71.019c0.705-25.099-10.272-47.641-30.736-62.162
			c-21.09-14.966-46.921-14.983-70.938-8.328c-17.059,4.727-33.482,12.728-48.289,22.359c-12.9,8.392-23.187,19.365-32.52,31.476
			c-9.401,12.198-17.463,25.009-29.32,35.085c-5.713,4.855-12.324,8.103-19.005,11.366c-6.541,3.195-13.532,7.769-21.089,7.268
			C1270.338-2350.141,1270.4-2335.137,1280-2334.5L1280-2334.5z"/>
	</g>
	<g display="inline">
		<path fill="none" stroke="#414042" stroke-width="2" stroke-miterlimit="10" d="M1188-1501
			c2.872,51.73,25.088,99.234,41.768,147.494c3.14,9.084,17.633,5.18,14.465-3.987c-16.174-46.796-38.447-93.348-41.232-143.506
			C1202.466-1510.617,1187.463-1510.669,1188-1501L1188-1501z"/>
	</g>
	<g display="inline">
		<path fill="none" stroke="#414042" stroke-width="2" stroke-miterlimit="10" d="M1217.785-1482.024c4.021-2.903,8.664-4.648,13-7
			c3.59-1.947,4.707-6.82,2.691-10.261c-2.114-3.608-6.668-4.641-10.262-2.691c-4.336,2.352-8.979,4.097-13,7
			c-3.308,2.388-4.907,6.478-2.691,10.261C1209.44-1481.443,1214.464-1479.626,1217.785-1482.024L1217.785-1482.024z"/>
	</g>
	<g display="inline">
		<path fill="none" stroke="#414042" stroke-width="2" stroke-miterlimit="10" d="M1260-1503c7.221-0.158,17.503-4.077,24.215-0.524
			c8.542,4.521,16.122-8.426,7.57-12.952c-10.278-5.44-20.892-1.762-31.785-1.524C1250.342-1517.789,1250.321-1502.788,1260-1503
			L1260-1503z"/>
	</g>
	<g display="inline">
		<path fill="none" stroke="#414042" stroke-width="2" stroke-miterlimit="10" d="M1227.696-1474.197
			c6.409,7.055,14.501,11.995,21.929,17.85c7.396,5.83,14.221,12.31,22.021,17.63c13.446,9.17,30.117,12.566,45.977,8.942
			c14.247-3.255,25.954-13.316,30.779-27.1c2.636-7.528,2.639-17.057,0.141-24.597c-1.472-4.443-4.363-8.17-7.739-11.333
			c-1.204-1.127-3.544-2.852-6.449-4.217c-3.977-1.87-7.493-2.365-10.658,0.217c-0.078,0.064-0.157,0.128-0.236,0.193
			c-2.647,2.161-2.643,6.332-1.173,9.089c1.251,2.346,3.561,3.505,5.844,4.585c2.542,1.203,4.069,2.377,5.574,4.817
			c2.906,4.712,1.77,12.265,0.233,17.257c-3.184,10.346-13.86,15.593-23.753,17.317c-12.483,2.176-24.761-3.471-34.555-10.664
			c-6.332-4.65-11.99-10.181-18.231-14.953c-6.575-5.026-13.493-9.473-19.096-15.641
			C1231.786-1491.978,1221.21-1481.338,1227.696-1474.197L1227.696-1474.197z"/>
	</g>
	<g display="inline">
		<path fill="none" stroke="#414042" stroke-width="2" stroke-miterlimit="10" d="M953-1469.5
			c33.434,0.035,66.831,1.782,100.256,2.348c16.69,0.283,33.334,0.962,50.017,1.385c16.339,0.415,49.03-2.733,49.228-2.733
			c9.673,0,9.146-14.721-0.5-15c-15.659-0.453-31.146,2.881-46.828,2.766c-16.643-0.123-33.295-1.156-49.947-1.387
			c-34.084-0.473-68.133-2.343-102.225-2.378C943.326-1484.51,943.327-1469.51,953-1469.5L953-1469.5z"/>
	</g>
	<g display="inline">
		<path fill="none" stroke="#414042" stroke-width="2" stroke-miterlimit="10" d="M398.197-1614.697
			c18.029,17.421,39.927,30.215,57.632,47.996c9.782,9.825,18.181,21.098,27.565,31.32c4.085,4.449,8.09,8.804,11.826,13.552
			c3.343,4.248,6.823,8.458,11.494,11.305c8.283,5.048,15.814-7.928,7.57-12.952c-3.819-2.328-6.622-6.627-9.344-10.085
			c-3.434-4.364-7.173-8.349-10.94-12.426c-9.434-10.21-17.883-21.362-27.565-31.32c-17.485-17.982-39.615-30.586-57.632-47.996
			C401.848-1632.024,391.23-1621.428,398.197-1614.697L398.197-1614.697z"/>
	</g>
	<g display="inline">
		<path fill="none" stroke="#414042" stroke-width="2" stroke-miterlimit="10" d="M488.994-1483.268
			c19.531-4.42,38.854-9.63,58-15.5c9.22-2.827,5.285-17.307-3.988-14.464c-19.145,5.87-38.468,11.08-58,15.5
			C475.573-1495.597,479.574-1481.136,488.994-1483.268L488.994-1483.268z"/>
	</g>
	<g display="inline">
		<path fill="none" stroke="#414042" stroke-width="2" stroke-miterlimit="10" d="M585-1507.5
			c18.873,0.208,40.876,7.6,55.283,19.978c15.229,13.083,8.918,36.347,2.984,52.529c-3.338,9.102,11.163,12.991,14.465,3.987
			c7.705-21.012,12.139-47.573-4.906-65.324c-8.329-8.675-20.063-14.121-31.062-18.467c-11.588-4.579-24.271-7.564-36.765-7.702
			C575.323-1522.606,575.333-1507.606,585-1507.5L585-1507.5z"/>
	</g>
	<g display="inline">
		<path fill="none" stroke="#414042" stroke-width="2" stroke-miterlimit="10" d="M521.024-1479.215
			c10.999,19.846,24.891,39.232,41.032,55.235c16.131,15.991,38.246,28.109,61.438,22.211c9.369-2.382,5.393-16.85-3.988-14.464
			c-19.019,4.836-36.395-7.69-49.055-20.577c-14.346-14.603-26.573-32.111-36.476-49.976
			C529.287-1495.246,516.331-1487.682,521.024-1479.215L521.024-1479.215z"/>
	</g>
	<g display="inline">
		<path fill="none" stroke="#414042" stroke-width="2" stroke-miterlimit="10" d="M265-1473.5
			c30.728,1.351,61.437,3.311,92.208,3.152c31.886-0.164,63.451-5.652,95.292-5.652c9.673,0,9.673-15,0-15
			c-15.673,0-31.261,1.659-46.845,3.139c-16.119,1.53-32.256,2.383-48.447,2.513c-30.766,0.248-61.488-1.801-92.208-3.152
			C255.325-1488.925,255.366-1473.924,265-1473.5L265-1473.5z"/>
	</g>
	<g display="inline">
		<path fill="none" stroke="#414042" stroke-width="2" stroke-miterlimit="10" d="M-196.732-1462.506
			c2.43,8.744,7.604,15.972,12.938,23.161c5.919,7.976,10.522,16.278,14.34,25.452c7.183,17.254,12.979,37.295,28.475,49.087
			c11.806,8.984,27.128,11.568,41.643,10.758c7.739-0.432,15.463-1.884,22.918-3.967c7.06-1.973,15.081-4.377,20.721-9.182
			c7.375-6.282-3.289-16.84-10.606-10.606c-3.706,3.157-10.725,4.381-15.288,5.656c-6.216,1.737-12.557,2.81-18.998,3.169
			c-12.065,0.673-24.867-1.57-34.039-9.966c-5.347-4.895-8.595-11.727-11.67-18.167c-4.011-8.396-7.163-17.197-10.79-25.762
			c-3.45-8.147-7.574-15.633-12.806-22.765c-4.77-6.501-10.178-12.957-12.374-20.857
			C-184.854-1475.801-199.327-1471.843-196.732-1462.506L-196.732-1462.506z"/>
	</g>
	<g display="inline">
		<path fill="none" stroke="#414042" stroke-width="2" stroke-miterlimit="10" d="M-30.506-1382.768
			c24.071-5.686,41.78-26.529,49.232-49.358c7.813-23.939,0.469-51.502-13.241-71.824c-6.705-9.939-15.47-18.865-26.205-24.376
			c-10.279-5.278-21.805-7.361-33.237-8.098c-22.855-1.474-46.317,3.503-68.107,10.003c-1.816,0.542-3.625,1.112-5.43,1.69
			c-9.176,2.936-5.252,17.42,3.987,14.464c18.881-6.041,38.43-10.562,58.299-11.286c9.858-0.36,19.667,0.429,29.161,3.187
			c9.859,2.864,17.529,8.743,24.246,16.365c13.865,15.732,21.88,39.818,17.485,60.598c-4.256,20.12-19.715,39.338-40.179,44.172
			C-43.906-1395.009-39.914-1380.546-30.506-1382.768L-30.506-1382.768z"/>
	</g>
	<g display="inline">
		<path fill="none" stroke="#414042" stroke-width="2" stroke-miterlimit="10" d="M-454-1472.5
			c16.431-0.053,32.813-1.327,49.219-2.067c16.263-0.734,32.492-0.256,48.749,0.354c32.038,1.201,64.679,1.929,96.532-2.286
			c4.052-0.536,7.5-3.006,7.5-7.5c0-3.682-3.436-8.038-7.5-7.5c-31.854,4.215-64.494,3.482-96.532,2.286
			c-16.264-0.607-32.479-1.037-48.749-0.354c-16.411,0.689-32.785,2.015-49.219,2.067
			C-463.671-1487.469-463.674-1472.469-454-1472.5L-454-1472.5z"/>
	</g>
	<g display="inline">
		<path fill="none" stroke="#414042" stroke-width="2" stroke-miterlimit="10" d="M-223.006-1482.768
			c18.836-4.955,38.545-6.03,57-12.5c9.066-3.178,5.166-17.673-3.987-14.464c-18.456,6.47-38.164,7.545-57,12.5
			C-236.341-1494.773-232.372-1480.305-223.006-1482.768L-223.006-1482.768z"/>
	</g>
	<g display="inline">
		<path fill="none" stroke="#414042" stroke-width="2" stroke-miterlimit="10" d="M1761.006-2302.768
			c13.525,3.218,27.324,0.919,40.994,0.268c17.069-0.814,34.098-1.449,51.188-1.758c16.297-0.294,32.527-0.509,48.827-0.124
			c8.411,0.199,16.821,0.387,25.234,0.371c7.703-0.015,16.212,0.51,23.745-1.257c9.415-2.209,5.422-16.672-3.988-14.465
			c-6.693,1.57-14.826,0.712-21.688,0.725c-7.769,0.015-15.538-0.189-23.304-0.374c-16.3-0.387-32.53-0.177-48.827,0.124
			c-15.758,0.291-31.516,0.537-47.25,1.494c-13.272,0.808-27.842,3.65-40.943,0.532
			C1755.589-2319.47,1751.598-2305.007,1761.006-2302.768L1761.006-2302.768z"/>
	</g>
	<g display="inline">
		<path fill="none" stroke="#414042" stroke-width="2" stroke-miterlimit="10" d="M1982-2310
			c21.69-0.201,42.443-6.441,62.994-12.768c9.215-2.838,5.282-17.318-3.988-14.465c-19.258,5.93-38.674,12.044-59.006,12.232
			C1972.332-2324.91,1972.323-2309.91,1982-2310L1982-2310z"/>
	</g>
	<g display="inline">
		<path fill="none" stroke="#414042" stroke-width="2" stroke-miterlimit="10" d="M2078.494-2335.268
			c26.723-3.873,48.178-20.386,66.809-38.929c9.398-9.353,19.215-18.328,31.281-24.101c12.244-5.858,24.941-3.749,36.131,3.274
			c9.545,5.991,19.431,12.375,25.756,21.926c8.034,12.133,9.461,26.953,8.029,41.098c-1.219,12.039-7.044,23.27-13.336,33.383
			c-6.821,10.962-15.192,20.888-24.128,30.174c-9.981,10.374-21.442,18.807-32.339,28.14c-7.358,6.302,3.303,16.862,10.605,10.606
			c10.532-9.02,21.565-17.208,31.332-27.105c9.168-9.291,17.521-19.447,24.867-30.235c15.508-22.774,23.053-49.517,15.533-76.701
			c-3.438-12.429-10.878-23.437-20.777-31.602c-9.949-8.206-21.64-16.396-34.13-19.925c-27.291-7.708-51.513,12.624-69.431,30.461
			c-17,16.922-35.813,31.538-60.191,35.071c-4.053,0.588-6.219,5.661-5.238,9.227
			C2070.452-2336.201,2074.451-2334.682,2078.494-2335.268L2078.494-2335.268z"/>
	</g>
	<g display="inline">
		<path fill="none" stroke="#414042" stroke-width="2" stroke-miterlimit="10" d="M2145.715-2227.476
			c-3.639,2.568-8.944,0.815-12.933-0.243c-5.235-1.389-10.339-3.347-15.468-5.081c-14.832-5.016-30.669-7.584-46.314-7.7
			c-9.676-0.071-9.669,14.929,0,15c16.153,0.12,31.632,3.461,46.865,8.685c10.538,3.614,25.121,9.558,35.42,2.291
			C2161.121-2220.053,2153.639-2233.067,2145.715-2227.476L2145.715-2227.476z"/>
	</g>
	<g display="inline">
		<path fill="none" stroke="#414042" stroke-width="2" stroke-miterlimit="10" d="M2009.523-1509.285
			c-7.919,10.518-1.742,25.876,6.673,34.088c6.925,6.757,17.539-3.842,10.607-10.606c-3.925-3.83-8.143-10.845-4.327-15.912
			c2.465-3.274,0.527-8.375-2.691-10.261C2015.948-1514.224,2011.978-1512.544,2009.523-1509.285L2009.523-1509.285z"/>
	</g>
	<g display="inline">
		<path fill="none" stroke="#414042" stroke-width="2" stroke-miterlimit="10" d="M2068.506-1508.768
			c7.156,2.063,11.586,7.097,9.479,14.753c-2.143,7.787-12.075,12.926-18.271,17.039c-8.018,5.322-0.515,18.319,7.57,12.952
			c10.735-7.126,23.088-15.011,25.781-28.618c2.92-14.745-6.869-26.642-20.572-30.59
			C2063.178-1525.917,2059.229-1511.441,2068.506-1508.768L2068.506-1508.768z"/>
	</g>
	<g display="inline">
		<path fill="none" stroke="#414042" stroke-width="2" stroke-miterlimit="10" d="M2046.197-1452.697
			c12.015,12.888,27.311,21.849,41.347,32.274c14.919,11.081,29.95,22.149,46.671,30.399c8.642,4.264,16.245-8.672,7.57-12.952
			c-16.188-7.987-30.794-18.621-45.248-29.342c-13.49-10.008-28.195-18.608-39.734-30.985
			C2050.194-1470.392,2039.61-1459.761,2046.197-1452.697L2046.197-1452.697z"/>
	</g>
	<g display="inline">
		<path fill="none" stroke="#414042" stroke-width="2" stroke-miterlimit="10" d="M1764-1470c39.748,0,79.502-0.014,119.235-1.24
			c19.354-0.597,38.595-0.207,57.935,0.706c9.62,0.453,19.239,0.929,28.865,1.241c10.133,0.328,20.371-0.189,30.465,0.793
			c9.627,0.938,9.537-14.071,0-15c-9.455-0.921-19.04-0.48-28.531-0.736c-9.631-0.26-19.256-0.747-28.879-1.207
			c-19.979-0.955-39.859-1.434-59.854-0.796c-39.73,1.267-79.489,1.24-119.235,1.24C1754.327-1485,1754.327-1470,1764-1470
			L1764-1470z"/>
	</g>
</g>
<g id="Layer_4">
	<g>
		<path fill="none" d="M388.191,285.555c-5.576,2.127-11.215,4.059-16.9,5.824c0.295,0.7,0.59,1.397,0.885,2.09
			c2.314,5.447,4.273,10.963,6.121,16.522c2.992,1.085,6.01,1.913,8.936,2.458c7.459,1.389,15.264,0.715,22.871-0.756
			c-7.203-8.428-13.33-17.762-19.27-27.186C389.953,284.857,389.076,285.217,388.191,285.555z"/>
		<path fill="none" d="M472.68,309.551c0.131,0.117,0.23,0.209,0.313,0.288c0.238-0.515,0.885-2.049,0.602-1.24
			c0.156-0.426,0.303-0.854,0.441-1.286c-0.902,0.287-1.803,0.581-2.705,0.877C471.762,308.662,472.205,309.123,472.68,309.551z"/>
		<path fill="none" d="M479.822,323.926c-6.957,3.414-13.951,0.494-18.932-4.949c-1.609-1.761-3.09-3.619-4.498-5.531
			c-5.061,1.854-10.146,3.675-15.271,5.375c8.084,4.763,17.182,7.599,27.453,7.35c8.762-0.213,18.408-2.199,24.535-9
			c4.117-4.568,6.234-10.769,6.727-16.922c-3.135,0.721-6.26,1.5-9.375,2.313C489.336,310.631,487.02,320.393,479.822,323.926z"/>
		<path fill="none" d="M493.211,281.174c-0.475-0.426-0.977-0.842-1.512-1.252c0.084,2.125,0.094,4.25,0.063,6.373
			c1.621-0.396,3.244-0.783,4.873-1.152C495.703,283.736,494.58,282.403,493.211,281.174z"/>
		<path fill="none" d="M356.746,295.504c0.104,0.126,0.207,0.252,0.313,0.377c-0.057-0.138-0.113-0.274-0.172-0.412
			C356.84,295.48,356.793,295.492,356.746,295.504z"/>
		<path fill="none" d="M449.441,278.843c4.482,4.839,8.664,10.007,12.381,15.462c0.217,0.318,0.426,0.645,0.639,0.97
			c0.697-0.257,1.396-0.515,2.096-0.771c3.953-1.449,7.973-2.783,12.035-4.032c0.25-5.753,0.166-11.548-0.385-17.284
			c-10.998-2.65-23.189-3.025-34.736-2.047C444.254,273.58,446.932,276.135,449.441,278.843z"/>
		<path fill="none" d="M398.553,265.146c1.248-0.485,2.508-0.94,3.775-1.381c-2.947-1.278-5.949-2.422-9.002-3.415
			c1.201,1.818,2.355,3.658,3.482,5.481C397.391,265.603,397.971,265.373,398.553,265.146z"/>
		<path fill="none" d="M350.188,275.723c-0.158,2.061-0.078,4.049,0.209,5.965c0.434-0.107,0.869-0.209,1.301-0.317
			C351.129,279.504,350.631,277.62,350.188,275.723z"/>
		<path fill="none" d="M363.703,267.225c0.441,3.394,1.25,6.775,2.277,10.116c5.633-1.786,11.143-3.808,16.619-5.924
			c-3.127-4.938-7.91-12.641-12.625-15.2c-1.676,0.061-3.332,0.243-4.955,0.575c-0.26,0.292-0.484,0.599-0.662,0.948
			C363.148,260.145,363.281,263.968,363.703,267.225z"/>
		<path fill="none" d="M440.811,291.611c-5.871-6.504-12.531-12.368-19.771-17.396c-3.164,0.675-6.307,1.445-9.41,2.348
			c-2.281,0.662-4.553,1.369-6.789,2.176c2.523,3.963,5.104,7.889,7.787,11.738c4.211,6.039,8.889,11.889,14.094,17.047
			c7.084-2.057,14.066-4.408,21.01-6.884C445.6,297.505,443.367,294.441,440.811,291.611z"/>
		<path fill="none" d="M474.213,310.555c0.014,0.006,0.027,0.013,0.041,0.018C474.646,310.613,474.826,310.565,474.213,310.555z"/>
		<path fill="#00A79D" d="M472.02,311.396c0.188-0.267,0.311-0.447,0.393-0.569c-0.002,0-0.004,0.001-0.006,0.001
			C472.279,311.019,472.15,311.208,472.02,311.396z"/>
		<path fill="#00A79D" d="M473.594,308.599c-0.025,0.073-0.055,0.158-0.096,0.271C473.531,308.779,473.563,308.688,473.594,308.599
			c0.283-0.809-0.363,0.726-0.602,1.24c0.088,0.083,0.148,0.146,0.193,0.194c0.063,0.037,0.123,0.074,0.205,0.125
			c0.178,0.11,0.563,0.278,0.822,0.396c0.613,0.011,0.434,0.059,0.041,0.018c0.293,0.135,0.383,0.188-0.287-0.02
			c-0.125,0-0.264,0-0.432,0.003c1.564-0.026-1.713,0.567-0.285,0.011c-0.473,0.184-0.715,0.249-0.838,0.261
			c-0.082,0.122-0.205,0.303-0.393,0.569c0.131-0.188,0.26-0.378,0.387-0.568c-0.012,0.001-0.027,0.004-0.037,0.004
			c-0.078,0.1-0.234,0.267-0.523,0.533c0.133-0.121,0.34-0.363,0.492-0.538c-0.117-0.024,0.102-0.179,0.096-0.108
			c0.086-0.095,0.125-0.131,0.076-0.045c0.148-0.229,0.289-0.461,0.418-0.701c0.002-0.003,0.004-0.009,0.006-0.012
			c-0.152-0.115-0.236-0.205,0.029-0.059c0.008-0.018,0.02-0.041,0.029-0.063c-0.082-0.079-0.182-0.171-0.313-0.288
			c-0.475-0.428-0.918-0.889-1.35-1.361c-3.549,1.164-7.086,2.369-10.602,3.664c-1.443,0.531-2.889,1.063-4.336,1.592
			c1.408,1.912,2.889,3.771,4.498,5.531c4.98,5.443,11.975,8.363,18.932,4.949c7.197-3.533,9.514-13.295,10.639-21.365
			c-5.51,1.436-10.984,3.021-16.426,4.752C473.896,307.744,473.75,308.173,473.594,308.599z"/>
		<path fill="#00A79D" d="M471.33,308.189c-0.359-0.396-0.713-0.798-1.061-1.2c-3.047-3.52-5.26-7.806-7.809-11.715
			c-4.906,1.804-9.811,3.61-14.73,5.365c2.898,4.267,5.609,8.665,8.662,12.806c1.447-0.529,2.893-1.061,4.336-1.592
			C464.244,310.559,467.781,309.354,471.33,308.189z"/>
		<path fill="#00A79D" d="M440.811,291.611c2.557,2.83,4.789,5.894,6.92,9.028c4.92-1.755,9.824-3.562,14.73-5.365
			c-0.213-0.325-0.422-0.651-0.639-0.97c-3.717-5.455-7.898-10.623-12.381-15.462c-2.51-2.708-5.188-5.263-7.971-7.702
			c-2.813,0.239-5.588,0.557-8.297,0.941c-4.063,0.576-8.117,1.275-12.135,2.133C428.279,279.243,434.939,285.107,440.811,291.611z"
			/>
		<path fill="#00A79D" d="M476.482,292.704c-0.215,3.697-0.525,6.294-1.164,9.589c-0.299,1.539-0.691,3.057-1.135,4.561
			c-0.045,0.154-0.098,0.306-0.148,0.459c5.441-1.73,10.916-3.316,16.426-4.752c0.258-1.854,0.453-3.62,0.631-5.199
			c0.41-3.654,0.617-7.355,0.67-11.066c-5.115,1.25-10.178,2.643-15.17,4.177C476.559,291.217,476.525,291.961,476.482,292.704z"/>
		<path fill="#00A79D" d="M477.5,216.209c-5.451-17.014-12.973-33.959-25.615-46.885c-6.771-6.924-17.371,3.689-10.607,10.606
			c16.637,17.01,22.846,41.903,28.484,64.291c1.018,4.044,2.313,8.673,3.463,13.163c5.688,0.952,11.254,2.387,16.371,4.462
			C486.68,246.54,482.242,231.018,477.5,216.209z"/>
		<path fill="#00A79D" d="M368.377,255.537c-0.834-0.229-1.592-0.123-1.754-0.025c-0.697,0.418-1.203,0.828-1.604,1.28
			c1.623-0.332,3.279-0.515,4.955-0.575C369.439,255.928,368.906,255.684,368.377,255.537z"/>
		<path fill="#00A79D" d="M473.594,308.599c-0.031,0.09-0.063,0.181-0.096,0.271C473.539,308.757,473.568,308.672,473.594,308.599z"
			/>
		<path fill="#00A79D" d="M476.592,290.472c4.992-1.534,10.055-2.927,15.17-4.177c0.031-2.123,0.021-4.248-0.063-6.373
			c-1.564-1.195-3.42-2.328-5.758-3.445c-2.049-0.979-5.197-2.128-8.264-2.932c-0.486-0.128-0.98-0.24-1.471-0.357
			C476.758,278.924,476.842,284.719,476.592,290.472z"/>
		<path fill="#00A79D" d="M471.33,308.189c0.902-0.296,1.803-0.59,2.705-0.877c0.051-0.153,0.104-0.305,0.148-0.459
			c0.443-1.504,0.836-3.021,1.135-4.561c0.639-3.295,0.949-5.892,1.164-9.589c0.043-0.743,0.076-1.487,0.109-2.232
			c-4.063,1.249-8.082,2.583-12.035,4.032c-0.699,0.256-1.398,0.514-2.096,0.771c2.549,3.909,4.762,8.195,7.809,11.715
			C470.617,307.392,470.971,307.794,471.33,308.189z"/>
		<path fill="#00A79D" d="M473.967,310.553c0.67,0.207,0.58,0.154,0.287,0.02c-0.051-0.005-0.105-0.012-0.162-0.02
			C474.055,310.553,474.01,310.553,473.967,310.553z"/>
		<path fill="#00A79D" d="M473.65,310.453c0.121,0.038,0.225,0.07,0.316,0.1c0.043,0,0.088,0,0.125,0
			C473.951,310.531,473.797,310.5,473.65,310.453z"/>
		<path fill="#00A79D" d="M472.434,310.719c0,0.02-0.018,0.053-0.064,0.113c0.01,0,0.025-0.003,0.037-0.004
			c0.035-0.052,0.07-0.103,0.104-0.154C472.559,310.588,472.52,310.624,472.434,310.719z"/>
		<path fill="#00A79D" d="M472.406,310.828c0.002,0,0.004-0.001,0.006-0.001c0.047-0.071,0.078-0.121,0.098-0.153
			C472.477,310.726,472.441,310.776,472.406,310.828z"/>
		<path fill="#00A79D" d="M471.846,311.365c0.289-0.267,0.445-0.434,0.523-0.533c-0.014,0-0.021-0.003-0.031-0.005
			C472.186,311.002,471.979,311.244,471.846,311.365z"/>
		<path fill="#00A79D" d="M474.254,310.572c-0.014-0.005-0.027-0.012-0.041-0.018c-0.039-0.001-0.076-0.002-0.121-0.002
			C474.148,310.561,474.203,310.567,474.254,310.572z"/>
		<path fill="#00A79D" d="M472.934,309.961c0.008-0.016,0.018-0.034,0.029-0.059C472.697,309.756,472.781,309.846,472.934,309.961z"
			/>
		<path fill="#00A79D" d="M472.338,310.827c0.037-0.042,0.068-0.077,0.096-0.108C472.439,310.648,472.221,310.803,472.338,310.827z"
			/>
		<path fill="#00A79D" d="M472.338,310.827c0.01,0.002,0.018,0.005,0.031,0.005c0.047-0.061,0.064-0.094,0.064-0.113
			C472.406,310.75,472.375,310.785,472.338,310.827z"/>
		<path fill="#00A79D" d="M473.186,310.033c-0.045-0.049-0.105-0.111-0.193-0.194c-0.01,0.022-0.021,0.046-0.029,0.063
			C473.02,309.934,473.094,309.979,473.186,310.033z"/>
		<path fill="#00A79D" d="M472.934,309.961c-0.002,0.003-0.004,0.009-0.006,0.012c-0.129,0.24-0.27,0.473-0.418,0.701
			c-0.02,0.032-0.051,0.082-0.098,0.153c0.123-0.012,0.365-0.077,0.838-0.261c-1.428,0.557,1.85-0.037,0.285-0.011
			c0.168-0.003,0.307-0.003,0.432-0.003c-0.092-0.029-0.195-0.062-0.316-0.1c0.146,0.047,0.301,0.078,0.441,0.1
			c0.045,0,0.082,0.001,0.121,0.002c-0.26-0.118-0.645-0.286-0.822-0.396c-0.082-0.051-0.143-0.088-0.205-0.125
			C473.412,310.28,473.129,310.107,472.934,309.961z"/>
		<path fill="#00A79D" d="M472.934,309.961c0.195,0.146,0.479,0.319,0.252,0.072c-0.092-0.055-0.166-0.1-0.223-0.131
			C472.951,309.927,472.941,309.945,472.934,309.961z"/>
		<path fill="#00A79D" d="M410.104,311.693c-7.607,1.471-15.412,2.145-22.871,0.756c-2.926-0.545-5.943-1.373-8.936-2.458
			c1.744,5.253,3.389,10.545,5.129,15.86c0.129,0.393,0.262,0.783,0.391,1.176c11.602,2.246,23.443,0.491,34.902-1.953
			c1.293-0.276,2.576-0.586,3.861-0.893c-0.291-0.244-0.586-0.484-0.875-0.733C417.5,319.82,413.672,315.866,410.104,311.693z"/>
		<path fill="#00A79D" d="M357.059,295.881c-0.105-0.125-0.209-0.251-0.313-0.377c-5.328,1.366-10.691,2.591-16.082,3.686
			c5.682,9.467,15.215,16.875,25.467,21.831c-2.49-7.779-4.996-15.424-8.074-22.744C357.721,297.48,357.391,296.68,357.059,295.881z
			"/>
		<path fill="#00A79D" d="M447.73,300.64c-6.943,2.476-13.926,4.827-21.01,6.884c4.406,4.365,9.193,8.229,14.4,11.297
			c5.125-1.7,10.211-3.521,15.271-5.375C453.34,309.305,450.629,304.906,447.73,300.64z"/>
		<path fill="#00A79D" d="M350.188,275.723c-0.418-1.787-0.795-3.584-1.072-5.404c-1.391-9.084-0.766-19.369,6.914-25.604
			c0.873-0.709,1.766-1.307,2.67-1.827c-17.59,5.022-25.633,24.614-23.127,42.079c4.967-0.975,9.912-2.066,14.824-3.279
			C350.109,279.771,350.029,277.783,350.188,275.723z"/>
		<path fill="#00A79D" d="M393.326,260.35c3.053,0.993,6.055,2.137,9.002,3.415c7.004-2.434,14.295-4.193,21.664-5.441
			c-1.227-0.754-2.461-1.493-3.703-2.21c-14.174-8.165-31.016-14.551-47.715-14.737c2.877,0.869,5.68,2.392,8.273,4.467
			C385.799,249.803,389.775,254.98,393.326,260.35z"/>
		<path fill="#00A79D" d="M730.576,282.396c-29.529-6.214-59.842-5.004-89.824-4.774c-29.873,0.229-59.574-2.533-89.441-0.352
			c-13.004,0.949-26.273,2.498-39.424,4.814c1.365,3.188,2.33,6.721,2.773,10.669c0.164,1.472,0.248,2.938,0.27,4.399
			c24.703-4.504,49.883-6.326,75.135-5.855c11.521,0.215,23.014,1.088,34.535,1.285c11.457,0.195,22.92-0.032,34.375-0.145
			c22.574-0.223,45.426-0.246,67.613,4.422C736.023,298.846,740.039,284.387,730.576,282.396z"/>
		<path fill="#00A79D" d="M491.092,297.361c-0.178,1.579-0.373,3.345-0.631,5.199c3.115-0.813,6.24-1.592,9.375-2.313
			c0.158-1.971,0.152-3.937-0.012-5.842c-0.289-3.33-1.326-6.454-3.189-9.264c-1.629,0.369-3.252,0.756-4.873,1.152
			C491.709,290.006,491.502,293.707,491.092,297.361z"/>
		<path fill="#C2B59B" d="M493.109,317.17c-6.127,6.801-15.773,8.787-24.535,9c-10.271,0.249-19.369-2.587-27.453-7.35
			c-6.113,2.029-12.285,3.866-18.541,5.361c17.551,14.697,40.973,21.188,63.303,14.379c18.266-5.568,29.328-22.852,29.047-41.408
			c-5.051,0.921-10.086,1.945-15.094,3.096C499.344,306.401,497.227,312.602,493.109,317.17z"/>
		<path fill="#C2B59B" d="M335.572,284.967c-5.119,1.006-10.264,1.898-15.418,2.689c-57.949,8.893-117.355,3.303-175.363-1.967
			c-5.736-0.521-11.473-1.045-17.209-1.563c-9.637-0.867-9.555,14.141,0,15c58.283,5.248,116.99,11.405,175.484,5.65
			c12.619-1.242,25.184-3.068,37.598-5.588c-2.271-3.783-3.936-7.891-4.773-12.305C335.77,286.249,335.666,285.609,335.572,284.967z
			"/>
		<path fill="#C2B59B" d="M476.207,273.188c-0.123-1.271-0.258-2.538-0.428-3.801c-0.461-3.427-1.439-7.648-2.555-12.002
			c-10.822-1.812-22.094-1.864-31.594-1.164c-5.854,0.432-11.77,1.108-17.639,2.103c6.148,3.782,12.039,8.052,17.479,12.817
			C453.018,270.162,465.209,270.537,476.207,273.188z"/>
		<path fill="#C2B59B" d="M366.131,321.021c0.938,2.924,1.871,5.865,2.83,8.817c9.586,29.48,20.924,58.463,34.535,86.324
			c0.531,1.086,1.068,2.17,1.609,3.25c4.311,8.662,17.248,1.061,12.953-7.57c-13.609-27.344-24.695-55.821-34.242-84.814
			c-0.582-0.112-1.164-0.226-1.746-0.359C376.852,325.472,371.398,323.566,366.131,321.021z"/>
		<path fill="#C2B59B" d="M382.6,271.417c4.736-1.831,9.453-3.721,14.209-5.586c-1.127-1.823-2.281-3.663-3.482-5.481
			c-3.016-0.98-6.072-1.832-9.174-2.514c-4.592-1.007-9.451-1.787-14.178-1.619C374.689,258.776,379.473,266.479,382.6,271.417z"/>
		<path fill="#C2B59B" d="M396.809,265.831c0.309,0.499,0.613,0.997,0.918,1.492c2.346,3.816,4.703,7.632,7.113,11.415
			c2.236-0.807,4.508-1.514,6.789-2.176c3.104-0.902,6.246-1.673,9.41-2.348c-5.883-4.086-12.152-7.605-18.711-10.45
			c-1.268,0.44-2.527,0.896-3.775,1.381C397.971,265.373,397.391,265.603,396.809,265.831z"/>
		<path fill="#C2B59B" d="M396.809,265.831c-4.756,1.865-9.473,3.755-14.209,5.586c0.158,0.25,0.316,0.502,0.467,0.737
			c2.604,4.089,5.17,8.229,7.768,12.354c2.445-0.971,4.879-1.97,7.295-3.005c1.271-0.544,2.543-1.089,3.805-1.651
			c-1.621,0.721,0.398-0.158,0.607-0.242c0.76-0.304,1.527-0.593,2.299-0.871c-2.41-3.783-4.768-7.599-7.113-11.415
			C397.422,266.828,397.117,266.33,396.809,265.831z"/>
		<path fill="#C2B59B" d="M362.684,278.367c1.105-0.329,2.201-0.679,3.297-1.026c-1.027-3.341-1.836-6.723-2.277-10.116
			c-0.422-3.257-0.555-7.08,0.654-9.484c0.178-0.35,0.402-0.656,0.662-0.948c-1.273,0.261-2.525,0.606-3.746,1.069
			c-6.613,2.508-10.344,9.928-11.055,17.33c-0.018,0.179-0.018,0.354-0.031,0.531c0.443,1.897,0.941,3.781,1.51,5.647
			C355.379,280.443,359.043,279.447,362.684,278.367z"/>
		<path fill="#C2B59B" d="M362.684,278.367c-3.641,1.08-7.305,2.076-10.986,3.003c1.461,4.786,3.281,9.474,5.189,14.099
			c4.834-1.242,9.635-2.609,14.404-4.09c-1.918-4.539-3.838-9.246-5.311-14.038C364.885,277.688,363.789,278.038,362.684,278.367z"
			/>
		<path fill="#C2B59B" d="M382.6,271.417c-5.477,2.116-10.986,4.138-16.619,5.924c1.473,4.792,3.393,9.499,5.311,14.038
			c5.686-1.766,11.324-3.697,16.9-5.824c0.885-0.338,1.762-0.697,2.643-1.047c-2.598-4.124-5.164-8.265-7.768-12.354
			C382.916,271.919,382.758,271.667,382.6,271.417z"/>
		<path fill="#C2B59B" d="M351.697,281.37c-0.432,0.108-0.867,0.21-1.301,0.317c0.777,5.172,3.074,9.801,6.35,13.816
			c0.047-0.012,0.094-0.023,0.141-0.035C354.979,290.844,353.158,286.156,351.697,281.37z"/>
		<path fill="#C2B59B" d="M371.291,291.379c-4.77,1.48-9.57,2.848-14.404,4.09c0.059,0.138,0.115,0.274,0.172,0.412
			c5.367,6.396,13.203,11.198,21.238,14.11c-1.848-5.56-3.807-11.075-6.121-16.522C371.881,292.776,371.586,292.079,371.291,291.379
			z"/>
		<path fill="#C2B59B" d="M412.627,290.477c-2.684-3.85-5.264-7.775-7.787-11.738c-0.771,0.278-1.539,0.567-2.299,0.871
			c-0.209,0.084-2.229,0.963-0.607,0.242c-1.262,0.563-2.533,1.107-3.805,1.651c-2.416,1.035-4.85,2.034-7.295,3.005
			c5.939,9.424,12.066,18.758,19.27,27.186c4.502-0.87,8.934-2.019,13.184-3.186c1.148-0.315,2.291-0.652,3.434-0.984
			C421.516,302.365,416.838,296.516,412.627,290.477z"/>
		<path fill="#C2B59B" d="M491.699,279.922c0.535,0.41,1.037,0.826,1.512,1.252c1.369,1.229,2.492,2.563,3.424,3.969
			c5.051-1.146,10.143-2.158,15.252-3.059c-4.209-9.824-12.402-16.227-22.291-20.237c0.053,0.274,0.113,0.549,0.164,0.823
			C490.816,268.318,491.469,274.112,491.699,279.922z"/>
		<path fill="#00A79D" d="M421.039,274.215c4.018-0.857,8.072-1.557,12.135-2.133c2.709-0.385,5.484-0.702,8.297-0.941
			c-5.439-4.766-11.33-9.035-17.479-12.817c-7.369,1.248-14.66,3.008-21.664,5.441C408.887,266.609,415.156,270.129,421.039,274.215
			z"/>
		<path fill="#00A79D" d="M476.207,273.188c0.49,0.117,0.984,0.229,1.471,0.357c3.066,0.804,6.215,1.953,8.264,2.932
			c2.338,1.117,4.193,2.25,5.758,3.445c-0.23-5.81-0.883-11.604-1.939-17.252c-0.051-0.274-0.111-0.549-0.164-0.823
			c-5.117-2.075-10.684-3.51-16.371-4.462c1.115,4.354,2.094,8.575,2.555,12.002C475.949,270.649,476.084,271.917,476.207,273.188z"
			/>
		<path fill="#C2B59B" d="M426.721,307.523c-1.143,0.332-2.285,0.669-3.434,0.984c-4.25,1.167-8.682,2.315-13.184,3.186
			c3.568,4.173,7.396,8.127,11.602,11.755c0.289,0.249,0.584,0.489,0.875,0.733c6.256-1.495,12.428-3.332,18.541-5.361
			C435.914,315.753,431.127,311.889,426.721,307.523z"/>
		<path fill="#C2B59B" d="M511.887,282.084c-5.109,0.9-10.201,1.913-15.252,3.059c1.863,2.81,2.9,5.934,3.189,9.264
			c0.164,1.905,0.17,3.871,0.012,5.842c5.008-1.15,10.043-2.175,15.094-3.096c-0.021-1.461-0.105-2.928-0.27-4.399
			C514.217,288.805,513.252,285.271,511.887,282.084z"/>
		<path fill="#C2B59B" d="M378.297,309.991c-8.035-2.912-15.871-7.715-21.238-14.11c0.332,0.799,0.662,1.6,0.998,2.396
			c3.078,7.32,5.584,14.965,8.074,22.744c5.268,2.546,10.721,4.451,15.939,5.647c0.582,0.134,1.164,0.247,1.746,0.359
			c-0.129-0.393-0.262-0.783-0.391-1.176C381.686,320.536,380.041,315.244,378.297,309.991z"/>
		<path fill="#00A79D" d="M349.115,270.318c0.277,1.82,0.654,3.617,1.072,5.404c0.014-0.178,0.014-0.353,0.031-0.531
			c0.711-7.402,4.441-14.822,11.055-17.33c1.221-0.463,2.473-0.809,3.746-1.069c0.4-0.452,0.906-0.862,1.604-1.28
			c0.162-0.098,0.92-0.203,1.754,0.025c0.529,0.146,1.063,0.391,1.598,0.68c4.727-0.168,9.586,0.612,14.178,1.619
			c3.102,0.682,6.158,1.533,9.174,2.514c-3.551-5.369-7.527-10.547-12.479-14.507c-2.594-2.075-5.396-3.598-8.273-4.467
			c-3.301-0.037-6.596,0.163-9.861,0.645c-1.391,0.205-2.727,0.499-4.014,0.867c-0.904,0.521-1.797,1.118-2.67,1.827
			C348.35,250.949,347.725,261.234,349.115,270.318z"/>
		<path fill="#00A79D" d="M350.396,281.688c-4.912,1.213-9.857,2.305-14.824,3.279c0.094,0.643,0.197,1.282,0.318,1.918
			c0.838,4.414,2.502,8.521,4.773,12.305c5.391-1.095,10.754-2.319,16.082-3.686C353.471,291.488,351.174,286.859,350.396,281.688z"
			/>
	</g>
</g>
<g id="Layer_5">
	<g>
		<path fill="none" stroke="#000000" stroke-miterlimit="10" d="M445.73,302.64c4.92-1.755,9.824-3.562,14.73-5.365"/>
		<path fill="none" stroke="#000000" stroke-miterlimit="10" d="M454.393,315.445c1.447-0.529,2.893-1.061,4.336-1.592
			c3.516-1.295,7.053-2.5,10.602-3.664"/>
		<path fill="none" stroke="#000000" stroke-miterlimit="10" d="M424.721,309.523c7.084-2.057,14.066-4.408,21.01-6.884"/>
		<path fill="none" stroke="#000000" stroke-miterlimit="10" d="M421.992,260.323c6.148,3.782,12.039,8.053,17.479,12.817"/>
		<path fill="none" stroke="#000000" stroke-miterlimit="10" d="M419.039,276.215c7.24,5.028,13.9,10.893,19.771,17.396
			c2.557,2.83,4.789,5.894,6.92,9.028"/>
		<path fill="none" stroke="#000000" stroke-miterlimit="10" d="M488.461,304.561c-1.125,8.07-3.441,17.832-10.639,21.365
			c-6.957,3.414-13.951,0.494-18.932-4.949c-1.609-1.761-3.09-3.619-4.498-5.531"/>
		<path fill="none" stroke="#000000" stroke-miterlimit="10" d="M471.225,259.385c-1.15-4.49-2.445-9.119-3.463-13.163
			c-5.639-22.388-11.848-47.281-28.484-64.291c-6.764-6.917,3.836-17.53,10.607-10.606c12.643,12.927,20.164,29.871,25.615,46.885
			c4.742,14.81,9.18,30.331,12.096,45.638"/>
		<path fill="none" stroke="#000000" stroke-miterlimit="10" d="M474.592,292.472c0.25-5.753,0.166-11.548-0.385-17.284"/>
		<path fill="none" stroke="#000000" stroke-miterlimit="10" d="M494.635,287.143c-1.629,0.369-3.252,0.756-4.873,1.152"/>
		<path fill="none" stroke="#000000" stroke-miterlimit="10" d="M474.207,275.188c-0.123-1.271-0.258-2.538-0.428-3.801
			c-0.461-3.427-1.439-7.648-2.555-12.002"/>
		<path fill="none" stroke="#000000" stroke-miterlimit="10" d="M488.461,304.561c0.258-1.854,0.453-3.62,0.631-5.199
			c0.41-3.654,0.617-7.355,0.67-11.066"/>
		<path fill="none" stroke="#000000" stroke-miterlimit="10" d="M497.836,302.249c-3.135,0.72-6.26,1.499-9.375,2.312"/>
		<path fill="none" stroke="#000000" stroke-miterlimit="10" d="M419.039,276.215c-5.883-4.086-12.152-7.605-18.711-10.45"/>
		<path fill="none" stroke="#000000" stroke-miterlimit="10" d="M512.93,299.152c24.703-4.504,49.883-6.326,75.135-5.855
			c11.521,0.215,23.014,1.088,34.535,1.285c11.457,0.195,22.92-0.032,34.375-0.146c22.574-0.222,45.426-0.245,67.613,4.423
			c9.436,1.986,13.451-12.473,3.988-14.464c-29.529-6.214-59.842-5.004-89.824-4.774c-29.873,0.229-59.574-2.533-89.441-0.352
			c-13.004,0.949-26.273,2.498-39.424,4.814"/>
		<path fill="none" stroke="#000000" stroke-miterlimit="10" d="M489.699,281.922c0.084,2.125,0.094,4.25,0.063,6.373"/>
		<path fill="none" stroke="#000000" stroke-miterlimit="10" d="M454.393,315.445c-5.061,1.854-10.146,3.675-15.271,5.375"/>
		<path fill="none" stroke="#000000" stroke-miterlimit="10" d="M489.699,281.922c-0.23-5.81-0.883-11.604-1.939-17.253
			c-0.051-0.273-0.111-0.548-0.164-0.822"/>
		<path fill="none" stroke="#000000" stroke-miterlimit="10" d="M472.035,309.313c0.051-0.153,0.104-0.305,0.148-0.459
			c0.443-1.504,0.836-3.021,1.135-4.561c0.639-3.294,0.949-5.892,1.164-9.589c0.043-0.743,0.076-1.487,0.109-2.232"/>
		<path fill="none" stroke="#000000" stroke-miterlimit="10" d="M363.018,258.792c-1.271,0.261-2.523,0.606-3.744,1.069
			c-6.613,2.508-10.344,9.928-11.055,17.33c-0.018,0.179-0.018,0.354-0.031,0.531"/>
		<path fill="none" stroke="#000000" stroke-miterlimit="10" d="M376.297,311.991c2.992,1.085,6.01,1.913,8.936,2.458
			c7.459,1.389,15.264,0.715,22.871-0.756"/>
		<path fill="none" stroke="#000000" stroke-miterlimit="10" d="M338.664,301.189c5.684,9.467,15.215,16.875,25.467,21.831"/>
		<path fill="none" stroke="#000000" stroke-miterlimit="10" d="M367.977,258.218c4.725-0.169,9.584,0.611,14.176,1.619
			c3.102,0.681,6.158,1.533,9.174,2.513"/>
		<path fill="none" stroke="#000000" stroke-miterlimit="10" d="M348.396,283.688c0.777,5.172,3.072,9.801,6.35,13.816"/>
		<path fill="none" stroke="#000000" stroke-miterlimit="10" d="M381.816,329.028c11.602,2.245,23.443,0.49,34.902-1.954
			c1.293-0.276,2.576-0.586,3.861-0.893"/>
		<path fill="none" stroke="#000000" stroke-miterlimit="10" d="M391.326,262.35c3.053,0.993,6.055,2.137,9.002,3.415"/>
		<path fill="none" stroke="#000000" stroke-miterlimit="10" d="M348.188,277.723c-0.158,2.061-0.078,4.049,0.209,5.965"/>
		<path fill="none" stroke="#000000" stroke-miterlimit="10" d="M333.572,286.967c0.094,0.643,0.197,1.282,0.318,1.918
			c0.838,4.414,2.502,8.521,4.773,12.305"/>
		<path fill="none" stroke="#000000" stroke-miterlimit="10" d="M333.572,286.967c-2.506-17.465,5.537-37.057,23.127-42.079"/>
		<path fill="none" stroke="#000000" stroke-miterlimit="10" d="M355.059,297.881c-0.104-0.125-0.209-0.25-0.313-0.377"/>
		<path fill="none" stroke="#000000" stroke-miterlimit="10" d="M356.699,244.888c1.289-0.368,2.623-0.662,4.014-0.867
			c3.268-0.481,6.561-0.682,9.861-0.645"/>
		<path fill="none" stroke="#000000" stroke-miterlimit="10" d="M472.164,308.779c-0.166,0.979-0.682,3.313-1.666,2.604
			c-0.518-0.374-0.736-0.722-1.168-1.194"/>
		<path fill="none" stroke="#000000" stroke-miterlimit="10" d="M472.035,309.313c-0.902,0.287-1.803,0.581-2.705,0.877"/>
		<path fill="none" stroke="#000000" stroke-miterlimit="10" d="M367.977,258.218c-1.676,0.06-3.334,0.242-4.959,0.574"/>
		<path fill="none" stroke="#000000" stroke-miterlimit="10" d="M460.461,297.274c-0.213-0.324-0.422-0.651-0.639-0.97
			c-3.717-5.455-7.898-10.623-12.381-15.462c-2.51-2.708-5.188-5.263-7.971-7.702"/>
		<path fill="none" stroke="#000000" stroke-miterlimit="10" d="M474.592,292.472c-4.063,1.249-8.082,2.583-12.035,4.032
			c-0.699,0.256-1.396,0.514-2.096,0.771"/>
		<path fill="none" stroke="#000000" stroke-miterlimit="10" d="M421.992,260.323c-1.227-0.754-2.461-1.493-3.703-2.21
			c-14.174-8.165-31.016-14.551-47.715-14.737"/>
		<path fill="none" stroke="#000000" stroke-miterlimit="10" d="M348.188,277.723c0.443,1.897,0.941,3.781,1.51,5.647"/>
		<path fill="none" stroke="#000000" stroke-miterlimit="10" d="M363.018,258.792c-0.258,0.292-0.482,0.599-0.66,0.949
			c-1.209,2.403-1.076,6.227-0.654,9.483c0.441,3.395,1.25,6.775,2.277,10.116"/>
		<path fill="none" stroke="#000000" stroke-miterlimit="10" d="M380.6,273.417c4.736-1.831,9.453-3.721,14.209-5.586"/>
		<path fill="none" stroke="#000000" stroke-miterlimit="10" d="M391.326,262.35c1.201,1.818,2.357,3.658,3.482,5.481"/>
		<path fill="none" stroke="#000000" stroke-miterlimit="10" d="M381.816,329.028c-0.129-0.393-0.262-0.784-0.391-1.178
			c-1.74-5.314-3.385-10.606-5.129-15.859"/>
		<path fill="none" stroke="#000000" stroke-miterlimit="10" d="M354.887,297.469c-0.047,0.012-0.094,0.023-0.141,0.035"/>
		<path fill="none" stroke="#000000" stroke-miterlimit="10" d="M376.297,311.991c-1.848-5.56-3.807-11.075-6.121-16.522
			c-0.295-0.692-0.59-1.39-0.885-2.09"/>
		<path fill="none" stroke="#000000" stroke-miterlimit="10" d="M408.104,313.693c-7.203-8.428-13.33-17.762-19.27-27.186"/>
		<path fill="none" stroke="#000000" stroke-miterlimit="10" d="M348.396,283.688c0.434-0.107,0.869-0.209,1.301-0.317"/>
		<path fill="none" stroke="#000000" stroke-miterlimit="10" d="M363.98,279.341c1.473,4.793,3.393,9.5,5.311,14.038"/>
		<path fill="none" stroke="#000000" stroke-miterlimit="10" d="M354.887,297.469c0.059,0.138,0.115,0.274,0.172,0.412"/>
		<path fill="none" stroke="#000000" stroke-miterlimit="10" d="M424.721,309.523c-5.205-5.158-9.883-11.008-14.094-17.047
			c-2.684-3.85-5.264-7.775-7.787-11.738"/>
		<path fill="none" stroke="#000000" stroke-miterlimit="10" d="M369.291,293.379c5.686-1.766,11.324-3.697,16.9-5.824
			c0.885-0.338,1.762-0.697,2.643-1.047"/>
		<path fill="none" stroke="#000000" stroke-miterlimit="10" d="M363.98,279.341c5.633-1.786,11.143-3.808,16.619-5.924"/>
		<path fill="none" stroke="#000000" stroke-miterlimit="10" d="M381.816,329.028c9.547,28.993,20.633,57.471,34.242,84.813
			c4.295,8.631-8.643,16.232-12.953,7.571c-0.541-1.081-1.078-2.165-1.609-3.251c-13.611-27.861-24.949-56.844-34.535-86.324
			c-0.959-2.952-1.893-5.894-2.83-8.817"/>
		<path fill="none" stroke="#000000" stroke-miterlimit="10" d="M408.104,313.693c3.568,4.173,7.396,8.127,11.602,11.755
			c0.289,0.249,0.584,0.489,0.875,0.733"/>
		<path fill="none" stroke="#000000" stroke-miterlimit="10" d="M394.809,267.831c0.582-0.229,1.162-0.458,1.744-0.686
			c1.248-0.485,2.508-0.94,3.775-1.381"/>
		<path fill="none" stroke="#000000" stroke-miterlimit="10" d="M367.977,258.218c4.713,2.56,9.498,10.261,12.623,15.199"/>
		<path fill="none" stroke="#000000" stroke-miterlimit="10" d="M354.887,297.469c-1.908-4.625-3.729-9.313-5.189-14.099"/>
		<path fill="none" stroke="#000000" stroke-miterlimit="10" d="M364.131,323.021c-2.49-7.779-4.996-15.424-8.074-22.744
			c-0.336-0.796-0.666-1.596-0.998-2.396"/>
		<path fill="none" stroke="#000000" stroke-miterlimit="10" d="M333.572,286.967c-5.119,1.006-10.264,1.898-15.418,2.689
			c-57.949,8.893-117.355,3.302-175.363-1.967c-5.736-0.521-11.473-1.045-17.209-1.563c-9.637-0.867-9.555,14.141,0,15
			c58.283,5.248,116.99,11.405,175.484,5.649c12.619-1.241,25.184-3.067,37.598-5.587"/>
		<path fill="none" stroke="#000000" stroke-miterlimit="10" d="M494.635,287.143c-0.932-1.406-2.055-2.739-3.424-3.969
			c-0.475-0.426-0.977-0.842-1.512-1.252"/>
		<path fill="none" stroke="#000000" stroke-miterlimit="10" d="M487.596,263.847c9.889,4.011,18.082,10.413,22.291,20.237"/>
		<path fill="none" stroke="#000000" stroke-miterlimit="10" d="M471.225,259.385c-10.822-1.812-22.094-1.864-31.594-1.164
			c-5.854,0.432-11.77,1.107-17.639,2.103"/>
		<path fill="none" stroke="#000000" stroke-miterlimit="10" d="M494.635,287.143c1.863,2.81,2.9,5.934,3.189,9.264
			c0.164,1.906,0.17,3.872,0.012,5.843"/>
		<path fill="none" stroke="#000000" stroke-miterlimit="10" d="M388.834,286.508c2.445-0.971,4.879-1.97,7.295-3.005
			c1.271-0.544,2.543-1.089,3.805-1.651c-1.621,0.721,0.398-0.158,0.607-0.242c0.76-0.304,1.527-0.593,2.299-0.871"/>
		<path fill="none" stroke="#000000" stroke-miterlimit="10" d="M509.887,284.084c1.367,3.188,2.33,6.721,2.773,10.669
			c0.164,1.472,0.248,2.938,0.27,4.399"/>
		<path fill="none" stroke="#000000" stroke-miterlimit="10" d="M474.207,275.188c-10.998-2.65-23.189-3.025-34.736-2.047"/>
		<path fill="none" stroke="#000000" stroke-miterlimit="10" d="M402.84,280.738c2.236-0.807,4.508-1.514,6.789-2.176
			c3.104-0.902,6.246-1.673,9.41-2.348"/>
		<path fill="none" stroke="#000000" stroke-miterlimit="10" d="M512.93,299.152c0.281,18.557-10.781,35.839-29.047,41.408
			c-22.33,6.809-45.752,0.318-63.303-14.379"/>
		<path fill="none" stroke="#000000" stroke-miterlimit="10" d="M424.721,309.523c4.406,4.365,9.193,8.23,14.4,11.297"/>
		<path fill="none" stroke="#000000" stroke-miterlimit="10" d="M497.836,302.249c-0.492,6.152-2.609,12.353-6.727,16.92
			c-6.127,6.802-15.773,8.788-24.535,9.001c-10.271,0.249-19.369-2.587-27.453-7.35"/>
	</g>
</g>
</svg>
