<?xml version="1.0" encoding="utf-8"?>
<!-- Generator: Adobe Illustrator 16.0.0, SVG Export Plug-In . SVG Version: 6.00 Build 0)  -->
<!DOCTYPE svg PUBLIC "-//W3C//DTD SVG 1.1//EN" "http://www.w3.org/Graphics/SVG/1.1/DTD/svg11.dtd">
<svg version="1.1" xmlns="http://www.w3.org/2000/svg" xmlns:xlink="http://www.w3.org/1999/xlink" x="0px" y="0px"
	 width="841.89px" height="595.28px" viewBox="0 0 841.89 595.28" enable-background="new 0 0 841.89 595.28" xml:space="preserve">
<g id="Layer_2" display="none">
	
		<image display="inline" overflow="visible" width="600" height="400" xlink:href="carrickR1.jpg"  transform="matrix(1 0 0 1 -452 -2506.7197)">
	</image>
	
		<image display="inline" overflow="visible" width="600" height="400" xlink:href="carrickR2.jpg"  transform="matrix(1 0 0 1 262 -2506.7197)">
	</image>
	
		<image display="inline" overflow="visible" width="600" height="400" xlink:href="carrickR3.jpg"  transform="matrix(1 0 0 1 956 -2506.7197)">
	</image>
	
		<image display="inline" overflow="visible" width="600" height="400" xlink:href="carrickR4.jpg"  transform="matrix(1 0 0 1 1760 -2506.7197)">
	</image>
	
		<image display="inline" overflow="visible" width="600" height="400" xlink:href="carrickR5.jpg"  transform="matrix(1 0 0 1 -452 -1676.7197)">
	</image>
	
		<image display="inline" overflow="visible" width="600" height="400" xlink:href="carrickR6.jpg"  transform="matrix(1 0 0 1 262 -1676.7197)">
	</image>
	
		<image display="inline" overflow="visible" width="600" height="400" xlink:href="carrickR7.jpg"  transform="matrix(1 0 0 1 956 -1676.7197)">
	</image>
	
		<image display="inline" overflow="visible" width="600" height="400" xlink:href="carrickR8.jpg"  transform="matrix(1 0 0 1 1760 -1676.7197)">
	</image>
</g>
<g id="Layer_1" display="none">
	<g display="inline">
		<g>
			<path fill="#00A79D" d="M-163.333-2252.5c-16.285,0.027-32.558,0.662-48.837,0.98c-15.343,0.3-30.587-0.316-45.914-0.77
				c-24.565-0.727-50.08,1.946-71.218,15.492c-20.517,13.148-38.309,37.679-28.602,62.753c8.928,23.062,33.74,35.604,56.971,38.807
				c31.675,4.367,63.682,2.365,95.525,1.835c26.112-0.436,51.998-0.457,77.838-4.876c12.448-2.129,24.527-5.538,36.115-10.565
				c12.046-5.226,21.849-13.785,30.676-23.353c19.891-21.563,39.273-44.32,56.319-68.2c7.837-10.979,15.478-20.607,27.023-27.927
				c10.582-6.708,22.503-10.737,34.597-13.726c13.039-3.221,26.484-5.144,39.712-7.435c13.781-2.387,28.533-4.715,42.468-2.284
				c9.458,1.65,13.504-12.804,3.987-14.464c-26.235-4.578-54.064,2.634-79.825,7.489c-24.282,4.576-48.11,13.497-65.845,31.282
				c-10.091,10.119-17.31,23.046-26.106,34.26c-9.269,11.817-19.254,23.009-29.069,34.365c-8.711,10.079-17.004,21.006-27.68,29.137
				c-9.572,7.29-21.294,11.171-32.819,14.108c-24.259,6.184-49.736,7.024-74.65,7.089c-31.661,0.083-63.399,2.427-95.012-0.232
				c-21.754-1.83-49.652-9.059-56.991-32.839c-7.236-23.447,20.212-43.617,39.188-50.237c19.289-6.729,40.021-5.837,60.104-4.936
				c27.337,1.227,54.704-0.71,82.046-0.754C-153.661-2237.516-153.659-2252.516-163.333-2252.5L-163.333-2252.5z"/>
		</g>
	</g>
	<g display="inline">
		<g>
			<path fill="#00A79D" d="M858-2322.501c-31.92,0.521-63.438-5.869-95.333-6c-31.562-0.13-63.253,0.06-94.617,3.951
				c-31.978,3.967-62.414,13.1-92.585,24.172c-12.938,4.748-26.11,11.808-39.963,13.249c-12.535,1.304-24.485-1.452-34.914-8.488
				c-13.514-9.117-21.284-26.674-23.349-42.375c-0.964-7.33-0.198-13.234,5.072-18.684c4.933-5.099,11.93-8.217,18.47-10.669
				c7.717-2.894,15.572-5.007,23.832-3.388c8.316,1.63,15.485,6.584,21.703,12.122c7.224,6.432,13.872,13.731,20.657,20.626
				c6.738,6.846,13.067,14.029,17.218,22.771c4.146,8.734,17.077,1.118,12.951-7.57c-5.862-12.348-15.866-22.206-25.453-31.705
				c-9.292-9.207-17.968-19.054-29.525-25.517c-21.175-11.842-48.523-4.922-66.801,9.537c-8.765,6.934-14.009,16.832-13.529,28.137
				c0.536,12.629,4.468,25.164,10.397,36.256c12.526,23.431,36.988,36.078,63.271,33.948c11.824-0.958,22.27-5.576,33.219-9.761
				c13.172-5.034,26.454-9.781,39.883-14.087c26.756-8.58,53.948-13.694,81.957-15.789c27.656-2.068,55.887-2.599,83.6-1.471
				c28.017,1.14,55.739,6.195,83.84,5.736C867.663-2307.659,867.678-2322.659,858-2322.501L858-2322.501z"/>
		</g>
	</g>
	<g display="inline">
		<g>
			<path fill="#00A79D" d="M608.882-2277.191c3.37,2.489,5.195,7.255,7.153,10.81c2.832,5.142,6.493,9.896,10.063,14.542
				c7.353,9.57,15.559,18.372,24.055,26.928c18.503,18.637,35.386,38.618,53.211,57.881c6.583,7.114,17.165-3.52,10.607-10.606
				c-17.825-19.263-34.662-39.291-53.212-57.881c-8.836-8.855-17.435-18.009-24.869-28.09c-6.491-8.801-10.464-19.909-19.438-26.535
				c-3.296-2.434-8.361-0.553-10.261,2.69C603.958-2283.64,605.6-2279.615,608.882-2277.191L608.882-2277.191z"/>
		</g>
	</g>
	<g display="inline">
		<g>
			<path fill="#00A79D" d="M1552.668-2320.5c-13.828-0.988-27.812-0.667-41.668-0.667c-9.673,0-9.673,15,0,15
				c13.856,0,27.84-0.321,41.668,0.667C1562.325-2304.811,1562.259-2319.815,1552.668-2320.5L1552.668-2320.5z"/>
		</g>
	</g>
	<g display="inline">
		<g>
			<path fill="#00A79D" d="M1462.662-2321.566c-30.469-4.508-60.686,1.059-91.12,2.886c-13.999,0.84-27.547,2.947-41.003,6.971
				c-12.906,3.859-25.344,9.188-37.665,14.588c-23.975,10.505-48.62,22.595-74.878,26.055c-12.193,1.606-24.98,0.277-34.691-7.903
				c-9.122-7.685-15.846-18.327-16.957-30.404c-2.502-27.18,27.77-47.145,51.735-49.398c13.21-1.242,26.007,2.406,35.151,12.281
				c10.42,11.251,15.223,26.803,24.797,38.795c2.555,3.2,7.959,2.648,10.607,0c3.13-3.13,2.548-7.415,0-10.606
				c-6.922-8.67-11.192-19.263-17.106-28.599c-6.384-10.077-14.688-18.136-25.772-22.769c-19.718-8.242-42.67-3.938-60.801,6.262
				c-18.804,10.579-34.205,30.248-33.695,52.578c0.587,25.716,21.356,50.074,46.623,54.422c20.758,3.572,42.897-3.537,62.19-10.65
				c20.134-7.423,39.269-17.263,59.29-24.962c10.032-3.857,20.313-7.029,30.843-9.204c11.17-2.308,22.566-2.412,33.894-3.388
				c24.657-2.124,49.861-6.145,74.57-2.488c4.041,0.598,8.045-0.942,9.227-5.238
				C1468.883-2315.914,1466.713-2320.967,1462.662-2321.566L1462.662-2321.566z"/>
		</g>
	</g>
	<g display="inline">
		<g>
			<path fill="#00A79D" d="M1304.031-2270.364c16.619,17.876,31.688,36.989,45.209,57.309c6.574,9.878,13.796,18.934,22.104,27.417
				c8.572,8.754,17.682,16.954,26.021,25.941c6.593,7.104,17.175-3.527,10.607-10.606c-7.95-8.567-16.55-16.475-24.817-24.727
				c-8.816-8.8-16.029-18.256-22.95-28.572c-13.619-20.3-28.926-39.469-45.565-57.368
				C1308.039-2288.069,1297.456-2277.438,1304.031-2270.364L1304.031-2270.364z"/>
		</g>
	</g>
	<g display="inline">
		<g>
			<path fill="#00A79D" d="M2094.479-2316.119c-5.299-11.955-16.525-19.395-25.451-28.407c-9.496-9.589-18.683-19.116-29.821-26.864
				c-10.523-7.319-23.427-12.996-36.479-11.726c-11.836,1.152-22.036,7.713-29.589,16.67c-8.534,10.122-14.638,22.896-15.59,36.17
				c-0.978,13.624,5.958,26.124,13.454,36.891c13.666,19.631,35.652,30.464,59.138,32.505c34.757,3.021,62.162-18.33,90.738-34.524
				c14.523-8.229,30.028-14.884,46.805-16.466c21.106-1.99,42.696,1.513,63.652,3.703c4.074,0.426,7.5-3.734,7.5-7.5
				c0-4.41-3.436-7.075-7.5-7.5c-29.467-3.079-59.882-7.981-88.71,1.392c-24.635,8.01-45.515,24.054-68.162,36.114
				c-20.096,10.7-42.955,13.246-64.419,5.009c-9.843-3.777-18.899-10.791-25.261-19.163c-7.533-9.915-14.204-21.65-11.694-34.508
				c2.15-11.018,9.72-23.034,19.017-29.419c10.521-7.224,22.095-4.61,32.651,1.059c11.732,6.301,21.332,15.91,30.478,25.42
				c8.773,9.122,21.043,16.875,26.29,28.715c1.658,3.739,7.034,4.582,10.262,2.691
				C2095.604-2308.094,2096.135-2312.382,2094.479-2316.119L2094.479-2316.119z"/>
		</g>
	</g>
	<g display="inline">
		<g>
			<path fill="#00A79D" d="M2266.5-2305.75c29.369,0.128,58.914,6.437,88.163,1.314c9.516-1.666,5.47-16.12-3.988-14.464
				c-27.68,4.847-56.35-1.729-84.175-1.851C2256.825-2320.792,2256.829-2305.792,2266.5-2305.75L2266.5-2305.75z"/>
		</g>
	</g>
	<g display="inline">
		<g>
			<path fill="#00A79D" d="M2110.675-2270.436c4.762,1.674,8.627,5.769,12.35,9.016c4.845,4.226,10.101,7.986,15.229,11.857
				c10.089,7.616,19.279,15.786,27.282,25.6c13.946,17.103,25.807,36.69,45.349,48.105c8.37,4.889,15.916-8.078,7.57-12.952
				c-19.443-11.357-31.056-32.448-45.201-49.247c-8.344-9.908-18.567-17.768-28.854-25.533c-9.491-7.165-18.349-17.306-29.736-21.31
				C2105.513-2288.116,2101.613-2273.621,2110.675-2270.436L2110.675-2270.436z"/>
		</g>
	</g>
	<g display="inline">
		<g>
			<path fill="#00A79D" d="M1970.031-1567.698c13.303,12.438,29.563,20.86,43.49,32.471c15.609,13.015,29.189,28.236,45.178,40.862
				c3.205,2.531,7.465,3.142,10.605,0c2.637-2.637,3.215-8.068,0-10.606c-15.538-12.271-29.141-26.64-43.912-39.774
				c-13.98-12.432-31.069-20.763-44.754-33.56C1973.582-1584.902,1962.953-1574.317,1970.031-1567.698L1970.031-1567.698z"/>
		</g>
	</g>
	<g display="inline">
		<g>
			<path fill="#00A79D" d="M2042.193-1492.12c-4.959,8.741-11.207,17.254-13.443,27.219c-2.506,11.163,2.559,21.058,10.615,28.537
				c7.078,6.57,17.71-4.013,10.607-10.606c-5.662-5.255-8.16-10.128-5.75-17.633c2.281-7.1,7.271-13.509,10.922-19.945
				C2059.925-1492.975,2046.965-1500.531,2042.193-1492.12L2042.193-1492.12z"/>
		</g>
	</g>
	<g display="inline">
		<g>
			<path fill="#00A79D" d="M2088.033-1465.031c-0.816-1.036,0.979,1.383,1.136,1.607c0.69,0.991,1.327,2.019,1.952,3.053
				c1.368,2.26,2.312,4.249,2.982,6.697c2.555,9.317,17.025,5.357,14.465-3.987c-1.842-6.72-5.667-12.563-9.93-17.977
				c-2.533-3.218-7.973-2.633-10.605,0C2084.888-1472.493,2085.506-1468.24,2088.033-1465.031L2088.033-1465.031z"/>
		</g>
	</g>
	<g display="inline">
		<g>
			<path fill="#00A79D" d="M2107.342-1473.103c38.569,7.317,77.229-0.8,115.682-4.7c41.087-4.167,81.877,1.635,122.979,1.635
				c9.673,0,9.673-15,0-15c-39.908,0-79.531-5.528-119.438-1.973c-38.09,3.393-77.033,12.821-115.233,5.574
				C2101.879-1489.359,2097.846-1474.904,2107.342-1473.103L2107.342-1473.103z"/>
		</g>
	</g>
	<g display="inline">
		<g>
			<path fill="#00A79D" d="M1281.233-1487.662c-2.914-7.181-8.49-11.566-14.658-15.958c-6.841-4.87-13.578-9.855-20.789-14.176
				c-14.703-8.81-32.452-16.009-49.814-12.836c-14.955,2.733-26.63,15.143-30.246,29.563c-4.196,16.733,3.221,31.328,14.305,43.369
				c6.564,7.131,17.145-3.504,10.607-10.606c-7.582-8.236-12.832-17.244-10.448-28.775c2.196-10.619,10.736-17.436,21.064-19.323
				c5.513-1.007,11.502,0.741,16.724,2.287c7.15,2.118,13.816,5.535,20.237,9.274c5.686,3.311,11.018,7.149,16.314,11.037
				c3.549,2.605,10.488,5.816,12.239,10.131c1.536,3.785,4.936,6.418,9.227,5.238
				C1279.59-1479.425,1282.772-1483.867,1281.233-1487.662L1281.233-1487.662z"/>
		</g>
	</g>
	<g display="inline">
		<g>
			<path fill="#00A79D" d="M1226.667-1444.834c6.223,0,12.444,0,18.667,0c9.673,0,9.673-15,0-15c-6.223,0-12.444,0-18.667,0
				C1216.994-1459.834,1216.994-1444.834,1226.667-1444.834L1226.667-1444.834z"/>
		</g>
	</g>
	<g display="inline">
		<g>
			<path fill="#00A79D" d="M1283.786-1460.525c5.017-2.486,10.077-4.617,15.542-5.911c9.41-2.228,5.418-16.691-3.988-14.464
				c-6.679,1.582-12.993,4.384-19.124,7.422c-3.661,1.814-4.648,6.919-2.69,10.262
				C1275.695-1459.512,1280.123-1458.71,1283.786-1460.525L1283.786-1460.525z"/>
		</g>
	</g>
	<g display="inline">
		<g>
			<path fill="#00A79D" d="M1308.452-1451.192c20.969-9.222,13.811-42.802,9.514-59.724c-3.984-15.694-10.861-30.563-19.076-44.463
				c-8.827-14.935-15.708-31.228-25.747-45.408c-5.539-7.825-18.555-0.344-12.951,7.571c9.085,12.833,14.598,27.615,22.958,40.851
				c8.434,13.352,15.262,27.49,19.619,42.691c2.359,8.228,3.997,16.751,4.496,25.299c0.437,7.498,0.341,17.274-6.383,20.231
				c-3.744,1.647-4.577,7.042-2.69,10.261C1300.431-1450.059,1304.71-1449.546,1308.452-1451.192L1308.452-1451.192z"/>
		</g>
	</g>
	<g display="inline">
		<g>
			<path fill="#00A79D" d="M1360.667-1475.501c62.872,0.041,126.093,4.034,188.667-4c4.054-0.521,7.5-3.018,7.5-7.5
				c0-3.693-3.435-8.022-7.5-7.5c-62.574,8.034-125.795,4.041-188.667,4C1350.994-1490.508,1350.994-1475.508,1360.667-1475.501
				L1360.667-1475.501z"/>
		</g>
	</g>
	<g display="inline">
		<g>
			<path fill="#00A79D" d="M591.81-1492.12c-10.188-13.899-16.64-29.831-30.496-40.795c-12.687-10.038-28.076-14.162-43.318-18.651
				c-9.302-2.74-13.245,11.737-3.988,14.464c12.93,3.809,25.836,7.1,36.971,15.031c13.017,9.271,18.724,25.03,27.881,37.522
				c2.411,3.29,6.458,4.918,10.261,2.69C592.372-1483.764,594.232-1488.815,591.81-1492.12L591.81-1492.12z"/>
		</g>
	</g>
	<g display="inline">
		<g>
			<path fill="#00A79D" d="M470.858-1530.12c-11.426,15.93-6.667,42.486,2.913,58.171c11.588,18.971,32.847,25.557,53.568,28.847
				c4.034,0.641,8.053-0.973,9.227-5.238c0.991-3.605-1.195-8.584-5.238-9.226c-15.648-2.484-32.966-6.028-42.984-19.547
				c-8.411-11.351-13.359-33.13-4.534-45.435C489.46-1530.427,476.441-1537.904,470.858-1530.12L470.858-1530.12z"/>
		</g>
	</g>
	<g display="inline">
		<g>
			<path fill="#00A79D" d="M574.452-1447.191c19.813-10.199,40.23-19.142,60.667-28c3.754-1.627,4.568-7.056,2.69-10.262
				c-2.248-3.837-6.51-4.316-10.261-2.69c-20.438,8.859-40.855,17.801-60.667,28
				C558.279-1455.715,565.868-1442.772,574.452-1447.191L574.452-1447.191z"/>
		</g>
	</g>
	<g display="inline">
		<g>
			<path fill="#00A79D" d="M606.882-1446.525c20.257,8.976,28.634,30.714,39.926,48.221c14.249,22.092,35.115,37.993,53.89,55.939
				c6.989,6.681,17.611-3.911,10.607-10.606c-18.842-18.011-39.726-33.831-53.664-56.252
				c-11.719-18.851-21.689-40.728-43.188-50.254c-3.737-1.656-8.025-1.126-10.261,2.691
				C602.301-1453.559,603.143-1448.182,606.882-1446.525L606.882-1446.525z"/>
		</g>
	</g>
	<g display="inline">
		<g>
			<path fill="#00A79D" d="M674.667-1478.167c30.962,0.036,61.887,1.694,92.832,2.491c29.151,0.75,58.901-1.72,87.841,2.574
				c4.041,0.6,8.045-0.943,9.227-5.238c0.983-3.575-1.188-8.625-5.238-9.226c-29.104-4.319-58.608-2.378-87.914-3.017
				c-32.255-0.704-64.478-2.547-96.747-2.584C664.993-1493.179,664.994-1478.179,674.667-1478.167L674.667-1478.167z"/>
		</g>
	</g>
	<g display="inline">
		<g>
			<path fill="#00A79D" d="M-103.302-1444.365c18.765,15.291,30.959,36.648,44.638,56.229c6.48,9.278,14.292,17.109,22.266,25.085
				c7.574,7.576,15.631,15.683,19.167,26.042c3.106,9.1,17.598,5.192,14.464-3.987c-7.812-22.885-29.519-35.659-42.946-54.711
				c-14.466-20.526-27.25-43.185-46.983-59.265c-3.166-2.58-7.498-3.109-10.606,0
				C-105.972-1452.302-106.476-1446.951-103.302-1444.365L-103.302-1444.365z"/>
		</g>
	</g>
	<g display="inline">
		<g>
			<path fill="#00A79D" d="M33.334-1476.168c18.668-0.509,37.209,1.509,55.691,3.919c8.824,1.151,17.326,1.379,26.209,0.819
				c9.074-0.573,18.383-1.695,27.439-0.34c4.04,0.604,8.045-0.946,9.226-5.238c0.985-3.579-1.188-8.62-5.238-9.226
				c-18.576-2.78-37.141,1.699-55.751-0.767c-19.101-2.532-38.276-4.694-57.576-4.167
				C23.681-1490.905,23.655-1475.904,33.334-1476.168L33.334-1476.168z"/>
		</g>
	</g>
	<g display="inline">
		<g>
			<path fill="#00A79D" d="M-9.333-1495.168c-25.442,0.04-51.086,1.843-75.455,9.649c-24.278,7.777-46.627,21.189-71.873,25.952
				c-9.499,1.792-5.464,16.247,3.987,14.464c24.006-4.529,45.622-16.744,68.485-24.81c24.074-8.493,49.525-10.216,74.854-10.256
				C0.34-1480.183,0.341-1495.183-9.333-1495.168L-9.333-1495.168z"/>
		</g>
	</g>
	<g display="inline">
		<g>
			<path fill="#00A79D" d="M-195.333-1454.501c-9.261-0.088-17.912-1.948-25.49-7.466c-6.297-4.586-9.912-12.427-12.069-19.654
				c-2.477-8.299-4.249-18.517-2.236-27.057c1.638-6.949,6.563-12.121,12.544-15.722c13.619-8.199,32.012-8.284,46.708-3.241
				c9.88,3.391,19.016,11.082,26.788,17.835c9.404,8.171,17.657,17.733,22.612,29.258c1.616,3.758,7.064,4.563,10.261,2.69
				c3.846-2.253,4.306-6.505,2.691-10.262c-5.212-12.123-14.072-22.388-23.74-31.209c-8.763-7.997-19.058-16.203-30.021-20.936
				c-16.912-7.301-37.478-7.7-54.653-0.981c-18.515,7.243-29.933,22.806-28.75,42.963c1.175,20.03,7.807,40.701,25.82,51.611
				c8.796,5.328,19.406,7.074,29.536,7.17C-185.656-1439.41-185.665-1454.41-195.333-1454.501L-195.333-1454.501z"/>
		</g>
	</g>
	<g display="inline">
		<g>
			<path fill="#C2B59B" d="M-448.5-2299.5c30.903,0.417,62.086-7.984,91.479-16.843c13.949-4.204,27.676-9.572,40.34-16.815
				c12.844-7.346,24.102-16.831,35.313-26.409c11.136-9.514,22.294-18.908,33.315-28.558c5.367-4.7,11.24-8.796,16.819-13.238
				c5.931-4.722,11.129-10.03,16.498-15.352c19.116-18.948,44.133-27.389,69.544-34.261c30.873-8.35,62.485-13.86,94.213-17.712
				c27.365-3.321,55.634-5.862,83-1.616c18.913,2.935,38.516,8.168,54.368,19.271c6.627,4.641,12.011,11.116,14.135,18.992
				c2.808,10.414-5.78,20.325-13.674,25.776c-17.65,12.187-42.366,10.278-62.736,10.265c-23.063-0.015-46.351-0.157-69.12-4.23
				c-9.456-1.691-13.499,12.763-3.987,14.465c30.086,5.382,61.147,5.252,91.615,4.672c25.847-0.493,55.926-5.786,69.225-30.896
				c11.077-20.915-2.41-41.55-19.768-53.289c-16.345-11.054-36.813-16.396-56.07-19.488c-27.577-4.427-55.555-2.553-83.164,0.629
				c-31.833,3.668-63.499,8.926-94.585,16.757c-26.441,6.661-52.435,14.813-74.202,31.773c-5.048,3.934-9.629,8.4-14.028,13.036
				c-5.273,5.557-11.389,10.336-17.475,14.959c-11.731,8.911-22.216,19.206-33.716,28.396
				c-11.479,9.173-22.097,19.387-34.261,27.686c-12.438,8.485-26.303,14.446-40.549,19.139
				c-14.276,4.704-29.013,8.262-43.634,11.714c-16.083,3.796-32.33,6.403-48.895,6.179
				C-458.178-2314.631-458.165-2299.631-448.5-2299.5L-448.5-2299.5z"/>
		</g>
	</g>
	<g display="inline">
		<g>
			<path fill="#C2B59B" d="M268.494-2301.768c13.981-3.363,28.656-0.985,42.818-3.233c15.401-2.444,30.363-7.475,44.867-13.082
				c13.04-5.041,26.234-10.272,38.011-17.892c10.495-6.79,19.934-15.192,28.783-23.978c17.664-17.539,32.939-37.393,51.659-53.879
				c19.251-16.954,42.952-27.498,67.443-34.408c24.893-7.024,50.704-10.153,76.448-11.89c15.537-1.048,31.037-2.078,46.553-3.45
				c16.067-1.421,32.169-2.518,48.305-1.855c13.207,0.542,26.111,3.182,39.071,5.585c10.099,1.872,20.479,3.942,29.969,7.99
				c9.198,3.924,17.221,9.759,22.517,18.347c2.343,3.8,3.975,7.976,5.043,12.299c0.71,2.875,0.67,6.078,0.203,8.113
				c-0.715,3.12-3.107,6.203-5.438,7.918c-4.35,3.202-8.018,4.475-13.077,5.935c-11.71,3.376-23.903,3.891-36.125,3.868
				c-11.624-0.022-23.136-1.146-34.699-2.176c-20.279-1.807-40.61-3.161-60.845-5.442c-4.071-0.459-7.5,3.759-7.5,7.5
				c0,4.435,3.438,7.042,7.5,7.5c23.809,2.684,47.745,4.267,71.603,6.454c15.079,1.383,30.374,1.749,45.446,0.121
				c14.415-1.558,31.568-4.776,41.557-16.348c12.036-13.943,6.319-34.11-3.589-47.571c-13.214-17.954-35.163-24.428-56.07-28.496
				c-12.522-2.437-25.126-4.921-37.836-6.088c-16.061-1.476-32.266-0.576-48.306,0.694c-16.103,1.275-32.159,3.051-48.305,3.734
				c-12.735,0.539-25.498,1.828-38.139,3.433c-26.229,3.33-52.218,8.912-76.631,19.269c-21.344,9.055-39.872,21.982-56.289,38.302
				c-15.999,15.905-30.07,33.63-46.458,49.162c-7.778,7.371-16.121,14.012-25.339,19.496c-11.348,6.751-24.169,11.413-36.52,15.958
				c-13.057,4.806-27.017,9.457-40.94,10.719c-13.259,1.202-26.606-0.215-39.678,2.929
				C255.104-2313.97,259.093-2299.506,268.494-2301.768L268.494-2301.768z"/>
		</g>
	</g>
	<g display="inline">
		<g>
			<path fill="#C2B59B" d="M956.5-2305c15.534-0.113,30.825-2.749,46.184-4.785c14.981-1.985,29.746-2.28,44.837-1.942
				c31.494,0.705,62.984-0.744,94.479-0.773c9.673-0.009,9.674-15.009,0-15c-31.495,0.029-62.985,1.479-94.479,0.773
				c-15.104-0.339-29.841,0.019-44.837,1.942c-15.374,1.972-30.639,4.671-46.184,4.785C946.831-2319.93,946.824-2304.93,956.5-2305
				L956.5-2305z"/>
		</g>
	</g>
	<g display="inline">
		<g>
			<path fill="#C2B59B" d="M1175-2311.5c13.316-0.082,26.12-2.069,38.566-6.875c12.006-4.637,25.024-5.917,36.928-10.893
				c3.769-1.576,6.427-4.904,5.238-9.227c-0.98-3.563-5.446-6.818-9.227-5.238c-10.839,4.531-22.57,6.226-33.729,9.775
				c-6.195,1.972-12.07,4.402-18.459,5.781c-6.339,1.367-12.854,1.636-19.318,1.676C1165.33-2326.44,1165.324-2311.44,1175-2311.5
				L1175-2311.5z"/>
		</g>
	</g>
	<g display="inline">
		<g>
			<path fill="#C2B59B" d="M1282-2338.5c12.267,0.813,24.596-7.07,35.146-12.444c11.447-5.831,21.134-14.821,29.282-24.629
				c8.194-9.864,14.938-20.821,23.257-30.597c8.35-9.813,18.089-17.554,29.148-24.1c22.087-13.075,50.657-24.918,76.674-18.665
				c21.782,5.236,38.301,22.608,42.521,44.517c4.977,25.832-6.481,52.573-23.016,71.875c-19.781,23.094-47.135,38.463-70.317,57.74
				c-7.445,6.191,3.228,16.743,10.607,10.606c22.479-18.692,48.247-33.717,68.191-55.349c17.989-19.511,29.651-44.292,30.401-71.019
				c0.705-25.099-10.272-47.641-30.736-62.162c-21.09-14.966-46.921-14.983-70.938-8.328c-17.059,4.727-33.482,12.728-48.289,22.359
				c-12.9,8.392-23.187,19.365-32.52,31.476c-9.401,12.198-17.463,25.009-29.32,35.085c-5.713,4.855-12.324,8.103-19.005,11.366
				c-6.541,3.195-13.532,7.769-21.089,7.268C1272.338-2354.141,1272.4-2339.137,1282-2338.5L1282-2338.5z"/>
		</g>
	</g>
	<g display="inline">
		<g>
			<path fill="#C2B59B" d="M1190-1505c2.872,51.73,25.088,99.234,41.768,147.494c3.14,9.084,17.633,5.18,14.465-3.987
				c-16.174-46.796-38.447-93.348-41.232-143.506C1204.466-1514.617,1189.463-1514.669,1190-1505L1190-1505z"/>
		</g>
	</g>
	<g display="inline">
		<g>
			<path fill="#C2B59B" d="M1219.785-1486.024c4.021-2.903,8.664-4.648,13-7c3.59-1.947,4.707-6.82,2.691-10.261
				c-2.114-3.608-6.668-4.641-10.262-2.691c-4.336,2.352-8.979,4.097-13,7c-3.308,2.388-4.907,6.478-2.691,10.261
				C1211.44-1485.443,1216.464-1483.626,1219.785-1486.024L1219.785-1486.024z"/>
		</g>
	</g>
	<g display="inline">
		<g>
			<path fill="#C2B59B" d="M1262-1507c7.221-0.158,17.503-4.077,24.215-0.524c8.542,4.521,16.122-8.426,7.57-12.952
				c-10.278-5.44-20.892-1.762-31.785-1.524C1252.342-1521.789,1252.321-1506.788,1262-1507L1262-1507z"/>
		</g>
	</g>
	<g display="inline">
		<g>
			<path fill="#C2B59B" d="M1229.696-1478.197c6.409,7.055,14.501,11.995,21.929,17.85c7.396,5.83,14.221,12.31,22.021,17.63
				c13.446,9.17,30.117,12.566,45.977,8.942c14.247-3.255,25.954-13.316,30.779-27.1c2.636-7.528,2.639-17.057,0.141-24.597
				c-1.472-4.443-4.363-8.17-7.739-11.333c-1.204-1.127-2.63-1.88-4.088-2.604c-0.664-0.315-1.328-0.63-1.993-0.944
				c-2.48-1.174-0.975-1.538,0.517,1.259c-0.391,3.029-0.781,6.059-1.173,9.088c0.079-0.064,0.158-0.128,0.237-0.193
				c3.171-2.588,2.671-7.936,0-10.606c-3.107-3.107-7.442-2.583-10.607,0c-0.078,0.064-0.157,0.128-0.236,0.193
				c-2.647,2.161-2.643,6.332-1.173,9.089c1.251,2.346,3.561,3.505,5.844,4.585c2.542,1.203,4.069,2.377,5.574,4.817
				c2.906,4.712,1.77,12.265,0.233,17.257c-3.184,10.346-13.86,15.593-23.753,17.317c-12.483,2.176-24.761-3.471-34.555-10.664
				c-6.332-4.65-11.99-10.181-18.231-14.953c-6.575-5.026-13.493-9.473-19.096-15.641
				C1233.786-1495.978,1223.21-1485.338,1229.696-1478.197L1229.696-1478.197z"/>
		</g>
	</g>
	<g display="inline">
		<g>
			<path fill="#C2B59B" d="M955-1473.5c33.434,0.035,66.831,1.782,100.256,2.348c16.69,0.283,33.334,0.962,50.017,1.385
				c16.339,0.415,32.427-3.204,48.728-2.733c0-5,0-10,0-15c-0.031,0-0.062,0-0.093,0c-9.673,0-9.673,15,0,15
				c0.198,0,0.396,0,0.593,0c9.673,0,9.673-15,0-15c-0.197,0-0.395,0-0.593,0c-9.673,0-9.673,15,0,15c0.031,0,0.062,0,0.093,0
				c9.692,0,9.646-14.721,0-15c-15.659-0.453-31.146,2.881-46.828,2.766c-16.643-0.123-33.295-1.156-49.947-1.387
				c-34.084-0.473-68.133-2.343-102.225-2.378C945.326-1488.51,945.327-1473.51,955-1473.5L955-1473.5z"/>
		</g>
	</g>
	<g display="inline">
		<g>
			<path fill="#C2B59B" d="M400.197-1618.697c18.029,17.421,39.927,30.215,57.632,47.996c9.782,9.825,18.181,21.098,27.565,31.32
				c4.085,4.449,8.09,8.804,11.826,13.552c3.343,4.248,6.823,8.458,11.494,11.305c8.283,5.048,15.814-7.928,7.57-12.952
				c-3.819-2.328-6.622-6.627-9.344-10.085c-3.434-4.364-7.173-8.349-10.94-12.426c-9.434-10.21-17.883-21.362-27.565-31.32
				c-17.485-17.982-39.615-30.586-57.632-47.996C403.848-1636.024,393.23-1625.428,400.197-1618.697L400.197-1618.697z"/>
		</g>
	</g>
	<g display="inline">
		<g>
			<path fill="#C2B59B" d="M490.994-1487.268c19.531-4.42,38.854-9.63,58-15.5c9.22-2.827,5.285-17.307-3.988-14.464
				c-19.145,5.87-38.468,11.08-58,15.5C477.573-1499.597,481.574-1485.136,490.994-1487.268L490.994-1487.268z"/>
		</g>
	</g>
	<g display="inline">
		<g>
			<path fill="#C2B59B" d="M587-1511.5c18.873,0.208,40.876,7.6,55.283,19.978c15.229,13.083,8.918,36.347,2.984,52.529
				c-3.338,9.102,11.163,12.991,14.465,3.987c7.705-21.012,12.139-47.573-4.906-65.324c-8.329-8.675-20.063-14.121-31.062-18.467
				c-11.588-4.579-24.271-7.564-36.765-7.702C577.323-1526.606,577.333-1511.606,587-1511.5L587-1511.5z"/>
		</g>
	</g>
	<g display="inline">
		<g>
			<path fill="#C2B59B" d="M523.024-1483.215c10.999,19.846,24.891,39.232,41.032,55.235c16.131,15.991,38.246,28.109,61.438,22.211
				c9.369-2.382,5.393-16.85-3.988-14.464c-19.019,4.836-36.395-7.69-49.055-20.577c-14.346-14.603-26.573-32.111-36.476-49.976
				C531.287-1499.246,518.331-1491.682,523.024-1483.215L523.024-1483.215z"/>
		</g>
	</g>
	<g display="inline">
		<g>
			<path fill="#C2B59B" d="M267-1477.5c30.728,1.351,61.437,3.311,92.208,3.152c31.886-0.164,63.451-5.652,95.292-5.652
				c9.673,0,9.673-15,0-15c-15.673,0-31.261,1.659-46.845,3.139c-16.119,1.53-32.256,2.383-48.447,2.513
				c-30.766,0.248-61.488-1.801-92.208-3.152C257.325-1492.925,257.366-1477.924,267-1477.5L267-1477.5z"/>
		</g>
	</g>
	<g display="inline">
		<g>
			<path fill="#C2B59B" d="M-194.732-1466.506c2.43,8.744,7.604,15.972,12.938,23.161c5.919,7.976,10.522,16.278,14.34,25.452
				c7.183,17.254,12.979,37.295,28.475,49.087c11.806,8.984,27.128,11.568,41.643,10.758c7.739-0.432,15.463-1.884,22.918-3.967
				c7.06-1.973,15.081-4.377,20.721-9.182c7.375-6.282-3.289-16.84-10.606-10.606c-3.706,3.157-10.725,4.381-15.288,5.656
				c-6.216,1.737-12.557,2.81-18.998,3.169c-12.065,0.673-24.867-1.57-34.039-9.966c-5.347-4.895-8.595-11.727-11.67-18.167
				c-4.011-8.396-7.163-17.197-10.79-25.762c-3.45-8.147-7.574-15.633-12.806-22.765c-4.77-6.501-10.178-12.957-12.374-20.857
				C-182.854-1479.801-197.327-1475.843-194.732-1466.506L-194.732-1466.506z"/>
		</g>
	</g>
	<g display="inline">
		<g>
			<path fill="#C2B59B" d="M-28.506-1386.768c24.071-5.686,41.78-26.529,49.232-49.358c7.813-23.939,0.469-51.502-13.241-71.824
				c-6.705-9.939-15.47-18.865-26.205-24.376c-10.279-5.278-21.805-7.361-33.237-8.098c-22.855-1.474-46.317,3.503-68.107,10.003
				c-1.816,0.542-3.625,1.112-5.43,1.69c-9.176,2.936-5.252,17.42,3.987,14.464c18.881-6.041,38.43-10.562,58.299-11.286
				c9.858-0.36,19.667,0.429,29.161,3.187c9.859,2.864,17.529,8.743,24.246,16.365c13.865,15.732,21.88,39.818,17.485,60.598
				c-4.256,20.12-19.715,39.338-40.179,44.172C-41.906-1399.009-37.914-1384.546-28.506-1386.768L-28.506-1386.768z"/>
		</g>
	</g>
	<g display="inline">
		<g>
			<path fill="#C2B59B" d="M-452-1476.5c16.431-0.053,32.813-1.327,49.219-2.067c16.263-0.734,32.492-0.256,48.749,0.354
				c32.038,1.201,64.679,1.929,96.532-2.286c4.052-0.536,7.5-3.006,7.5-7.5c0-3.682-3.436-8.038-7.5-7.5
				c-31.854,4.215-64.494,3.482-96.532,2.286c-16.264-0.607-32.479-1.037-48.749-0.354c-16.411,0.689-32.785,2.015-49.219,2.067
				C-461.671-1491.469-461.674-1476.469-452-1476.5L-452-1476.5z"/>
		</g>
	</g>
	<g display="inline">
		<g>
			<path fill="#C2B59B" d="M-221.006-1486.768c18.836-4.955,38.545-6.03,57-12.5c9.066-3.178,5.166-17.673-3.987-14.464
				c-18.456,6.47-38.164,7.545-57,12.5C-234.341-1498.773-230.372-1484.305-221.006-1486.768L-221.006-1486.768z"/>
		</g>
	</g>
	<g display="inline">
		<g>
			<path fill="#C2B59B" d="M1763.006-2306.768c13.525,3.218,27.324,0.919,40.994,0.268c17.069-0.814,34.098-1.449,51.188-1.758
				c16.297-0.294,32.527-0.509,48.827-0.124c8.411,0.199,16.821,0.387,25.234,0.371c7.703-0.015,16.212,0.51,23.745-1.257
				c9.415-2.209,5.422-16.672-3.988-14.465c-6.693,1.57-14.826,0.712-21.688,0.725c-7.769,0.015-15.538-0.189-23.304-0.374
				c-16.3-0.387-32.53-0.177-48.827,0.124c-15.758,0.291-31.516,0.537-47.25,1.494c-13.272,0.808-27.842,3.65-40.943,0.532
				C1757.589-2323.47,1753.598-2309.007,1763.006-2306.768L1763.006-2306.768z"/>
		</g>
	</g>
	<g display="inline">
		<g>
			<path fill="#C2B59B" d="M1984-2314c21.69-0.201,42.443-6.441,62.994-12.768c9.215-2.838,5.282-17.318-3.988-14.465
				c-19.258,5.93-38.674,12.044-59.006,12.232C1974.332-2328.91,1974.323-2313.91,1984-2314L1984-2314z"/>
		</g>
	</g>
	<g display="inline">
		<g>
			<path fill="#C2B59B" d="M2080.494-2339.268c26.723-3.873,48.178-20.386,66.809-38.929c9.398-9.353,19.215-18.328,31.281-24.101
				c12.244-5.858,24.941-3.749,36.131,3.274c9.545,5.991,19.431,12.375,25.756,21.926c8.034,12.133,9.461,26.953,8.029,41.098
				c-1.219,12.039-7.044,23.27-13.336,33.383c-6.821,10.962-15.192,20.888-24.128,30.174c-9.981,10.374-21.442,18.807-32.339,28.14
				c-7.358,6.302,3.303,16.862,10.605,10.606c10.532-9.02,21.565-17.208,31.332-27.105c9.168-9.291,17.521-19.447,24.867-30.235
				c15.508-22.774,23.053-49.517,15.533-76.701c-3.438-12.429-10.878-23.437-20.777-31.602c-9.949-8.206-21.64-16.396-34.13-19.925
				c-27.291-7.708-51.513,12.624-69.431,30.461c-17,16.922-35.813,31.538-60.191,35.071c-4.053,0.588-6.219,5.661-5.238,9.227
				C2072.452-2340.201,2076.451-2338.682,2080.494-2339.268L2080.494-2339.268z"/>
		</g>
	</g>
	<g display="inline">
		<g>
			<path fill="#C2B59B" d="M2147.715-2231.476c-3.639,2.568-8.944,0.815-12.933-0.243c-5.235-1.389-10.339-3.347-15.468-5.081
				c-14.832-5.016-30.669-7.584-46.314-7.7c-9.676-0.071-9.669,14.929,0,15c16.153,0.12,31.632,3.461,46.865,8.685
				c10.538,3.614,25.121,9.558,35.42,2.291C2163.121-2224.053,2155.639-2237.067,2147.715-2231.476L2147.715-2231.476z"/>
		</g>
	</g>
	<g display="inline">
		<g>
			<path fill="#C2B59B" d="M2011.523-1513.285c-7.919,10.518-1.742,25.876,6.673,34.088c6.925,6.757,17.539-3.842,10.607-10.606
				c-3.925-3.83-8.143-10.845-4.327-15.912c2.465-3.274,0.527-8.375-2.691-10.261
				C2017.948-1518.224,2013.978-1516.544,2011.523-1513.285L2011.523-1513.285z"/>
		</g>
	</g>
	<g display="inline">
		<g>
			<path fill="#C2B59B" d="M2070.506-1512.768c7.156,2.063,11.586,7.097,9.479,14.753c-2.143,7.787-12.075,12.926-18.271,17.039
				c-8.018,5.322-0.515,18.319,7.57,12.952c10.735-7.126,23.088-15.011,25.781-28.618c2.92-14.745-6.869-26.642-20.572-30.59
				C2065.178-1529.917,2061.229-1515.441,2070.506-1512.768L2070.506-1512.768z"/>
		</g>
	</g>
	<g display="inline">
		<g>
			<path fill="#C2B59B" d="M2048.197-1456.697c12.015,12.888,27.311,21.849,41.347,32.274c14.919,11.081,29.95,22.149,46.671,30.399
				c8.642,4.264,16.245-8.672,7.57-12.952c-16.188-7.987-30.794-18.621-45.248-29.342c-13.49-10.008-28.195-18.608-39.734-30.985
				C2052.194-1474.392,2041.61-1463.761,2048.197-1456.697L2048.197-1456.697z"/>
		</g>
	</g>
	<g display="inline">
		<g>
			<path fill="#C2B59B" d="M1766-1474c39.748,0,79.502-0.014,119.235-1.24c19.354-0.597,38.595-0.207,57.935,0.706
				c9.62,0.453,19.239,0.929,28.865,1.241c10.133,0.328,20.371-0.189,30.465,0.793c9.627,0.938,9.537-14.071,0-15
				c-9.455-0.921-19.04-0.48-28.531-0.736c-9.631-0.26-19.256-0.747-28.879-1.207c-19.979-0.955-39.859-1.434-59.854-0.796
				c-39.73,1.267-79.489,1.24-119.235,1.24C1756.327-1489,1756.327-1474,1766-1474L1766-1474z"/>
		</g>
	</g>
</g>
<g id="Layer_3" display="none">
	<g display="inline">
		<path fill="none" stroke="#414042" stroke-width="2" stroke-miterlimit="10" d="M-165.333-2248.5
			c-16.285,0.027-32.558,0.662-48.837,0.98c-15.343,0.3-30.587-0.316-45.914-0.77c-24.565-0.727-50.08,1.946-71.218,15.492
			c-20.517,13.148-38.309,37.679-28.602,62.753c8.928,23.062,33.74,35.604,56.971,38.807c31.675,4.367,63.682,2.365,95.525,1.835
			c26.112-0.436,51.998-0.457,77.838-4.876c12.448-2.129,24.527-5.538,36.115-10.565c12.046-5.226,21.849-13.785,30.676-23.353
			c19.891-21.563,39.273-44.32,56.319-68.2c7.837-10.979,15.478-20.607,27.023-27.927c10.582-6.708,22.503-10.737,34.597-13.726
			c13.039-3.221,26.484-5.144,39.712-7.435c13.781-2.387,28.533-4.715,42.468-2.284c9.458,1.65,13.504-12.804,3.987-14.464
			c-26.235-4.578-54.064,2.634-79.825,7.489c-24.282,4.576-48.11,13.497-65.845,31.282c-10.091,10.119-17.31,23.046-26.106,34.26
			c-9.269,11.817-19.254,23.009-29.069,34.365c-8.711,10.079-17.004,21.006-27.68,29.137c-9.572,7.29-21.294,11.171-32.819,14.108
			c-24.259,6.184-49.736,7.024-74.65,7.089c-31.661,0.083-63.399,2.427-95.012-0.232c-21.754-1.83-49.652-9.059-56.991-32.839
			c-7.236-23.447,20.212-43.617,39.188-50.237c19.289-6.729,40.021-5.837,60.104-4.936c27.337,1.227,54.704-0.71,82.046-0.754
			C-155.661-2233.516-155.659-2248.516-165.333-2248.5L-165.333-2248.5z"/>
	</g>
	<g display="inline">
		<path fill="none" stroke="#414042" stroke-width="2" stroke-miterlimit="10" d="M856-2318.501c-31.92,0.521-63.438-5.869-95.333-6
			c-31.562-0.13-63.253,0.06-94.617,3.951c-31.978,3.967-62.414,13.1-92.585,24.172c-12.938,4.748-26.11,11.808-39.963,13.249
			c-12.535,1.304-24.485-1.452-34.914-8.488c-13.514-9.117-21.284-26.674-23.349-42.375c-0.964-7.33-0.198-13.234,5.072-18.684
			c4.933-5.099,11.93-8.217,18.47-10.669c7.717-2.894,15.572-5.007,23.832-3.388c8.316,1.63,15.485,6.584,21.703,12.122
			c7.224,6.432,13.872,13.731,20.657,20.626c6.738,6.846,13.067,14.029,17.218,22.771c4.146,8.734,17.077,1.118,12.951-7.57
			c-5.862-12.348-15.866-22.206-25.453-31.705c-9.292-9.207-17.968-19.054-29.525-25.517c-21.175-11.842-48.523-4.922-66.801,9.537
			c-8.765,6.934-14.009,16.832-13.529,28.137c0.536,12.629,4.468,25.164,10.397,36.256c12.526,23.431,36.988,36.078,63.271,33.948
			c11.824-0.958,22.27-5.576,33.219-9.761c13.172-5.034,26.454-9.781,39.883-14.087c26.756-8.58,53.948-13.694,81.957-15.789
			c27.656-2.068,55.887-2.599,83.6-1.471c28.017,1.14,55.739,6.195,83.84,5.736C865.663-2303.659,865.678-2318.659,856-2318.501
			L856-2318.501z"/>
	</g>
	<g display="inline">
		<path fill="none" stroke="#414042" stroke-width="2" stroke-miterlimit="10" d="M606.882-2273.191
			c3.37,2.489,5.195,7.255,7.153,10.81c2.832,5.142,6.493,9.896,10.063,14.542c7.353,9.57,15.559,18.372,24.055,26.928
			c18.503,18.637,35.386,38.618,53.211,57.881c6.583,7.114,17.165-3.52,10.607-10.606c-17.825-19.263-34.662-39.291-53.212-57.881
			c-8.836-8.855-17.435-18.009-24.869-28.09c-6.491-8.801-10.464-19.909-19.438-26.535c-3.296-2.434-8.361-0.553-10.261,2.69
			C601.958-2279.64,603.6-2275.615,606.882-2273.191L606.882-2273.191z"/>
	</g>
	<g display="inline">
		<path fill="none" stroke="#414042" stroke-width="2" stroke-miterlimit="10" d="M1550.668-2316.5
			c-13.828-0.988-27.812-0.667-41.668-0.667c-9.673,0-9.673,15,0,15c13.856,0,27.84-0.321,41.668,0.667
			C1560.325-2300.811,1560.259-2315.815,1550.668-2316.5L1550.668-2316.5z"/>
	</g>
	<g display="inline">
		<path fill="none" stroke="#414042" stroke-width="2" stroke-miterlimit="10" d="M1460.662-2317.566
			c-30.469-4.508-60.686,1.059-91.12,2.886c-13.999,0.84-27.547,2.947-41.003,6.971c-12.906,3.859-25.344,9.188-37.665,14.588
			c-23.975,10.505-48.62,22.595-74.878,26.055c-12.193,1.606-24.98,0.277-34.691-7.903c-9.122-7.685-15.846-18.327-16.957-30.404
			c-2.502-27.18,27.77-47.145,51.735-49.398c13.21-1.242,26.007,2.406,35.151,12.281c10.42,11.251,15.223,26.803,24.797,38.795
			c2.555,3.2,7.959,2.648,10.607,0c3.13-3.13,2.548-7.415,0-10.606c-6.922-8.67-11.192-19.263-17.106-28.599
			c-6.384-10.077-14.688-18.136-25.772-22.769c-19.718-8.242-42.67-3.938-60.801,6.262c-18.804,10.579-34.205,30.248-33.695,52.578
			c0.587,25.716,21.356,50.074,46.623,54.422c20.758,3.572,42.897-3.537,62.19-10.65c20.134-7.423,39.269-17.263,59.29-24.962
			c10.032-3.857,20.313-7.029,30.843-9.204c11.17-2.308,22.566-2.412,33.894-3.388c24.657-2.124,49.861-6.145,74.57-2.488
			c4.041,0.598,8.045-0.942,9.227-5.238C1466.883-2311.914,1464.713-2316.967,1460.662-2317.566L1460.662-2317.566z"/>
	</g>
	<g display="inline">
		<path fill="none" stroke="#414042" stroke-width="2" stroke-miterlimit="10" d="M1302.031-2266.364
			c16.619,17.876,31.688,36.989,45.209,57.309c6.574,9.878,13.796,18.934,22.104,27.417c8.572,8.754,17.682,16.954,26.021,25.941
			c6.593,7.104,17.175-3.527,10.607-10.606c-7.95-8.567-16.55-16.475-24.817-24.727c-8.816-8.8-16.029-18.256-22.95-28.572
			c-13.619-20.3-28.926-39.469-45.565-57.368C1306.039-2284.069,1295.456-2273.438,1302.031-2266.364L1302.031-2266.364z"/>
	</g>
	<g display="inline">
		<path fill="none" stroke="#414042" stroke-width="2" stroke-miterlimit="10" d="M2092.479-2312.119
			c-5.299-11.955-16.525-19.395-25.451-28.407c-9.496-9.589-18.683-19.116-29.821-26.864c-10.523-7.319-23.427-12.996-36.479-11.726
			c-11.836,1.152-22.036,7.713-29.589,16.67c-8.534,10.122-14.638,22.896-15.59,36.17c-0.978,13.624,5.958,26.124,13.454,36.891
			c13.666,19.631,35.652,30.464,59.138,32.505c34.757,3.021,62.162-18.33,90.738-34.524c14.523-8.229,30.028-14.884,46.805-16.466
			c21.106-1.99,42.696,1.513,63.652,3.703c4.074,0.426,7.5-3.734,7.5-7.5c0-4.41-3.436-7.075-7.5-7.5
			c-29.467-3.079-59.882-7.981-88.71,1.392c-24.635,8.01-45.515,24.054-68.162,36.114c-20.096,10.7-42.955,13.246-64.419,5.009
			c-9.843-3.777-18.899-10.791-25.261-19.163c-7.533-9.915-14.204-21.65-11.694-34.508c2.15-11.018,9.72-23.034,19.017-29.419
			c10.521-7.224,22.095-4.61,32.651,1.059c11.732,6.301,21.332,15.91,30.478,25.42c8.773,9.122,21.043,16.875,26.29,28.715
			c1.658,3.739,7.034,4.582,10.262,2.691C2093.604-2304.094,2094.135-2308.382,2092.479-2312.119L2092.479-2312.119z"/>
	</g>
	<g display="inline">
		<path fill="none" stroke="#414042" stroke-width="2" stroke-miterlimit="10" d="M2264.5-2301.75
			c29.369,0.128,58.914,6.437,88.163,1.314c9.516-1.666,5.47-16.12-3.988-14.464c-27.68,4.847-56.35-1.729-84.175-1.851
			C2254.825-2316.792,2254.829-2301.792,2264.5-2301.75L2264.5-2301.75z"/>
	</g>
	<g display="inline">
		<path fill="none" stroke="#414042" stroke-width="2" stroke-miterlimit="10" d="M2108.675-2266.436
			c4.762,1.674,8.627,5.769,12.35,9.016c4.845,4.226,10.101,7.986,15.229,11.857c10.089,7.616,19.279,15.786,27.282,25.6
			c13.946,17.103,25.807,36.69,45.349,48.105c8.37,4.889,15.916-8.078,7.57-12.952c-19.443-11.357-31.056-32.448-45.201-49.247
			c-8.344-9.908-18.567-17.768-28.854-25.533c-9.491-7.165-18.349-17.306-29.736-21.31
			C2103.513-2284.116,2099.613-2269.621,2108.675-2266.436L2108.675-2266.436z"/>
	</g>
	<g display="inline">
		<path fill="none" stroke="#414042" stroke-width="2" stroke-miterlimit="10" d="M1968.031-1563.698
			c13.303,12.438,29.563,20.86,43.49,32.471c15.609,13.015,29.189,28.236,45.178,40.862c3.205,2.531,7.465,3.142,10.605,0
			c2.637-2.637,3.215-8.068,0-10.606c-15.538-12.271-29.141-26.64-43.912-39.774c-13.98-12.432-31.069-20.763-44.754-33.56
			C1971.582-1580.902,1960.953-1570.317,1968.031-1563.698L1968.031-1563.698z"/>
	</g>
	<g display="inline">
		<path fill="none" stroke="#414042" stroke-width="2" stroke-miterlimit="10" d="M2040.193-1488.12
			c-4.959,8.741-11.207,17.254-13.443,27.219c-2.506,11.163,2.559,21.058,10.615,28.537c7.078,6.57,17.71-4.013,10.607-10.606
			c-5.662-5.255-8.16-10.128-5.75-17.633c2.281-7.1,7.271-13.509,10.922-19.945
			C2057.925-1488.975,2044.965-1496.531,2040.193-1488.12L2040.193-1488.12z"/>
	</g>
	<g display="inline">
		<path fill="none" stroke="#414042" stroke-width="2" stroke-miterlimit="10" d="M2086.033-1461.031
			c-0.816-1.036,0.979,1.383,1.136,1.607c0.69,0.991,1.327,2.019,1.952,3.053c1.368,2.26,2.312,4.249,2.982,6.697
			c2.555,9.317,17.025,5.357,14.465-3.987c-1.842-6.72-5.667-12.563-9.93-17.977c-2.533-3.218-7.973-2.633-10.605,0
			C2082.888-1468.493,2083.506-1464.24,2086.033-1461.031L2086.033-1461.031z"/>
	</g>
	<g display="inline">
		<path fill="none" stroke="#414042" stroke-width="2" stroke-miterlimit="10" d="M2105.342-1469.103
			c38.569,7.317,77.229-0.8,115.682-4.7c41.087-4.167,81.877,1.635,122.979,1.635c9.673,0,9.673-15,0-15
			c-39.908,0-79.531-5.528-119.438-1.973c-38.09,3.393-77.033,12.821-115.233,5.574
			C2099.879-1485.359,2095.846-1470.904,2105.342-1469.103L2105.342-1469.103z"/>
	</g>
	<g display="inline">
		<path fill="none" stroke="#414042" stroke-width="2" stroke-miterlimit="10" d="M1279.233-1483.662
			c-2.914-7.181-8.49-11.566-14.658-15.958c-6.841-4.87-13.578-9.855-20.789-14.176c-14.703-8.81-32.452-16.009-49.814-12.836
			c-14.955,2.733-26.63,15.143-30.246,29.563c-4.196,16.733,3.221,31.328,14.305,43.369c6.564,7.131,17.145-3.504,10.607-10.606
			c-7.582-8.236-12.832-17.244-10.448-28.775c2.196-10.619,10.736-17.436,21.064-19.323c5.513-1.007,11.502,0.741,16.724,2.287
			c7.15,2.118,13.816,5.535,20.237,9.274c5.686,3.311,11.018,7.149,16.314,11.037c3.549,2.605,10.488,5.816,12.239,10.131
			c1.536,3.785,4.936,6.418,9.227,5.238C1277.59-1475.425,1280.772-1479.867,1279.233-1483.662L1279.233-1483.662z"/>
	</g>
	<g display="inline">
		<path fill="none" stroke="#414042" stroke-width="2" stroke-miterlimit="10" d="M1224.667-1440.834c6.223,0,12.444,0,18.667,0
			c9.673,0,9.673-15,0-15c-6.223,0-12.444,0-18.667,0C1214.994-1455.834,1214.994-1440.834,1224.667-1440.834L1224.667-1440.834z"/>
	</g>
	<g display="inline">
		<path fill="none" stroke="#414042" stroke-width="2" stroke-miterlimit="10" d="M1281.786-1456.525
			c5.017-2.486,10.077-4.617,15.542-5.911c9.41-2.228,5.418-16.691-3.988-14.464c-6.679,1.582-12.993,4.384-19.124,7.422
			c-3.661,1.814-4.648,6.919-2.69,10.262C1273.695-1455.512,1278.123-1454.71,1281.786-1456.525L1281.786-1456.525z"/>
	</g>
	<g display="inline">
		<path fill="none" stroke="#414042" stroke-width="2" stroke-miterlimit="10" d="M1306.452-1447.192
			c20.969-9.222,13.811-42.802,9.514-59.724c-3.984-15.694-10.861-30.563-19.076-44.463c-8.827-14.935-15.708-31.228-25.747-45.408
			c-5.539-7.825-18.555-0.344-12.951,7.571c9.085,12.833,14.598,27.615,22.958,40.851c8.434,13.352,15.262,27.49,19.619,42.691
			c2.359,8.228,3.997,16.751,4.496,25.299c0.437,7.498,0.341,17.274-6.383,20.231c-3.744,1.647-4.577,7.042-2.69,10.261
			C1298.431-1446.059,1302.71-1445.546,1306.452-1447.192L1306.452-1447.192z"/>
	</g>
	<g display="inline">
		<path fill="none" stroke="#414042" stroke-width="2" stroke-miterlimit="10" d="M1358.667-1471.501
			c62.872,0.041,126.093,4.034,188.667-4c4.054-0.521,7.5-3.018,7.5-7.5c0-3.693-3.435-8.022-7.5-7.5
			c-62.574,8.034-125.795,4.041-188.667,4C1348.994-1486.508,1348.994-1471.508,1358.667-1471.501L1358.667-1471.501z"/>
	</g>
	<g display="inline">
		<path fill="none" stroke="#414042" stroke-width="2" stroke-miterlimit="10" d="M589.81-1488.12
			c-10.188-13.899-16.64-29.831-30.496-40.795c-12.687-10.038-28.076-14.162-43.318-18.651c-9.302-2.74-13.245,11.737-3.988,14.464
			c12.93,3.809,25.836,7.1,36.971,15.031c13.017,9.271,18.724,25.03,27.881,37.522c2.411,3.29,6.458,4.918,10.261,2.69
			C590.372-1479.764,592.232-1484.815,589.81-1488.12L589.81-1488.12z"/>
	</g>
	<g display="inline">
		<path fill="none" stroke="#414042" stroke-width="2" stroke-miterlimit="10" d="M468.858-1526.12
			c-11.426,15.93-6.667,42.486,2.913,58.171c11.588,18.971,32.847,25.557,53.568,28.847c4.034,0.641,8.053-0.973,9.227-5.238
			c0.991-3.605-1.195-8.584-5.238-9.226c-15.648-2.484-32.966-6.028-42.984-19.547c-8.411-11.351-13.359-33.13-4.534-45.435
			C487.46-1526.427,474.441-1533.904,468.858-1526.12L468.858-1526.12z"/>
	</g>
	<g display="inline">
		<path fill="none" stroke="#414042" stroke-width="2" stroke-miterlimit="10" d="M572.452-1443.191
			c19.813-10.199,40.23-19.142,60.667-28c3.754-1.627,4.568-7.056,2.69-10.262c-2.248-3.837-6.51-4.316-10.261-2.69
			c-20.438,8.859-40.855,17.801-60.667,28C556.279-1451.715,563.868-1438.772,572.452-1443.191L572.452-1443.191z"/>
	</g>
	<g display="inline">
		<path fill="none" stroke="#414042" stroke-width="2" stroke-miterlimit="10" d="M604.882-1442.525
			c20.257,8.976,28.634,30.714,39.926,48.221c14.249,22.092,35.115,37.993,53.89,55.939c6.989,6.681,17.611-3.911,10.607-10.606
			c-18.842-18.011-39.726-33.831-53.664-56.252c-11.719-18.851-21.689-40.728-43.188-50.254c-3.737-1.656-8.025-1.126-10.261,2.691
			C600.301-1449.559,601.143-1444.182,604.882-1442.525L604.882-1442.525z"/>
	</g>
	<g display="inline">
		<path fill="none" stroke="#414042" stroke-width="2" stroke-miterlimit="10" d="M672.667-1474.167
			c30.962,0.036,61.887,1.694,92.832,2.491c29.151,0.75,58.901-1.72,87.841,2.574c4.041,0.6,8.045-0.943,9.227-5.238
			c0.983-3.575-1.188-8.625-5.238-9.226c-29.104-4.319-58.608-2.378-87.914-3.017c-32.255-0.704-64.478-2.547-96.747-2.584
			C662.993-1489.179,662.994-1474.179,672.667-1474.167L672.667-1474.167z"/>
	</g>
	<g display="inline">
		<path fill="none" stroke="#414042" stroke-width="2" stroke-miterlimit="10" d="M-105.302-1440.365
			c18.765,15.291,30.959,36.648,44.638,56.229c6.48,9.278,14.292,17.109,22.266,25.085c7.574,7.576,15.631,15.683,19.167,26.042
			c3.106,9.1,17.598,5.192,14.464-3.987c-7.812-22.885-29.519-35.659-42.946-54.711c-14.466-20.526-27.25-43.185-46.983-59.265
			c-3.166-2.58-7.498-3.109-10.606,0C-107.972-1448.302-108.476-1442.951-105.302-1440.365L-105.302-1440.365z"/>
	</g>
	<g display="inline">
		<path fill="none" stroke="#414042" stroke-width="2" stroke-miterlimit="10" d="M31.334-1472.168
			c18.668-0.509,37.209,1.509,55.691,3.919c8.824,1.151,17.326,1.379,26.209,0.819c9.074-0.573,18.383-1.695,27.439-0.34
			c4.04,0.604,8.045-0.946,9.226-5.238c0.985-3.579-1.188-8.62-5.238-9.226c-18.576-2.78-37.141,1.699-55.751-0.767
			c-19.101-2.532-38.276-4.694-57.576-4.167C21.681-1486.905,21.655-1471.904,31.334-1472.168L31.334-1472.168z"/>
	</g>
	<g display="inline">
		<path fill="none" stroke="#414042" stroke-width="2" stroke-miterlimit="10" d="M-11.333-1491.168
			c-25.442,0.04-51.086,1.843-75.455,9.649c-24.278,7.777-46.627,21.189-71.873,25.952c-9.499,1.792-5.464,16.247,3.987,14.464
			c24.006-4.529,45.622-16.744,68.485-24.81c24.074-8.493,49.525-10.216,74.854-10.256
			C-1.66-1476.183-1.659-1491.183-11.333-1491.168L-11.333-1491.168z"/>
	</g>
	<g display="inline">
		<path fill="none" stroke="#414042" stroke-width="2" stroke-miterlimit="10" d="M-197.333-1450.501
			c-9.261-0.088-17.912-1.948-25.49-7.466c-6.297-4.586-9.912-12.427-12.069-19.654c-2.477-8.299-4.249-18.517-2.236-27.057
			c1.638-6.949,6.563-12.121,12.544-15.722c13.619-8.199,32.012-8.284,46.708-3.241c9.88,3.391,19.016,11.082,26.788,17.835
			c9.404,8.171,17.657,17.733,22.612,29.258c1.616,3.758,7.064,4.563,10.261,2.69c3.846-2.253,4.306-6.505,2.691-10.262
			c-5.212-12.123-14.072-22.388-23.74-31.209c-8.763-7.997-19.058-16.203-30.021-20.936c-16.912-7.301-37.478-7.7-54.653-0.981
			c-18.515,7.243-29.933,22.806-28.75,42.963c1.175,20.03,7.807,40.701,25.82,51.611c8.796,5.328,19.406,7.074,29.536,7.17
			C-187.656-1435.41-187.665-1450.41-197.333-1450.501L-197.333-1450.501z"/>
	</g>
	<g display="inline">
		<path fill="none" stroke="#414042" stroke-width="2" stroke-miterlimit="10" d="M-450.5-2295.5
			c30.903,0.417,62.086-7.984,91.479-16.843c13.949-4.204,27.676-9.572,40.34-16.815c12.844-7.346,24.102-16.831,35.313-26.409
			c11.136-9.514,22.294-18.908,33.315-28.558c5.367-4.7,11.24-8.796,16.819-13.238c5.931-4.722,11.129-10.03,16.498-15.352
			c19.116-18.948,44.133-27.389,69.544-34.261c30.873-8.35,62.485-13.86,94.213-17.712c27.365-3.321,55.634-5.862,83-1.616
			c18.913,2.935,38.516,8.168,54.368,19.271c6.627,4.641,12.011,11.116,14.135,18.992c2.808,10.414-5.78,20.325-13.674,25.776
			c-17.65,12.187-42.366,10.278-62.736,10.265c-23.063-0.015-46.351-0.157-69.12-4.23c-9.456-1.691-13.499,12.763-3.987,14.465
			c30.086,5.382,61.147,5.252,91.615,4.672c25.847-0.493,55.926-5.786,69.225-30.896c11.077-20.915-2.41-41.55-19.768-53.289
			c-16.345-11.054-36.813-16.396-56.07-19.488c-27.577-4.427-55.555-2.553-83.164,0.629c-31.833,3.668-63.499,8.926-94.585,16.757
			c-26.441,6.661-52.435,14.813-74.202,31.773c-5.048,3.934-9.629,8.4-14.028,13.036c-5.273,5.557-11.389,10.336-17.475,14.959
			c-11.731,8.911-22.216,19.206-33.716,28.396c-11.479,9.173-22.097,19.387-34.261,27.686
			c-12.438,8.485-26.303,14.446-40.549,19.139c-14.276,4.704-29.013,8.262-43.634,11.714c-16.083,3.796-32.33,6.403-48.895,6.179
			C-460.178-2310.631-460.165-2295.631-450.5-2295.5L-450.5-2295.5z"/>
	</g>
	<g display="inline">
		<path fill="none" stroke="#414042" stroke-width="2" stroke-miterlimit="10" d="M266.494-2297.768
			c13.981-3.363,28.656-0.985,42.818-3.233c15.401-2.444,30.363-7.475,44.867-13.082c13.04-5.041,26.234-10.272,38.011-17.892
			c10.495-6.79,19.934-15.192,28.783-23.978c17.664-17.539,32.939-37.393,51.659-53.879c19.251-16.954,42.952-27.498,67.443-34.408
			c24.893-7.024,50.704-10.153,76.448-11.89c15.537-1.048,31.037-2.078,46.553-3.45c16.067-1.421,32.169-2.518,48.305-1.855
			c13.207,0.542,26.111,3.182,39.071,5.585c10.099,1.872,20.479,3.942,29.969,7.99c9.198,3.924,17.221,9.759,22.517,18.347
			c2.343,3.8,3.975,7.976,5.043,12.299c0.71,2.875,0.67,6.078,0.203,8.113c-0.715,3.12-3.107,6.203-5.438,7.918
			c-4.35,3.202-8.018,4.475-13.077,5.935c-11.71,3.376-23.903,3.891-36.125,3.868c-11.624-0.022-23.136-1.146-34.699-2.176
			c-20.279-1.807-40.61-3.161-60.845-5.442c-4.071-0.459-7.5,3.759-7.5,7.5c0,4.435,3.438,7.042,7.5,7.5
			c23.809,2.684,47.745,4.267,71.603,6.454c15.079,1.383,30.374,1.749,45.446,0.121c14.415-1.558,31.568-4.776,41.557-16.348
			c12.036-13.943,6.319-34.11-3.589-47.571c-13.214-17.954-35.163-24.428-56.07-28.496c-12.522-2.437-25.126-4.921-37.836-6.088
			c-16.061-1.476-32.266-0.576-48.306,0.694c-16.103,1.275-32.159,3.051-48.305,3.734c-12.735,0.539-25.498,1.828-38.139,3.433
			c-26.229,3.33-52.218,8.912-76.631,19.269c-21.344,9.055-39.872,21.982-56.289,38.302c-15.999,15.905-30.07,33.63-46.458,49.162
			c-7.778,7.371-16.121,14.012-25.339,19.496c-11.348,6.751-24.169,11.413-36.52,15.958c-13.057,4.806-27.017,9.457-40.94,10.719
			c-13.259,1.202-26.606-0.215-39.678,2.929C253.104-2309.97,257.093-2295.506,266.494-2297.768L266.494-2297.768z"/>
	</g>
	<g display="inline">
		<path fill="none" stroke="#414042" stroke-width="2" stroke-miterlimit="10" d="M954.5-2301
			c15.534-0.113,30.825-2.749,46.184-4.785c14.981-1.985,29.746-2.28,44.837-1.942c31.494,0.705,62.984-0.744,94.479-0.773
			c9.673-0.009,9.674-15.009,0-15c-31.495,0.029-62.985,1.479-94.479,0.773c-15.104-0.339-29.841,0.019-44.837,1.942
			c-15.374,1.972-30.639,4.671-46.184,4.785C944.831-2315.93,944.824-2300.93,954.5-2301L954.5-2301z"/>
	</g>
	<g display="inline">
		<path fill="none" stroke="#414042" stroke-width="2" stroke-miterlimit="10" d="M1173-2307.5
			c13.316-0.082,26.12-2.069,38.566-6.875c12.006-4.637,25.024-5.917,36.928-10.893c3.769-1.576,6.427-4.904,5.238-9.227
			c-0.98-3.563-5.446-6.818-9.227-5.238c-10.839,4.531-22.57,6.226-33.729,9.775c-6.195,1.972-12.07,4.402-18.459,5.781
			c-6.339,1.367-12.854,1.636-19.318,1.676C1163.33-2322.44,1163.324-2307.44,1173-2307.5L1173-2307.5z"/>
	</g>
	<g display="inline">
		<path fill="none" stroke="#414042" stroke-width="2" stroke-miterlimit="10" d="M1280-2334.5
			c12.267,0.813,24.596-7.07,35.146-12.444c11.447-5.831,21.134-14.821,29.282-24.629c8.194-9.864,14.938-20.821,23.257-30.597
			c8.35-9.813,18.089-17.554,29.148-24.1c22.087-13.075,50.657-24.918,76.674-18.665c21.782,5.236,38.301,22.608,42.521,44.517
			c4.977,25.832-6.481,52.573-23.016,71.875c-19.781,23.094-47.135,38.463-70.317,57.74c-7.445,6.191,3.228,16.743,10.607,10.606
			c22.479-18.692,48.247-33.717,68.191-55.349c17.989-19.511,29.651-44.292,30.401-71.019c0.705-25.099-10.272-47.641-30.736-62.162
			c-21.09-14.966-46.921-14.983-70.938-8.328c-17.059,4.727-33.482,12.728-48.289,22.359c-12.9,8.392-23.187,19.365-32.52,31.476
			c-9.401,12.198-17.463,25.009-29.32,35.085c-5.713,4.855-12.324,8.103-19.005,11.366c-6.541,3.195-13.532,7.769-21.089,7.268
			C1270.338-2350.141,1270.4-2335.137,1280-2334.5L1280-2334.5z"/>
	</g>
	<g display="inline">
		<path fill="none" stroke="#414042" stroke-width="2" stroke-miterlimit="10" d="M1188-1501
			c2.872,51.73,25.088,99.234,41.768,147.494c3.14,9.084,17.633,5.18,14.465-3.987c-16.174-46.796-38.447-93.348-41.232-143.506
			C1202.466-1510.617,1187.463-1510.669,1188-1501L1188-1501z"/>
	</g>
	<g display="inline">
		<path fill="none" stroke="#414042" stroke-width="2" stroke-miterlimit="10" d="M1217.785-1482.024c4.021-2.903,8.664-4.648,13-7
			c3.59-1.947,4.707-6.82,2.691-10.261c-2.114-3.608-6.668-4.641-10.262-2.691c-4.336,2.352-8.979,4.097-13,7
			c-3.308,2.388-4.907,6.478-2.691,10.261C1209.44-1481.443,1214.464-1479.626,1217.785-1482.024L1217.785-1482.024z"/>
	</g>
	<g display="inline">
		<path fill="none" stroke="#414042" stroke-width="2" stroke-miterlimit="10" d="M1260-1503c7.221-0.158,17.503-4.077,24.215-0.524
			c8.542,4.521,16.122-8.426,7.57-12.952c-10.278-5.44-20.892-1.762-31.785-1.524C1250.342-1517.789,1250.321-1502.788,1260-1503
			L1260-1503z"/>
	</g>
	<g display="inline">
		<path fill="none" stroke="#414042" stroke-width="2" stroke-miterlimit="10" d="M1227.696-1474.197
			c6.409,7.055,14.501,11.995,21.929,17.85c7.396,5.83,14.221,12.31,22.021,17.63c13.446,9.17,30.117,12.566,45.977,8.942
			c14.247-3.255,25.954-13.316,30.779-27.1c2.636-7.528,2.639-17.057,0.141-24.597c-1.472-4.443-4.363-8.17-7.739-11.333
			c-1.204-1.127-3.544-2.852-6.449-4.217c-3.977-1.87-7.493-2.365-10.658,0.217c-0.078,0.064-0.157,0.128-0.236,0.193
			c-2.647,2.161-2.643,6.332-1.173,9.089c1.251,2.346,3.561,3.505,5.844,4.585c2.542,1.203,4.069,2.377,5.574,4.817
			c2.906,4.712,1.77,12.265,0.233,17.257c-3.184,10.346-13.86,15.593-23.753,17.317c-12.483,2.176-24.761-3.471-34.555-10.664
			c-6.332-4.65-11.99-10.181-18.231-14.953c-6.575-5.026-13.493-9.473-19.096-15.641
			C1231.786-1491.978,1221.21-1481.338,1227.696-1474.197L1227.696-1474.197z"/>
	</g>
	<g display="inline">
		<path fill="none" stroke="#414042" stroke-width="2" stroke-miterlimit="10" d="M953-1469.5
			c33.434,0.035,66.831,1.782,100.256,2.348c16.69,0.283,33.334,0.962,50.017,1.385c16.339,0.415,49.03-2.733,49.228-2.733
			c9.673,0,9.146-14.721-0.5-15c-15.659-0.453-31.146,2.881-46.828,2.766c-16.643-0.123-33.295-1.156-49.947-1.387
			c-34.084-0.473-68.133-2.343-102.225-2.378C943.326-1484.51,943.327-1469.51,953-1469.5L953-1469.5z"/>
	</g>
	<g display="inline">
		<path fill="none" stroke="#414042" stroke-width="2" stroke-miterlimit="10" d="M398.197-1614.697
			c18.029,17.421,39.927,30.215,57.632,47.996c9.782,9.825,18.181,21.098,27.565,31.32c4.085,4.449,8.09,8.804,11.826,13.552
			c3.343,4.248,6.823,8.458,11.494,11.305c8.283,5.048,15.814-7.928,7.57-12.952c-3.819-2.328-6.622-6.627-9.344-10.085
			c-3.434-4.364-7.173-8.349-10.94-12.426c-9.434-10.21-17.883-21.362-27.565-31.32c-17.485-17.982-39.615-30.586-57.632-47.996
			C401.848-1632.024,391.23-1621.428,398.197-1614.697L398.197-1614.697z"/>
	</g>
	<g display="inline">
		<path fill="none" stroke="#414042" stroke-width="2" stroke-miterlimit="10" d="M488.994-1483.268
			c19.531-4.42,38.854-9.63,58-15.5c9.22-2.827,5.285-17.307-3.988-14.464c-19.145,5.87-38.468,11.08-58,15.5
			C475.573-1495.597,479.574-1481.136,488.994-1483.268L488.994-1483.268z"/>
	</g>
	<g display="inline">
		<path fill="none" stroke="#414042" stroke-width="2" stroke-miterlimit="10" d="M585-1507.5
			c18.873,0.208,40.876,7.6,55.283,19.978c15.229,13.083,8.918,36.347,2.984,52.529c-3.338,9.102,11.163,12.991,14.465,3.987
			c7.705-21.012,12.139-47.573-4.906-65.324c-8.329-8.675-20.063-14.121-31.062-18.467c-11.588-4.579-24.271-7.564-36.765-7.702
			C575.323-1522.606,575.333-1507.606,585-1507.5L585-1507.5z"/>
	</g>
	<g display="inline">
		<path fill="none" stroke="#414042" stroke-width="2" stroke-miterlimit="10" d="M521.024-1479.215
			c10.999,19.846,24.891,39.232,41.032,55.235c16.131,15.991,38.246,28.109,61.438,22.211c9.369-2.382,5.393-16.85-3.988-14.464
			c-19.019,4.836-36.395-7.69-49.055-20.577c-14.346-14.603-26.573-32.111-36.476-49.976
			C529.287-1495.246,516.331-1487.682,521.024-1479.215L521.024-1479.215z"/>
	</g>
	<g display="inline">
		<path fill="none" stroke="#414042" stroke-width="2" stroke-miterlimit="10" d="M265-1473.5
			c30.728,1.351,61.437,3.311,92.208,3.152c31.886-0.164,63.451-5.652,95.292-5.652c9.673,0,9.673-15,0-15
			c-15.673,0-31.261,1.659-46.845,3.139c-16.119,1.53-32.256,2.383-48.447,2.513c-30.766,0.248-61.488-1.801-92.208-3.152
			C255.325-1488.925,255.366-1473.924,265-1473.5L265-1473.5z"/>
	</g>
	<g display="inline">
		<path fill="none" stroke="#414042" stroke-width="2" stroke-miterlimit="10" d="M-196.732-1462.506
			c2.43,8.744,7.604,15.972,12.938,23.161c5.919,7.976,10.522,16.278,14.34,25.452c7.183,17.254,12.979,37.295,28.475,49.087
			c11.806,8.984,27.128,11.568,41.643,10.758c7.739-0.432,15.463-1.884,22.918-3.967c7.06-1.973,15.081-4.377,20.721-9.182
			c7.375-6.282-3.289-16.84-10.606-10.606c-3.706,3.157-10.725,4.381-15.288,5.656c-6.216,1.737-12.557,2.81-18.998,3.169
			c-12.065,0.673-24.867-1.57-34.039-9.966c-5.347-4.895-8.595-11.727-11.67-18.167c-4.011-8.396-7.163-17.197-10.79-25.762
			c-3.45-8.147-7.574-15.633-12.806-22.765c-4.77-6.501-10.178-12.957-12.374-20.857
			C-184.854-1475.801-199.327-1471.843-196.732-1462.506L-196.732-1462.506z"/>
	</g>
	<g display="inline">
		<path fill="none" stroke="#414042" stroke-width="2" stroke-miterlimit="10" d="M-30.506-1382.768
			c24.071-5.686,41.78-26.529,49.232-49.358c7.813-23.939,0.469-51.502-13.241-71.824c-6.705-9.939-15.47-18.865-26.205-24.376
			c-10.279-5.278-21.805-7.361-33.237-8.098c-22.855-1.474-46.317,3.503-68.107,10.003c-1.816,0.542-3.625,1.112-5.43,1.69
			c-9.176,2.936-5.252,17.42,3.987,14.464c18.881-6.041,38.43-10.562,58.299-11.286c9.858-0.36,19.667,0.429,29.161,3.187
			c9.859,2.864,17.529,8.743,24.246,16.365c13.865,15.732,21.88,39.818,17.485,60.598c-4.256,20.12-19.715,39.338-40.179,44.172
			C-43.906-1395.009-39.914-1380.546-30.506-1382.768L-30.506-1382.768z"/>
	</g>
	<g display="inline">
		<path fill="none" stroke="#414042" stroke-width="2" stroke-miterlimit="10" d="M-454-1472.5
			c16.431-0.053,32.813-1.327,49.219-2.067c16.263-0.734,32.492-0.256,48.749,0.354c32.038,1.201,64.679,1.929,96.532-2.286
			c4.052-0.536,7.5-3.006,7.5-7.5c0-3.682-3.436-8.038-7.5-7.5c-31.854,4.215-64.494,3.482-96.532,2.286
			c-16.264-0.607-32.479-1.037-48.749-0.354c-16.411,0.689-32.785,2.015-49.219,2.067
			C-463.671-1487.469-463.674-1472.469-454-1472.5L-454-1472.5z"/>
	</g>
	<g display="inline">
		<path fill="none" stroke="#414042" stroke-width="2" stroke-miterlimit="10" d="M-223.006-1482.768
			c18.836-4.955,38.545-6.03,57-12.5c9.066-3.178,5.166-17.673-3.987-14.464c-18.456,6.47-38.164,7.545-57,12.5
			C-236.341-1494.773-232.372-1480.305-223.006-1482.768L-223.006-1482.768z"/>
	</g>
	<g display="inline">
		<path fill="none" stroke="#414042" stroke-width="2" stroke-miterlimit="10" d="M1761.006-2302.768
			c13.525,3.218,27.324,0.919,40.994,0.268c17.069-0.814,34.098-1.449,51.188-1.758c16.297-0.294,32.527-0.509,48.827-0.124
			c8.411,0.199,16.821,0.387,25.234,0.371c7.703-0.015,16.212,0.51,23.745-1.257c9.415-2.209,5.422-16.672-3.988-14.465
			c-6.693,1.57-14.826,0.712-21.688,0.725c-7.769,0.015-15.538-0.189-23.304-0.374c-16.3-0.387-32.53-0.177-48.827,0.124
			c-15.758,0.291-31.516,0.537-47.25,1.494c-13.272,0.808-27.842,3.65-40.943,0.532
			C1755.589-2319.47,1751.598-2305.007,1761.006-2302.768L1761.006-2302.768z"/>
	</g>
	<g display="inline">
		<path fill="none" stroke="#414042" stroke-width="2" stroke-miterlimit="10" d="M1982-2310
			c21.69-0.201,42.443-6.441,62.994-12.768c9.215-2.838,5.282-17.318-3.988-14.465c-19.258,5.93-38.674,12.044-59.006,12.232
			C1972.332-2324.91,1972.323-2309.91,1982-2310L1982-2310z"/>
	</g>
	<g display="inline">
		<path fill="none" stroke="#414042" stroke-width="2" stroke-miterlimit="10" d="M2078.494-2335.268
			c26.723-3.873,48.178-20.386,66.809-38.929c9.398-9.353,19.215-18.328,31.281-24.101c12.244-5.858,24.941-3.749,36.131,3.274
			c9.545,5.991,19.431,12.375,25.756,21.926c8.034,12.133,9.461,26.953,8.029,41.098c-1.219,12.039-7.044,23.27-13.336,33.383
			c-6.821,10.962-15.192,20.888-24.128,30.174c-9.981,10.374-21.442,18.807-32.339,28.14c-7.358,6.302,3.303,16.862,10.605,10.606
			c10.532-9.02,21.565-17.208,31.332-27.105c9.168-9.291,17.521-19.447,24.867-30.235c15.508-22.774,23.053-49.517,15.533-76.701
			c-3.438-12.429-10.878-23.437-20.777-31.602c-9.949-8.206-21.64-16.396-34.13-19.925c-27.291-7.708-51.513,12.624-69.431,30.461
			c-17,16.922-35.813,31.538-60.191,35.071c-4.053,0.588-6.219,5.661-5.238,9.227
			C2070.452-2336.201,2074.451-2334.682,2078.494-2335.268L2078.494-2335.268z"/>
	</g>
	<g display="inline">
		<path fill="none" stroke="#414042" stroke-width="2" stroke-miterlimit="10" d="M2145.715-2227.476
			c-3.639,2.568-8.944,0.815-12.933-0.243c-5.235-1.389-10.339-3.347-15.468-5.081c-14.832-5.016-30.669-7.584-46.314-7.7
			c-9.676-0.071-9.669,14.929,0,15c16.153,0.12,31.632,3.461,46.865,8.685c10.538,3.614,25.121,9.558,35.42,2.291
			C2161.121-2220.053,2153.639-2233.067,2145.715-2227.476L2145.715-2227.476z"/>
	</g>
	<g display="inline">
		<path fill="none" stroke="#414042" stroke-width="2" stroke-miterlimit="10" d="M2009.523-1509.285
			c-7.919,10.518-1.742,25.876,6.673,34.088c6.925,6.757,17.539-3.842,10.607-10.606c-3.925-3.83-8.143-10.845-4.327-15.912
			c2.465-3.274,0.527-8.375-2.691-10.261C2015.948-1514.224,2011.978-1512.544,2009.523-1509.285L2009.523-1509.285z"/>
	</g>
	<g display="inline">
		<path fill="none" stroke="#414042" stroke-width="2" stroke-miterlimit="10" d="M2068.506-1508.768
			c7.156,2.063,11.586,7.097,9.479,14.753c-2.143,7.787-12.075,12.926-18.271,17.039c-8.018,5.322-0.515,18.319,7.57,12.952
			c10.735-7.126,23.088-15.011,25.781-28.618c2.92-14.745-6.869-26.642-20.572-30.59
			C2063.178-1525.917,2059.229-1511.441,2068.506-1508.768L2068.506-1508.768z"/>
	</g>
	<g display="inline">
		<path fill="none" stroke="#414042" stroke-width="2" stroke-miterlimit="10" d="M2046.197-1452.697
			c12.015,12.888,27.311,21.849,41.347,32.274c14.919,11.081,29.95,22.149,46.671,30.399c8.642,4.264,16.245-8.672,7.57-12.952
			c-16.188-7.987-30.794-18.621-45.248-29.342c-13.49-10.008-28.195-18.608-39.734-30.985
			C2050.194-1470.392,2039.61-1459.761,2046.197-1452.697L2046.197-1452.697z"/>
	</g>
	<g display="inline">
		<path fill="none" stroke="#414042" stroke-width="2" stroke-miterlimit="10" d="M1764-1470c39.748,0,79.502-0.014,119.235-1.24
			c19.354-0.597,38.595-0.207,57.935,0.706c9.62,0.453,19.239,0.929,28.865,1.241c10.133,0.328,20.371-0.189,30.465,0.793
			c9.627,0.938,9.537-14.071,0-15c-9.455-0.921-19.04-0.48-28.531-0.736c-9.631-0.26-19.256-0.747-28.879-1.207
			c-19.979-0.955-39.859-1.434-59.854-0.796c-39.73,1.267-79.489,1.24-119.235,1.24C1754.327-1485,1754.327-1470,1764-1470
			L1764-1470z"/>
	</g>
</g>
<g id="Layer_4">
	<path fill="none" d="M404.395,303.021c-0.24,0.459-0.486,0.916-0.697,1.398c-1.076,2.467-1.521,5.322-1.561,7.997
		c-0.012,0.874-0.061,2.646,0.041,3.142c0.078,0.389,0.867,2.566,0.563,2.151c0.107,0.173,0.182,0.298,0.215,0.366
		c0.055,0.056,0.109,0.111,0.164,0.165c0.064,0.011,0.166,0.034,0.311,0.066c-0.018-0.003,2.482,0.047,3.041-0.073
		c5.734-1.228,11.125-3.678,16.338-6.668c-0.471-0.33-0.932-0.678-1.412-0.996C415.936,306.938,410.754,305.379,404.395,303.021z"/>
	<path fill="none" d="M439.59,265.502c1.516-0.716,3.006-1.469,4.479-2.25c-0.119-0.252-0.262-0.554-0.34-0.68
		c-0.146-0.066-0.303-0.131-0.43-0.183c-0.209-0.026-0.426-0.05-0.57-0.068c-0.502,0.032-1.143,0.065-0.811-0.028
		c-3.281,0.681-5.643,1.884-7.656,4.742c-0.256,0.363-0.506,0.729-0.758,1.096c0.014,0.008,0.027,0.016,0.039,0.023
		C435.592,267.309,437.617,266.436,439.59,265.502z"/>
	<path fill="none" d="M412.707,272.073c-0.506-0.385-1.018-0.759-1.518-1.149c-0.348-0.271-0.676-0.559-1.018-0.833
		c-5.752-1.509-12.303-2.585-17.873-0.81c-2.248,0.719-3.949,1.833-4.34,4.297c-0.252,1.595,0.154,2.838,1.578,4.713
		c0.57,0.751,1.324,1.476,2.191,2.173c7.309-0.265,14.412-1.628,19.355-6.595C411.652,273.298,412.186,272.692,412.707,272.073z"/>
	<path fill="none" d="M424.115,294.771c0.758-0.601,1.691-1.078,2.828-1.376c3.592-0.941,6.672-3.001,9.244-5.725
		c-1.6-0.976-3.215-1.931-4.818-2.896c-4.834,1.85-10.176,3.922-14.984,6.706c2.191,0.835,4.367,1.708,6.502,2.679
		C423.301,294.349,423.705,294.568,424.115,294.771z"/>
	<path fill="none" d="M443.555,262.324C443.518,262.276,443.518,262.281,443.555,262.324L443.555,262.324z"/>
	<path fill="#00A79D" d="M433.543,268.154c-0.012-0.008-0.025-0.016-0.039-0.023c-0.012,0.019-0.025,0.037-0.039,0.057
		C433.492,268.176,433.518,268.166,433.543,268.154z"/>
	<path fill="#00A79D" d="M462.461,316.412c5.322,8.018,18.318,0.516,12.953-7.57c-1.697-2.556-3.361-5.147-5.055-7.717
		c-4.756,1.708-9.291,3.88-13.703,6.404C458.625,310.464,460.506,313.469,462.461,316.412z"/>
	<path fill="#00A79D" d="M416.932,256.396c0.01,0.003,0.018,0.007,0.027,0.009c-9.137-7.797-16.904-16.919-25.051-25.805
		c-10.354-11.293-21.164-22.154-32.668-32.275c-7.23-6.361-17.883,4.205-10.607,10.606c11.059,9.728,21.438,20.151,31.445,30.948
		c4.385,4.73,8.645,9.498,13.018,14.138C401.254,253.047,410.297,254.46,416.932,256.396z"/>
	<path fill="#00A79D" d="M412.707,272.073c0.293-0.351,0.588-0.7,0.869-1.062c-0.209-0.045-0.418-0.09-0.633-0.152
		c-0.896-0.262-1.824-0.521-2.771-0.769c0.342,0.274,0.67,0.562,1.018,0.833C411.689,271.314,412.201,271.688,412.707,272.073z"/>
	<path fill="#00A79D" d="M461.113,288.684c-1.373-1.555-2.799-3.066-4.342-4.479c-0.223-0.205-0.455-0.399-0.682-0.601
		c-1.443,3.59-3.291,7.024-5.525,10.145C454.012,291.855,457.525,290.157,461.113,288.684z"/>
	<path fill="#00A79D" d="M431.369,284.775c1.604,0.965,3.219,1.92,4.818,2.896c1.801-1.908,3.35-4.146,4.648-6.554
		c-2.885,1.158-5.797,2.255-8.707,3.368C431.879,284.58,431.621,284.68,431.369,284.775z"/>
	<path fill="#00A79D" d="M722.938,286.127c-31.707,1.848-63.426-2.681-95.117-0.167c-32.346,2.565-64.346-0.21-96.627-2.396
		c-15.248-1.031-30.943-2.41-46.197-0.932c-8.342,0.808-16.277,2.926-23.883,6.051c3.418,3.874,6.391,8.114,9.246,12.441
		c2.051-0.738,4.141-1.393,6.279-1.948c10.297-2.673,21.076-2.146,31.609-1.817c23.752,0.741,47.41,3.289,71.145,4.398
		c11.627,0.543,23.268,0.661,34.898,0.162c12.125-0.521,24.123-1.783,36.279-1.775c24.137,0.015,48.229,2.389,72.367,0.982
		C732.551,300.568,732.605,285.564,722.938,286.127z"/>
	<path fill="#00A79D" d="M427.814,282.585c-0.998-0.638-1.984-1.289-2.973-1.938c-3.113,3.909-6.713,7.336-11.516,9.691
		c1.021,0.374,2.041,0.756,3.059,1.144c4.809-2.784,10.15-4.856,14.984-6.706C430.176,284.057,428.984,283.333,427.814,282.585z"/>
	<path fill="#00A79D" d="M403.465,318.586c-0.123-0.105-0.229-0.232-0.346-0.345C402.928,318.207,403.084,318.288,403.465,318.586z"
		/>
	<path fill="#00A79D" d="M402.955,318.076c-0.123-0.127-0.262-0.24-0.377-0.377C402.912,318.117,403.037,318.24,402.955,318.076z"/>
	<path fill="#00A79D" d="M433.543,268.154c3.35,2.066,6.73,4.098,10.039,6.217c0.592-2.109,1.021-4.293,1.08-5.703
		c0.072-1.791-0.078-3.656-0.117-3.82c-0.107-0.453-0.225-0.905-0.361-1.352c-0.031-0.065-0.072-0.15-0.115-0.244
		c-1.473,0.781-2.963,1.534-4.479,2.25C437.617,266.436,435.592,267.309,433.543,268.154z"/>
	<path fill="#00A79D" d="M448.193,296.764c-2.762,3.203-5.994,5.951-9.68,8.021c1.408,1.22,2.785,2.457,4.121,3.688
		c1.689,1.555,3.34,3.15,4.965,4.771c2.045-1.382,4.066-2.715,6.07-3.946c0.99-0.607,1.986-1.194,2.986-1.768
		C454.102,303.721,451.396,300.036,448.193,296.764z"/>
	<path fill="#00A79D" d="M406.471,318.234c-0.559,0.12-3.059,0.07-3.041,0.073c-0.145-0.032-0.246-0.056-0.311-0.066
		c0.117,0.112,0.223,0.239,0.346,0.345c-0.381-0.298-0.537-0.379-0.346-0.345c-0.055-0.054-0.109-0.109-0.164-0.165
		c0.082,0.164-0.043,0.041-0.377-0.377c0.115,0.137,0.254,0.25,0.377,0.377c-0.033-0.068-0.107-0.193-0.215-0.366
		c-0.027-0.036-0.059-0.085-0.104-0.165c0.039,0.063,0.07,0.113,0.104,0.165c0.305,0.415-0.484-1.763-0.563-2.151
		c-0.102-0.496-0.053-2.268-0.041-3.142c0.039-2.675,0.484-5.53,1.561-7.997c0.211-0.482,0.457-0.939,0.697-1.398
		c-0.225-0.084-0.439-0.161-0.668-0.247c-4.184-1.57-8.783-3.406-13.121-5.683c-4.121,8.479-4.967,19.486-0.922,28.024
		c3.65,7.702,12.563,8.851,20.004,7.724c8.953-1.354,17.334-5.88,25.316-11.055c-3.818-3.715-7.859-7.188-12.195-10.219
		C417.596,314.557,412.205,317.007,406.471,318.234z"/>
	<path fill="#00A79D" d="M402.74,317.71c-0.033-0.052-0.064-0.103-0.104-0.165C402.682,317.625,402.713,317.674,402.74,317.71z"/>
	<path fill="#00A79D" d="M433.465,268.188c-2.895,4.217-5.527,8.568-8.623,12.459c0.988,0.649,1.975,1.301,2.973,1.938
		c1.17,0.748,2.361,1.472,3.555,2.19c0.252-0.096,0.51-0.195,0.76-0.29c2.91-1.113,5.822-2.21,8.707-3.368
		c0.518-0.96,1.002-1.945,1.439-2.95c0.469-1.077,0.922-2.421,1.307-3.796c-3.309-2.119-6.689-4.15-10.039-6.217
		C433.518,268.166,433.492,268.176,433.465,268.188z"/>
	<path fill="#00A79D" d="M450.564,293.749c-0.746,1.043-1.537,2.048-2.371,3.015c3.203,3.272,5.908,6.957,8.463,10.766
		c4.412-2.524,8.947-4.696,13.703-6.404c-2.855-4.327-5.828-8.567-9.246-12.441C457.525,290.157,454.012,291.855,450.564,293.749z"
		/>
	<path fill="#C2B59B" d="M443.715,262.549c0.004,0.006,0.01,0.016,0.014,0.023c0.129,0.059,0.25,0.119,0.334,0.172
		c-0.166-0.106-0.291-0.21-0.381-0.293c-0.012-0.003-0.027-0.006-0.041-0.008C443.664,262.475,443.686,262.504,443.715,262.549z"/>
	<path fill="#C2B59B" d="M443.133,262.295c-0.01-0.003-0.021-0.006-0.031-0.008c-0.016,0-0.031,0-0.047-0.001
		c0.006,0.003,0.016,0.008,0.025,0.012C443.1,262.297,443.115,262.296,443.133,262.295z"/>
	<path fill="#C2B59B" d="M443.682,262.451c-0.002-0.002-0.004-0.004-0.006-0.006c-0.014-0.004-0.027-0.008-0.041-0.012
		c0.002,0.002,0.004,0.006,0.006,0.01C443.654,262.445,443.67,262.448,443.682,262.451z"/>
	<path fill="#C2B59B" d="M443.299,262.39c0.125,0.017,0.246,0.034,0.342,0.054c-0.002-0.004-0.004-0.008-0.006-0.01
		c-0.256-0.073-0.416-0.117-0.502-0.139c-0.018,0.001-0.033,0.002-0.053,0.003C443.121,262.317,443.199,262.35,443.299,262.39z"/>
	<path fill="#C2B59B" d="M443.055,262.286c-0.586-0.009-0.564,0.005-0.326,0.035c0.135-0.009,0.258-0.017,0.352-0.023
		C443.07,262.294,443.061,262.289,443.055,262.286z"/>
	<path fill="#C2B59B" d="M443.055,262.286c0.016,0.001,0.031,0.001,0.047,0.001C443.049,262.275,443.037,262.275,443.055,262.286z"
		/>
	<path fill="#C2B59B" d="M443.08,262.298c-0.094,0.007-0.217,0.015-0.352,0.023c0.145,0.019,0.361,0.042,0.57,0.068
		C443.199,262.35,443.121,262.317,443.08,262.298z"/>
	<path fill="#C2B59B" d="M443.555,262.324c0.018,0.022,0.045,0.06,0.08,0.109c0.014,0.004,0.027,0.008,0.041,0.012
		C443.621,262.395,443.578,262.352,443.555,262.324z"/>
	<path fill="#C2B59B" d="M426.943,293.396c-1.137,0.298-2.07,0.775-2.828,1.376c4.307,2.128,8.35,4.986,12.135,8.102
		c3.629-2.486,7.24-4.955,10.893-7.157c-0.896-0.86-1.832-1.689-2.814-2.479c-2.564-2.059-5.328-3.849-8.141-5.565
		C433.615,290.395,430.535,292.454,426.943,293.396z"/>
	<path fill="#C2B59B" d="M444.012,262.959c0.035,0.09,0.059,0.185,0.09,0.276c0.004-0.003,0.01-0.005,0.014-0.007
		C444.086,263.15,444.053,263.063,444.012,262.959z"/>
	<path fill="#C2B59B" d="M443.236,262.289c-0.051,0-0.09-0.001-0.135-0.002c0.01,0.002,0.021,0.005,0.031,0.008
		C443.186,262.291,443.225,262.289,443.236,262.289z"/>
	<path fill="#C2B59B" d="M443.641,262.443c-0.096-0.02-0.217-0.037-0.342-0.054c0.127,0.052,0.283,0.116,0.43,0.183
		c-0.004-0.008-0.01-0.018-0.014-0.023C443.686,262.504,443.664,262.475,443.641,262.443z"/>
	<path fill="#C2B59B" d="M373.961,280.28c-32.9,0.916-65.711,3.809-98.51,6.394c-24.119,1.9-48.205,3.17-72.389,3.884
		c-11.705,0.345-23.414,0.558-35.125,0.569c-12.154,0.014-23.752-4.723-36-4c-9.611,0.568-9.668,15.572,0,15
		c7.305-0.432,14.264,1.057,21.406,2.367c7.918,1.451,15.656,1.658,23.68,1.588c15.539-0.135,31.074-0.637,46.602-1.221
		c32.455-1.219,64.783-4.36,97.17-6.717c16.412-1.193,32.838-2.175,49.285-2.744c5.732-0.197,11.531-0.025,17.285-0.129
		C381.193,291.546,375.988,286.743,373.961,280.28z"/>
	<path fill="#C2B59B" d="M443.768,262.471c-0.035-0.01-0.061-0.017-0.092-0.025c0.002,0.002,0.004,0.004,0.006,0.006
		C443.713,262.457,443.742,262.465,443.768,262.471z"/>
	<path fill="#C2B59B" d="M448.627,277.74c2.596,1.824,5.1,3.761,7.463,5.864c1.541-3.835,2.627-7.844,3.232-11.829
		c-3.006,1.925-6.096,3.715-9.303,5.299C449.557,277.302,449.092,277.52,448.627,277.74z"/>
	<path fill="#C2B59B" d="M412.707,272.073c-0.521,0.619-1.055,1.225-1.623,1.796c-4.943,4.967-12.047,6.33-19.355,6.595
		c2.211,1.775,5.203,3.362,8.092,4.667c4.908-4.321,10.709-7.447,16.816-10.139C415.314,274.037,414.006,273.063,412.707,272.073z"
		/>
	<path fill="#C2B59B" d="M441.918,262.293c0.115-0.024,0.223-0.053,0.34-0.076C442.096,262.249,441.986,262.273,441.918,262.293z"/>
	<path fill="#C2B59B" d="M422.928,261.145c3.391,2.482,6.963,4.756,10.576,6.986c0.252-0.366,0.502-0.732,0.758-1.096
		c2.014-2.858,4.375-4.062,7.656-4.742c0.068-0.02,0.178-0.044,0.34-0.076c-0.117,0.023-0.225,0.052-0.34,0.076
		c-0.332,0.094,0.309,0.061,0.811,0.028c-0.238-0.03-0.26-0.044,0.326-0.035c-0.018-0.011-0.006-0.011,0.047,0.001
		c0.045,0.001,0.084,0.002,0.135,0.002c-0.012,0-0.051,0.002-0.104,0.006c0.086,0.021,0.246,0.065,0.502,0.139
		c-0.035-0.05-0.063-0.087-0.08-0.109c-0.037-0.043-0.037-0.048,0,0c0.023,0.027,0.066,0.07,0.121,0.121
		c0.031,0.009,0.057,0.016,0.092,0.025c-0.025-0.006-0.055-0.014-0.086-0.02c0.09,0.083,0.215,0.187,0.381,0.293
		c-0.084-0.053-0.205-0.113-0.334-0.172c0.078,0.126,0.221,0.428,0.34,0.68c0.01-0.006,0.021-0.011,0.033-0.017
		c-0.031-0.092-0.055-0.187-0.09-0.276c0.041,0.104,0.074,0.191,0.104,0.27c4.439-2.362,8.682-5.015,12.779-7.879
		c-0.871-1.516-1.957-2.891-3.287-4.043c-6.621-5.74-16.158-4.609-23.398-0.638c-3.848,2.11-6.602,5.323-9.031,8.856
		c0.098,0.164,0.186,0.333,0.27,0.503C421.938,260.402,422.428,260.779,422.928,261.145z"/>
	<path fill="#C2B59B" d="M440.836,281.117c-1.299,2.408-2.848,4.646-4.648,6.554c2.813,1.717,5.576,3.507,8.141,5.565
		c0.982,0.79,1.918,1.619,2.814,2.479c0.926-0.558,1.852-1.1,2.783-1.618c0.213-0.119,0.426-0.231,0.639-0.349
		c2.234-3.12,4.082-6.555,5.525-10.145c-2.363-2.104-4.867-4.04-7.463-5.864C446.064,278.955,443.463,280.064,440.836,281.117z"/>
	<path fill="#00A79D" d="M416.637,274.992c5.51-2.429,11.264-4.512,16.828-6.805c0.014-0.02,0.027-0.038,0.039-0.057
		c-3.613-2.23-7.186-4.504-10.576-6.986c-0.5-0.365-0.99-0.742-1.48-1.116c2.438,4.928-1.219,12.404-7.871,10.983
		c-0.281,0.361-0.576,0.711-0.869,1.062C414.006,273.063,415.314,274.037,416.637,274.992z"/>
	<path fill="#C2B59B" d="M444.102,263.235c-0.012,0.006-0.023,0.011-0.033,0.017c0.043,0.094,0.084,0.179,0.115,0.244
		C444.156,263.409,444.131,263.322,444.102,263.235z"/>
	<path fill="#C2B59B" d="M444.184,263.496c0.137,0.446,0.254,0.898,0.361,1.352c0.039,0.164,0.189,2.029,0.117,3.82
		c-0.059,1.41-0.488,3.594-1.08,5.703c1.707,1.094,3.395,2.209,5.045,3.369c0.465-0.221,0.93-0.438,1.393-0.666
		c3.207-1.584,6.297-3.374,9.303-5.299c0.078-0.508,0.146-1.015,0.209-1.521c0.594-4.884-0.1-10.494-2.637-14.904
		c-4.098,2.864-8.34,5.517-12.779,7.879C444.301,263.714,444.279,263.693,444.184,263.496z"/>
	<path fill="#C2B59B" d="M436.25,302.873c0.764,0.63,1.52,1.267,2.264,1.911c3.686-2.069,6.918-4.817,9.68-8.021
		c-0.344-0.354-0.691-0.705-1.051-1.048C443.49,297.918,439.879,300.387,436.25,302.873z"/>
	<path fill="#C2B59B" d="M444.115,263.229c-0.004,0.002-0.01,0.004-0.014,0.007c0.029,0.087,0.055,0.174,0.082,0.261
		C444.279,263.693,444.301,263.714,444.115,263.229z"/>
	<path fill="#00A79D" d="M424.842,280.646c-2.777-1.826-5.514-3.708-8.205-5.654c-6.107,2.691-11.908,5.817-16.816,10.139
		c1.369,0.619,2.715,1.175,3.938,1.658c3.16,1.248,6.371,2.379,9.568,3.549C418.129,287.982,421.729,284.556,424.842,280.646z"/>
	<path fill="#00A79D" d="M416.637,274.992c2.691,1.946,5.428,3.828,8.205,5.654c3.096-3.891,5.729-8.242,8.623-12.459
		C427.9,270.48,422.146,272.563,416.637,274.992z"/>
	<path fill="#C2B59B" d="M447.143,295.716c0.359,0.343,0.707,0.694,1.051,1.048c0.834-0.967,1.625-1.972,2.371-3.015
		c-0.213,0.117-0.426,0.229-0.639,0.349C448.994,294.616,448.068,295.158,447.143,295.716z"/>
	<path fill="#C2B59B" d="M440.836,281.117c2.627-1.053,5.229-2.162,7.791-3.377c-1.65-1.16-3.338-2.275-5.045-3.369
		c-0.385,1.375-0.838,2.719-1.307,3.796C441.838,279.172,441.354,280.157,440.836,281.117z"/>
	<path fill="#C2B59B" d="M445.818,333.259c14.846,16.78,27.084,35.663,39.643,54.153c5.4,7.951,18.404,0.457,12.953-7.57
		c-11.236-16.541-22.352-33.141-34.887-48.744c-4.996-6.221-10.277-12.221-15.928-17.854c-4.1,2.773-8.289,5.751-12.596,8.542
		C438.787,325.463,442.367,329.357,445.818,333.259z"/>
	<path fill="#C2B59B" d="M391.641,295.137c-1.422,0.07-2.848,0.109-4.275,0.135c1.057,0.638,2.139,1.243,3.24,1.82
		c0.207-0.426,0.414-0.85,0.637-1.262C391.371,295.593,391.508,295.369,391.641,295.137z"/>
	<path fill="#C2B59B" d="M424.115,294.771c-0.41-0.203-0.814-0.423-1.229-0.611c-2.135-0.971-4.311-1.844-6.502-2.679
		c-4.984,2.887-9.367,6.552-11.99,11.54c6.359,2.357,11.541,3.916,17.002,7.549c0.48,0.318,0.941,0.666,1.412,0.996
		c1.895-1.087,3.768-2.24,5.623-3.439C421.939,307.751,419.229,298.648,424.115,294.771z"/>
	<path fill="#C2B59B" d="M421.178,259.525c-0.844-1.394-2.223-2.531-4.219-3.121c1.33,1.136,2.688,2.243,4.082,3.317
		C421.086,259.655,421.133,259.592,421.178,259.525z"/>
	<path fill="#C2B59B" d="M391.729,280.464c-0.867-0.697-1.621-1.422-2.191-2.173c-1.424-1.875-1.83-3.118-1.578-4.713
		c0.391-2.464,2.092-3.578,4.34-4.297c5.57-1.775,12.121-0.699,17.873,0.81c-6.182-4.935-11.725-10.398-17.076-16.074
		c-9.629,1.146-18.021,5.614-19.748,16.507c-0.574,3.624-0.297,6.855,0.613,9.757c0.021-0.001,0.041-0.002,0.063-0.003
		C379.299,280.131,385.586,280.686,391.729,280.464z"/>
	<path fill="#00A79D" d="M410.172,270.091c0.947,0.248,1.875,0.507,2.771,0.769c0.215,0.063,0.424,0.107,0.633,0.152
		c2.729-3.511,4.926-7.57,7.465-11.29c-1.395-1.074-2.752-2.182-4.082-3.317c-0.01-0.002-0.018-0.006-0.027-0.009
		c-6.635-1.936-15.678-3.349-23.836-2.379C398.447,259.692,403.99,265.156,410.172,270.091z"/>
	<path fill="#00A79D" d="M404.395,303.021c2.623-4.988,7.006-8.653,11.99-11.54c-1.018-0.388-2.037-0.77-3.059-1.144
		c-0.348,0.17-0.682,0.348-1.041,0.506c-6.635,2.925-13.586,3.945-20.645,4.293c-0.133,0.232-0.27,0.456-0.398,0.693
		c-0.223,0.412-0.43,0.836-0.637,1.262c4.338,2.276,8.938,4.112,13.121,5.683C403.955,302.86,404.17,302.938,404.395,303.021z"/>
	<path fill="#C2B59B" d="M438.514,304.784c-2.348,1.317-4.875,2.365-7.582,3.075c-0.883,0.231-1.719,0.313-2.5,0.268
		c-1.855,1.199-3.729,2.353-5.623,3.439c4.336,3.03,8.377,6.504,12.195,10.219c4.307-2.791,8.496-5.769,12.596-8.542
		c-1.625-1.62-3.275-3.216-4.965-4.771C441.299,307.241,439.922,306.004,438.514,304.784z"/>
	<path fill="#C2B59B" d="M421.447,260.028c-0.084-0.17-0.172-0.339-0.27-0.503c-0.045,0.066-0.092,0.13-0.137,0.196
		C421.174,259.825,421.313,259.926,421.447,260.028z"/>
	<path fill="#C2B59B" d="M399.82,285.131c-2.889-1.305-5.881-2.892-8.092-4.667c-6.143,0.222-12.43-0.333-17.705-0.187
		c-0.021,0.001-0.041,0.002-0.063,0.003c2.027,6.463,7.232,11.266,13.404,14.991c1.428-0.025,2.854-0.064,4.275-0.135
		C393.893,291.173,396.672,287.903,399.82,285.131z"/>
	<path fill="#C2B59B" d="M424.115,294.771c-4.887,3.877-2.176,12.979,4.316,13.355c2.631-1.701,5.229-3.479,7.818-5.254
		C432.465,299.758,428.422,296.899,424.115,294.771z"/>
	<path fill="#00A79D" d="M421.447,260.028c-0.135-0.103-0.273-0.203-0.406-0.307c-2.539,3.72-4.736,7.779-7.465,11.29
		C420.229,272.433,423.885,264.956,421.447,260.028z"/>
	<path fill="#00A79D" d="M399.82,285.131c-3.148,2.772-5.928,6.042-8.18,10.006c7.059-0.348,14.01-1.368,20.645-4.293
		c0.359-0.158,0.693-0.336,1.041-0.506c-3.197-1.17-6.408-2.301-9.568-3.549C402.535,286.306,401.189,285.75,399.82,285.131z"/>
	<path fill="#C2B59B" d="M428.432,308.127c0.781,0.045,1.617-0.036,2.5-0.268c2.707-0.71,5.234-1.758,7.582-3.075
		c-0.744-0.645-1.5-1.281-2.264-1.911C433.66,304.647,431.063,306.426,428.432,308.127z"/>
</g>
<g id="Layer_5">
	<g>
		<path fill="none" stroke="#000000" stroke-miterlimit="10" d="M410.707,274.073c-0.506-0.385-1.018-0.759-1.518-1.149
			c-0.348-0.271-0.676-0.559-1.018-0.833"/>
		<path fill="none" stroke="#000000" stroke-miterlimit="10" d="M446.193,298.764c3.203,3.272,5.908,6.957,8.463,10.766"/>
		<path fill="none" stroke="#000000" stroke-miterlimit="10" d="M414.637,276.992c-1.322-0.955-2.631-1.93-3.93-2.919"/>
		<path fill="none" stroke="#000000" stroke-miterlimit="10" d="M454.656,309.529c1.969,2.935,3.85,5.939,5.805,8.884
			c5.322,8.017,18.318,0.515,12.953-7.571c-1.697-2.556-3.359-5.147-5.055-7.717"/>
		<path fill="none" stroke="#000000" stroke-miterlimit="10" d="M419.447,262.028c-0.135-0.103-0.273-0.203-0.406-0.307"/>
		<path fill="none" stroke="#000000" stroke-miterlimit="10" d="M391.096,256.017c-4.373-4.64-8.633-9.407-13.018-14.138
			c-10.008-10.797-20.387-21.221-31.445-30.948c-7.275-6.401,3.377-16.968,10.607-10.606c11.504,10.121,22.314,20.982,32.668,32.275
			c8.146,8.886,15.912,18.008,25.051,25.805"/>
		<path fill="none" stroke="#000000" stroke-miterlimit="10" d="M391.096,256.017c5.352,5.676,10.895,11.14,17.076,16.074"/>
		<path fill="none" stroke="#000000" stroke-miterlimit="10" d="M431.504,270.131c-3.613-2.23-7.186-4.504-10.576-6.986
			c-0.5-0.365-0.99-0.742-1.48-1.116"/>
		<path fill="none" stroke="#000000" stroke-miterlimit="10" d="M459.113,290.684c3.418,3.874,6.391,8.114,9.246,12.441"/>
		<path fill="none" stroke="#000000" stroke-miterlimit="10" d="M431.543,270.154c-0.012-0.008-0.025-0.016-0.039-0.023"/>
		<path fill="none" stroke="#000000" stroke-miterlimit="10" d="M419.041,261.722c-1.395-1.074-2.754-2.182-4.082-3.317"/>
		<path fill="none" stroke="#000000" stroke-miterlimit="10" d="M459.113,290.684c-1.373-1.555-2.799-3.066-4.342-4.479
			c-0.223-0.205-0.455-0.399-0.682-0.601"/>
		<path fill="none" stroke="#000000" stroke-miterlimit="10" d="M431.543,270.154c3.35,2.066,6.73,4.098,10.039,6.217"/>
		<path fill="none" stroke="#000000" stroke-miterlimit="10" d="M429.369,286.775c1.605,0.965,3.219,1.92,4.818,2.896"/>
		<path fill="none" stroke="#000000" stroke-miterlimit="10" d="M414.637,276.992c2.691,1.946,5.428,3.828,8.205,5.654"/>
		<path fill="none" stroke="#000000" stroke-miterlimit="10" d="M422.842,282.646c0.988,0.649,1.975,1.301,2.973,1.938
			c1.17,0.748,2.361,1.472,3.555,2.19"/>
		<path fill="none" stroke="#000000" stroke-miterlimit="10" d="M468.359,303.125c2.051-0.737,4.141-1.393,6.279-1.948
			c10.297-2.673,21.076-2.146,31.609-1.817c23.752,0.741,47.41,3.289,71.145,4.398c11.627,0.543,23.268,0.661,34.898,0.162
			c12.125-0.521,24.123-1.783,36.279-1.775c24.137,0.015,48.229,2.389,72.367,0.982c9.613-0.56,9.668-15.563,0-15
			c-31.707,1.847-63.426-2.681-95.117-0.167c-32.346,2.565-64.346-0.21-96.627-2.396c-15.248-1.031-30.943-2.41-46.197-0.933
			c-8.344,0.809-16.277,2.927-23.883,6.052"/>
		<path fill="none" stroke="#000000" stroke-miterlimit="10" d="M431.543,270.154c-0.025,0.012-0.051,0.022-0.078,0.033"/>
		<path fill="none" stroke="#000000" stroke-miterlimit="10" d="M388.605,299.092c-4.121,8.479-4.967,19.486-0.922,28.024
			c3.65,7.702,12.563,8.851,20.004,7.724c8.953-1.354,17.334-5.88,25.316-11.055"/>
		<path fill="none" stroke="#000000" stroke-miterlimit="10" d="M414.637,276.992c-6.107,2.691-11.908,5.817-16.816,10.139"/>
		<path fill="none" stroke="#000000" stroke-miterlimit="10" d="M389.641,297.137c2.252-3.964,5.031-7.233,8.18-10.006"/>
		<path fill="none" stroke="#000000" stroke-miterlimit="10" d="M445.6,315.243c2.045-1.382,4.066-2.715,6.07-3.946
			c0.99-0.607,1.986-1.194,2.986-1.768"/>
		<path fill="none" stroke="#000000" stroke-miterlimit="10" d="M402.395,305.021c-0.24,0.459-0.486,0.916-0.697,1.398
			c-1.076,2.467-2.006,5.324-2.104,7.997c-0.045,1.186-0.188,4.686,1.031,5.982c0.658,0.701,3.846-0.165,3.846-0.165
			c5.734-1.228,11.125-3.678,16.338-6.668"/>
		<path fill="none" stroke="#000000" stroke-miterlimit="10" d="M414.385,293.481c-4.984,2.887-9.367,6.552-11.99,11.54"/>
		<path fill="none" stroke="#000000" stroke-miterlimit="10" d="M431.543,270.154c2.049-0.846,4.074-1.719,6.047-2.652
			c1.516-0.716,3.006-1.468,4.479-2.25"/>
		<path fill="none" stroke="#000000" stroke-miterlimit="10" d="M389.641,297.137c-0.133,0.232-0.27,0.456-0.398,0.692
			c-0.223,0.412-0.43,0.837-0.637,1.263"/>
		<path fill="none" stroke="#000000" stroke-miterlimit="10" d="M414.385,293.481c4.809-2.784,10.15-4.856,14.984-6.706"/>
		<path fill="none" stroke="#000000" stroke-miterlimit="10" d="M442.375,266.009c-2.623-5.051-8.1,0.169-10.113,3.026
			c-0.256,0.363-0.506,0.729-0.758,1.096"/>
		<path fill="none" stroke="#000000" stroke-miterlimit="10" d="M419.178,261.525c-0.045,0.066-0.092,0.13-0.137,0.196"/>
		<path fill="none" stroke="#000000" stroke-miterlimit="10" d="M446.193,298.764c0.834-0.967,1.625-1.973,2.373-3.016"/>
		<path fill="none" stroke="#000000" stroke-miterlimit="10" d="M431.504,270.131c-0.012,0.019-0.025,0.037-0.039,0.057"/>
		<path fill="none" stroke="#000000" stroke-miterlimit="10" d="M410.707,274.073c-0.521,0.619-1.055,1.225-1.623,1.796
			c-4.943,4.967-12.047,6.33-19.355,6.595"/>
		<path fill="none" stroke="#000000" stroke-miterlimit="10" d="M441.582,276.371c-0.385,1.375-0.838,2.719-1.307,3.796
			c-0.438,1.005-0.92,1.99-1.439,2.95"/>
		<path fill="none" stroke="#000000" stroke-miterlimit="10" d="M419.178,261.525c2.43-3.533,5.184-6.746,9.031-8.856
			c7.24-3.972,16.777-5.103,23.398,0.638c1.33,1.152,2.416,2.527,3.287,4.043"/>
		<path fill="none" stroke="#000000" stroke-miterlimit="10" d="M434.188,289.671c1.801-1.909,3.35-4.146,4.648-6.554"/>
		<path fill="none" stroke="#000000" stroke-miterlimit="10" d="M371.961,282.279c-32.9,0.917-65.711,3.81-98.51,6.395
			c-24.119,1.9-48.205,3.171-72.389,3.884c-11.705,0.345-23.414,0.558-35.125,0.569c-12.154,0.014-23.752-4.724-36-4
			c-9.611,0.568-9.668,15.572,0,15c7.305-0.432,14.264,1.057,21.406,2.367c7.918,1.451,15.656,1.658,23.68,1.588
			c15.539-0.135,31.074-0.637,46.602-1.221c32.455-1.219,64.783-4.36,97.17-6.717c16.412-1.193,32.838-2.175,49.285-2.744
			c5.732-0.197,11.531-0.025,17.285-0.129"/>
		<path fill="none" stroke="#000000" stroke-miterlimit="10" d="M422.115,296.771c0.756-0.601,1.691-1.078,2.828-1.376
			c3.592-0.941,6.672-3.001,9.244-5.725"/>
		<path fill="none" stroke="#000000" stroke-miterlimit="10" d="M454.09,285.604c1.541-3.835,2.627-7.844,3.232-11.829"/>
		<path fill="none" stroke="#000000" stroke-miterlimit="10" d="M457.322,273.775c0.078-0.508,0.146-1.015,0.209-1.521
			c0.594-4.884-0.1-10.494-2.637-14.904"/>
		<path fill="none" stroke="#000000" stroke-miterlimit="10" d="M454.09,285.604c-1.443,3.589-3.289,7.023-5.523,10.144"/>
		<path fill="none" stroke="#000000" stroke-miterlimit="10" d="M441.582,276.371c0.592-2.109,1.021-4.293,1.08-5.703
			c0.072-1.791-0.078-3.656-0.117-3.82c-0.107-0.452-0.225-0.904-0.361-1.351"/>
		<path fill="none" stroke="#000000" stroke-miterlimit="10" d="M436.514,306.784c3.686-2.069,6.918-4.817,9.68-8.021"/>
		<path fill="none" stroke="#000000" stroke-miterlimit="10" d="M419.178,261.525c-0.844-1.394-2.223-2.531-4.219-3.121"/>
		<path fill="none" stroke="#000000" stroke-miterlimit="10" d="M385.365,297.271c1.057,0.638,2.139,1.243,3.24,1.82"/>
		<path fill="none" stroke="#000000" stroke-miterlimit="10" d="M445.6,315.243c5.65,5.634,10.932,11.634,15.928,17.854
			c12.535,15.604,23.65,32.203,34.887,48.744c5.451,8.027-7.553,15.521-12.953,7.571c-12.559-18.491-24.797-37.374-39.643-54.154
			c-3.451-3.901-7.031-7.796-10.814-11.474"/>
		<path fill="none" stroke="#000000" stroke-miterlimit="10" d="M419.447,262.028c-0.084-0.17-0.172-0.339-0.27-0.503"/>
		<path fill="none" stroke="#000000" stroke-miterlimit="10" d="M445.6,315.243c-1.625-1.62-3.275-3.216-4.965-4.771
			c-1.336-1.231-2.713-2.469-4.121-3.688"/>
		<path fill="none" stroke="#000000" stroke-miterlimit="10" d="M420.809,313.566c4.336,3.03,8.377,6.504,12.195,10.219"/>
		<path fill="none" stroke="#000000" stroke-miterlimit="10" d="M422.115,296.771c4.307,2.129,8.348,4.986,12.135,8.102"/>
		<path fill="none" stroke="#000000" stroke-miterlimit="10" d="M434.25,304.873c0.764,0.63,1.52,1.267,2.264,1.911"/>
		<path fill="none" stroke="#000000" stroke-miterlimit="10" d="M402.395,305.021c6.359,2.357,11.541,3.917,17.002,7.549
			c0.48,0.318,0.941,0.666,1.412,0.996"/>
		<path fill="none" stroke="#000000" stroke-miterlimit="10" d="M389.729,282.464c-0.867-0.697-1.621-1.422-2.191-2.173
			c-1.424-1.876-1.83-3.118-1.578-4.714c0.391-2.463,2.092-3.578,4.34-4.295c5.57-1.776,12.121-0.7,17.873,0.809"/>
		<path fill="none" stroke="#000000" stroke-miterlimit="10" d="M414.385,293.481c2.191,0.835,4.367,1.708,6.502,2.679
			c0.414,0.188,0.818,0.408,1.229,0.611"/>
		<path fill="none" stroke="#000000" stroke-miterlimit="10" d="M385.365,297.271c-6.172-3.726-11.377-8.528-13.404-14.992"/>
		<path fill="none" stroke="#000000" stroke-miterlimit="10" d="M389.729,282.464c2.211,1.775,5.203,3.362,8.092,4.667"/>
		<path fill="none" stroke="#000000" stroke-miterlimit="10" d="M391.096,256.017c-9.629,1.146-18.021,5.614-19.748,16.507
			c-0.574,3.624-0.297,6.855,0.613,9.756"/>
	</g>
</g>
</svg>
